<?xml version="1.0" encoding="UTF-8" standalone="no"?>
<!-- Created with Inkscape (http://www.inkscape.org/) -->

<svg
   xmlns:dc="http://purl.org/dc/elements/1.1/"
   xmlns:cc="http://creativecommons.org/ns#"
   xmlns:rdf="http://www.w3.org/1999/02/22-rdf-syntax-ns#"
   xmlns:svg="http://www.w3.org/2000/svg"
   xmlns="http://www.w3.org/2000/svg"
   xmlns:sodipodi="http://sodipodi.sourceforge.net/DTD/sodipodi-0.dtd"
   xmlns:inkscape="http://www.inkscape.org/namespaces/inkscape"
   width="50mm"
   height="50mm"
   viewBox="0 0 50 50"
   version="1.1"
   id="svg8"
   sodipodi:docname="fav.svg"
   inkscape:version="0.92.1 r15371">
  <defs
     id="defs2" />
  <sodipodi:namedview
     id="base"
     pagecolor="#ffffff"
     bordercolor="#666666"
     borderopacity="1.0"
     inkscape:pageopacity="0.0"
     inkscape:pageshadow="2"
     inkscape:zoom="1"
     inkscape:cx="282.11331"
     inkscape:cy="129.37955"
     inkscape:document-units="mm"
     inkscape:current-layer="layer1"
     showgrid="false"
     inkscape:window-width="1024"
     inkscape:window-height="715"
     inkscape:window-x="-8"
     inkscape:window-y="-8"
     inkscape:window-maximized="1" />
  <metadata
     id="metadata5">
    <rdf:RDF>
      <cc:Work
         rdf:about="">
        <dc:format>image/svg+xml</dc:format>
        <dc:type
           rdf:resource="http://purl.org/dc/dcmitype/StillImage" />
        <dc:title />
      </cc:Work>
    </rdf:RDF>
  </metadata>
  <g
     inkscape:label="Layer 1"
     inkscape:groupmode="layer"
     id="layer1"
     transform="translate(0,-247)">
    <rect
       id="rect9"
       width="50"
       height="50"
       x="3.5527137e-015"
       y="247"
       style="stroke-width:0.96518445"
       ry="5.8864484" />
    <path
       style="fill:#ffffff;stroke-width:0.12771234"
       d="M 5.4612869,286.95735 5,286.87835 5.507845,286.46794 c 0.7284237,-0.58871 1.5245297,-1.7793 1.9602929,-2.93164 0.2073087,-0.54823 0.4208187,-1.02314 0.4744645,-1.05539 0.1734831,-0.10432 0.5454031,-2.12725 0.6898927,-3.7525 0.077408,-0.87071 0.1427567,-5.43527 0.1452215,-10.14348 l 0.0046,-8.56037 1.9083394,-0.68612 c 1.049588,-0.37734 2.823354,-1.02378 3.941704,-1.4365 1.118351,-0.41271 2.075988,-0.7504 2.128083,-0.7504 0.05209,0 0.07074,4.6569 0.04147,10.34869 -0.05129,9.96261 -0.06425,10.39614 -0.34783,11.62064 -0.506458,2.18693 -1.407208,4.06385 -2.549141,5.31176 -0.927223,1.01328 -2.876486,1.99089 -4.6440857,2.32918 -1.0102331,0.19333 -3.1642469,0.30414 -3.7994388,0.19547 z"
       id="path23"
       inkscape:connector-curvature="0" />
    <path
       style="fill:#ffffff;stroke-width:0.12771234"
       d="m 29.678752,257.00002 -1.51587,0.0846 c -3.257511,0.18184 -6.100428,0.82006 -7.649422,1.71718 -1.011943,0.58608 -1.946837,1.55717 -2.274218,2.36245 -0.785626,1.9325 -0.410118,3.88035 1.095336,5.6822 1.42992,1.71144 1.384855,1.67393 4.843654,4.04205 0.860611,0.58922 1.564647,1.1166 1.564647,1.17213 0,0.0556 0.06704,0.10103 0.148868,0.10103 0.174695,0 2.146113,1.27814 3.536929,2.29297 0.535494,0.39072 1.077135,0.74343 1.203553,0.78378 0.226498,0.0722 1.349829,1.18249 2.387482,2.3596 1.230509,1.3959 1.712446,2.80138 1.585397,4.62304 -0.117604,1.68601 -0.681482,2.86893 -1.944527,4.07868 l -0.582853,0.55807 1.526798,-0.0691 c 3.974861,-0.18012 7.785041,-1.40712 9.423214,-3.03442 0.282953,-0.28107 0.638745,-0.62097 0.790875,-0.75519 0.152127,-0.13424 0.48191,-0.60911 0.73256,-1.05537 0.449417,-0.79982 0.45552,-0.83459 0.447164,-2.45298 -0.008,-1.53844 -0.03738,-1.7139 -0.468469,-2.79049 -0.253014,-0.63188 -0.532326,-1.21252 -0.620702,-1.29008 -0.08837,-0.0775 -0.453813,-0.53664 -0.811901,-1.02039 -1.074209,-1.4511 -2.598314,-2.9199 -4.35696,-4.19852 -0.913901,-0.66443 -2.046453,-1.5008 -2.516727,-1.85851 -0.470274,-0.35775 -1.043482,-0.74697 -1.273923,-0.86509 -0.789788,-0.40495 -3.15668,-2.13472 -4.501901,-3.2902 -0.979459,-0.8413 -1.471087,-1.3713 -1.807993,-1.94855 -0.424325,-0.72703 -0.461894,-0.88098 -0.453052,-1.8505 0.01082,-1.18834 0.260568,-1.86937 1.032542,-2.81535 z m 2.297207,0.0341 0.55706,0.5571 c 0.306374,0.30636 1.044028,0.97905 1.639223,1.49501 0.595192,0.51597 1.450697,1.30754 1.901072,1.75901 0.450373,0.45148 1.492294,1.42788 2.315432,2.16958 1.507622,1.35847 3.283464,3.02886 3.881201,3.65088 0.177674,0.18488 0.349688,0.3361 0.382401,0.3361 0.03272,0 0.05944,-2.24287 0.05944,-4.98396 v -4.98372 H 37.34388 Z m -7.050868,18.5394 c -0.297108,-9.2e-4 -0.586686,0.0231 -0.941707,0.0745 -0.508932,0.0735 -0.962919,0.17679 -1.008707,0.22928 -0.04576,0.0525 -0.513278,0.28008 -1.038984,0.50581 -2.21925,0.95293 -3.462483,3.08277 -3.02585,5.18394 0.193696,0.93207 0.979726,2.26894 1.654641,2.81437 0.631555,0.51038 2.045225,1.13785 3.007345,1.33474 0.955342,0.1955 1.50522,0.19339 2.647649,-0.011 1.621846,-0.28966 2.991782,-1.141 3.774389,-2.34519 0.209576,-0.32248 0.43219,-0.61482 0.494541,-0.64952 0.272928,-0.15201 0.571975,-1.59062 0.488374,-2.34899 -0.08205,-0.74429 -0.316857,-1.51206 -0.499589,-1.63348 -0.04853,-0.0321 -0.251948,-0.29802 -0.452208,-0.59046 -0.452853,-0.66132 -1.543104,-1.53202 -2.349916,-1.87695 -0.335985,-0.1436 -0.644567,-0.30511 -0.685743,-0.35881 -0.0412,-0.0537 -0.526102,-0.16301 -1.077676,-0.24274 -0.384753,-0.0557 -0.689452,-0.0841 -0.98656,-0.0857 z"
       id="path25"
       inkscape:connector-curvature="0" />
  </g>
</svg>
