<?xml version="1.0" encoding="UTF-8" standalone="no"?>
<!-- Created with Inkscape (http://www.inkscape.org/) -->

<svg
   xmlns:dc="http://purl.org/dc/elements/1.1/"
   xmlns:cc="http://creativecommons.org/ns#"
   xmlns:rdf="http://www.w3.org/1999/02/22-rdf-syntax-ns#"
   xmlns:svg="http://www.w3.org/2000/svg"
   xmlns="http://www.w3.org/2000/svg"
   xmlns:sodipodi="http://sodipodi.sourceforge.net/DTD/sodipodi-0.dtd"
   xmlns:inkscape="http://www.inkscape.org/namespaces/inkscape"
   sodipodi:docname="logo.svg"
   inkscape:version="0.92.1 r15371"
   id="svg8"
   version="1.1"
   viewBox="0 0 80 20"
   height="20mm"
   width="80mm">
  <defs
     id="defs2" />
  <sodipodi:namedview
     inkscape:window-maximized="1"
     inkscape:window-y="-8"
     inkscape:window-x="-8"
     inkscape:window-height="715"
     inkscape:window-width="1024"
     showgrid="false"
     inkscape:current-layer="svg8"
     inkscape:document-units="mm"
     inkscape:cy="37.795276"
     inkscape:cx="151.1811"
     inkscape:zoom="2.9732552"
     inkscape:pageshadow="2"
     inkscape:pageopacity="0.0"
     borderopacity="1.0"
     bordercolor="#666666"
     pagecolor="#ffffff"
     id="base" />
  <metadata
     id="metadata5">
    <rdf:RDF>
      <cc:Work
         rdf:about="">
        <dc:format>image/svg+xml</dc:format>
        <dc:type
           rdf:resource="http://purl.org/dc/dcmitype/StillImage" />
        <dc:title></dc:title>
      </cc:Work>
    </rdf:RDF>
  </metadata>
  <g
     inkscape:label="Layer 1"
     inkscape:groupmode="layer"
     id="layer1"
     transform="translate(0,-277)">
    <path
       style="opacity:1;fill:#ff6600;fill-opacity:1;fill-rule:nonzero;stroke:none;stroke-width:0.31203264;stroke-miterlimit:4;stroke-dasharray:none;stroke-opacity:0"
       d=""
       id="path45"
       inkscape:connector-curvature="0"
       transform="scale(0.26458333)" />
  </g>
  <path
     style="opacity:1;fill:#00d4aa;fill-opacity:1;fill-rule:nonzero;stroke:none;stroke-width:0.13717413;stroke-miterlimit:4;stroke-dasharray:none;stroke-opacity:0"
     d="m 1.0015806,18.78502 c 0.08791,-0.0325 0.207122,-0.11097 0.264917,-0.17442 0.05779,-0.0634 0.153779,-0.11539 0.213298,-0.11539 0.05952,0 0.108212,-0.0483 0.108212,-0.10737 0,-0.059 0.04688,-0.10738 0.104173,-0.10738 0.05729,0 0.207331,-0.11274 0.333412,-0.25053 0.126082,-0.1378 0.273626,-0.25055 0.327876,-0.25055 0.05424,0 0.09864,-0.0483 0.09864,-0.10738 0,-0.059 0.04582,-0.10737 0.101853,-0.10737 0.116422,0 0.341022,-0.14863 0.73016,-0.48319 0.14883,-0.12795 0.286987,-0.23264 0.307019,-0.23264 0.02002,0 0.158651,-0.10469 0.308047,-0.23265 0.149393,-0.12795 0.415156,-0.32741 0.590583,-0.44323 0.175425,-0.11582 0.318955,-0.23662 0.318955,-0.26843 0,-0.0318 0.05303,-0.0579 0.117833,-0.0579 0.06481,0 0.117828,-0.0445 0.117828,-0.099 0,-0.0545 0.0707,-0.11587 0.15711,-0.13647 0.185116,-0.0441 0.194453,0.005 0.03678,0.19549 -0.134828,0.16244 -0.149099,0.42143 -0.03402,0.61737 0.07916,0.1348 0.221756,0.13847 5.3809454,0.13847 5.194885,0 5.30273,-0.003 5.456733,-0.14316 0.109677,-0.1 0.157107,-0.23862 0.157107,-0.45934 0,-0.18721 0.03956,-0.32817 0.097,-0.34561 0.06343,-0.0193 0.107155,-0.23813 0.126341,-0.63233 0.01872,-0.38478 0.06515,-0.62164 0.128329,-0.65482 0.05581,-0.0293 0.123519,-0.27885 0.155238,-0.57218 0.03094,-0.28611 0.09618,-0.54269 0.144976,-0.57018 0.0488,-0.0274 0.103215,-0.28364 0.120923,-0.56924 0.0192,-0.3095 0.07588,-0.55905 0.140298,-0.61777 0.110371,-0.10057 0.151235,-0.76155 0.06042,-0.97721 -0.06982,-0.16581 -3.153459,-0.17141 -3.223177,-0.006 -0.02485,0.059 -0.127281,0.10737 -0.227585,0.10737 -0.100301,0 -0.235391,0.0483 -0.300199,0.10737 -0.06481,0.059 -0.173381,0.10737 -0.241273,0.10737 -0.0679,0 -0.194141,0.0644 -0.280551,0.14318 -0.08641,0.0788 -0.254318,0.14218 -0.373129,0.14098 -0.197729,-0.002 -0.203174,-0.009 -0.06429,-0.0824 0.08346,-0.0441 0.250173,-0.172 0.370485,-0.28416 0.120309,-0.11214 0.238365,-0.20391 0.26235,-0.20391 0.02398,0 0.222224,-0.16106 0.440531,-0.35792 0.21831,-0.19685 0.439515,-0.35791 0.491571,-0.35791 0.05206,0 0.336002,-0.20939 0.630994,-0.4652901 0.294991,-0.25592 0.553133,-0.46529 0.573644,-0.46529 0.0473,0 0.724718,-0.49054 0.911249,-0.65985 0.123299,-0.11193 0.296678,-0.12747 1.413971,-0.12678 1.586609,9e-4 1.758467,0.0273 2.139387,0.32724 l 0.307659,0.24229 -0.01708,0.8345101 c -0.01174,0.57426 -0.05411,0.90216 -0.135822,1.05141 -0.06531,0.11931 -0.141306,0.44492 -0.168884,0.7236 -0.02758,0.27869 -0.09797,0.57023 -0.156403,0.64789 -0.05851,0.0778 -0.106263,0.32308 -0.106263,0.546 0,0.25493 -0.03974,0.43488 -0.107339,0.486 -0.0635,0.0481 -0.123351,0.28506 -0.14654,0.58038 -0.02155,0.27456 -0.08187,0.54605 -0.134018,0.60332 -0.05216,0.0572 -0.115067,0.3557 -0.139807,0.66319 -0.02473,0.30749 -0.09287,0.62261 -0.151406,0.70027 -0.05872,0.0779 -0.106429,0.32265 -0.106429,0.54601 0,0.25567 -0.03969,0.43482 -0.107754,0.48629 -0.05927,0.0448 -0.12522,0.22267 -0.14656,0.39521 -0.02134,0.17254 -0.08773,0.36566 -0.147543,0.42916 -0.412201,0.43762 -0.722166,0.68932 -0.898591,0.72967 -0.11262,0.0257 -0.223366,0.091 -0.2461,0.145 -0.03467,0.0824 -1.348595,0.0974 -8.1436264,0.0936 -4.456259,-0.003 -8.03036195,-0.0311 -7.942451,-0.0635 z"
     id="path2284"
     inkscape:connector-curvature="0" />
  <path
     style="opacity:1;fill:#00aad4;fill-opacity:1;fill-rule:nonzero;stroke:none;stroke-width:0.04849838;stroke-miterlimit:4;stroke-dasharray:none;stroke-opacity:0"
     d="m 5.5869506,11.33824 c -0.02293,-0.008 -0.07659,-0.0409 -0.119299,-0.0733 -0.07081,-0.0536 -0.134218,-0.0751 -0.361068,-0.12168 -0.09065,-0.0186 -0.319414,-0.22457 -0.357764,-0.32205 -0.01465,-0.0373 -0.06279,-0.0809 -0.107956,-0.098 -0.08083,-0.0305 -0.113522,-0.096 -0.0468,-0.0938 0.137681,0.005 0.131923,0.0253 0.131923,-0.47155 0,-0.5830701 -0.0443,-0.8159601 -0.144483,-0.7595401 -0.01219,0.007 -0.02216,-0.0113 -0.02216,-0.0402 0,-0.0326 0.02586,-0.0617 0.06775,-0.0762 0.108562,-0.0376 0.130873,-0.11079 0.157406,-0.51626 0.03455,-0.52796 0.04595,-0.59288 0.109529,-0.62389 0.106816,-0.0521 0.130214,-0.14882 0.16207,-0.66999 0.02962,-0.48464 0.03373,-0.50832 0.09681,-0.55679 0.119334,-0.0917 0.135419,-0.15801 0.171594,-0.70743 0.01931,-0.29297 0.03625,-0.5343 0.03767,-0.53627 0.0013,-0.002 0.0317,-0.0103 0.06728,-0.0184 0.122353,-0.028 0.143019,-0.14579 0.18383,-1.04787 7.94e-4,-0.0177 0.03364,-0.0455 0.07297,-0.0618 0.111439,-0.0463 0.150582,-0.14429 0.151422,-0.37922 5.29e-4,-0.11553 0.01219,-0.31791 0.02617,-0.44974 0.02269,-0.2139 0.03301,-0.24472 0.0959,-0.28646 0.09877,-0.0655 0.131024,-0.1992 0.154022,-0.63804 0.01751,-0.33371 0.02047,-0.35054 0.02464,-0.1392 0.0026,0.13224 0.01243,0.26652 0.02179,0.29841 0.01594,0.0543 0.01929,0.0551 0.05173,0.0127 0.0522,-0.0682 0.103108,-0.30889 0.09256,-0.43761 -0.0084,-0.10294 -0.01668,-0.11466 -0.0857,-0.1219 -0.09907,-0.0104 -0.09813,-0.069 0.0019,-0.11614 0.05271,-0.0248 0.0893,-0.0704 0.112125,-0.13953 0.01864,-0.0564 0.0464,-0.14133 0.0617,-0.18859 0.0214,-0.0661 0.04657,-0.0894 0.109032,-0.10073 0.06289,-0.0114 0.08649,-0.0336 0.104626,-0.0979 0.01734,-0.0616 0.05078,-0.0949 0.129038,-0.12886 0.06726,-0.0292 0.116982,-0.0732 0.136873,-0.12122 0.01997,-0.0482 0.05647,-0.0805 0.101117,-0.0893 0.165887,-0.0329 0.211874,-0.0554 0.264279,-0.1291 0.03055,-0.043 0.0868,-0.0854 0.12498,-0.0944 0.285089,-0.0666 0.782606,-0.0718 8.1652614,-0.0868 4.223581,-0.009 7.701137,-0.0253 7.727902,-0.0373 0.09487,-0.0423 0.270718,0.0387 0.270718,0.12475 0,0.0199 -0.01589,0.0362 -0.0353,0.0362 -0.0194,0 -0.110019,0.0625 -0.201357,0.13905 -0.09134,0.0765 -0.206959,0.15148 -0.256941,0.16665 -0.06281,0.0191 -0.102945,0.0539 -0.12996,0.11284 -0.02876,0.0627 -0.06344,0.0909 -0.131309,0.1068 -0.06775,0.0158 -0.107458,0.0481 -0.149624,0.12141 -0.04121,0.0717 -0.07954,0.10341 -0.135894,0.1125 -0.08126,0.0131 -0.107184,0.0399 -0.153199,0.15817 -0.02184,0.0562 -0.04412,0.0696 -0.115375,0.0696 -0.06593,0 -0.113615,0.0241 -0.188155,0.0953 -0.05491,0.0525 -0.159907,0.1273 -0.23331,0.16639 -0.0734,0.0391 -0.147023,0.0982 -0.163596,0.13133 -0.01658,0.0331 -0.08297,0.0829 -0.14753,0.11055 -0.06759,0.029 -0.14042,0.0858 -0.17166,0.13399 -0.03501,0.054 -0.08806,0.0927 -0.14949,0.109 -0.074,0.0197 -0.102216,0.045 -0.126581,0.11372 -0.0258,0.0728 -0.04977,0.0924 -0.135579,0.11086 -0.08606,0.0185 -0.111582,0.0395 -0.146439,0.12039 -0.03057,0.0709 -0.05849,0.0979 -0.101256,0.0979 -0.08792,0 -0.173118,0.0649 -0.190755,0.14523 -0.01298,0.0591 -0.0371,0.0763 -0.143028,0.10216 -0.08888,0.0217 -0.163535,0.0654 -0.246837,0.14463 -0.06568,0.0625 -0.156069,0.12522 -0.200864,0.13946 -0.04907,0.0156 -0.103528,0.0631 -0.136992,0.11956 -0.03373,0.0569 -0.08269,0.0994 -0.124664,0.10836 -0.03802,0.008 -0.09739,0.0529 -0.131923,0.0996 l -0.0628,0.085 v -0.0766 c 0,-0.0891 0.03495,-0.12082 0.159696,-0.14512 0.08019,-0.0156 0.09026,-0.0271 0.09026,-0.10298 0,-0.0853 -5.5e-5,-0.0854 -0.07638,-0.0481 -0.042,0.0205 -0.109064,0.0476 -0.149017,0.0602 -0.06312,0.0199 -0.07455,0.0406 -0.08724,0.15767 -0.0081,0.075 -0.0021,0.14884 0.01356,0.16643 0.02065,0.0232 0.01428,0.0315 -0.02385,0.0312 -0.0286,-2e-4 -0.06894,-0.0102 -0.08965,-0.0221 -0.0314,-0.0181 -0.03077,-0.0317 0.0038,-0.0819 0.0228,-0.033 0.05692,-0.1211 0.07582,-0.19561 0.02281,-0.09 0.06022,-0.15648 0.111457,-0.19808 0.107144,-0.087 0.156792,-0.26948 0.09623,-0.35371 -0.02435,-0.0338 -0.07569,-0.0724 -0.114075,-0.0858 -0.09645,-0.0334 -10.6891594,-0.0328 -10.7576964,4.9e-4 -0.02943,0.0143 -0.06478,0.0778 -0.08401,0.15086 -0.02258,0.0858 -0.05038,0.13107 -0.08696,0.14166 -0.11388,0.0329 -0.138547,0.1165 -0.165443,0.56054 -0.03058,0.5049 -0.0407,0.55763 -0.110994,0.57795 -0.09552,0.0276 -0.120405,0.11847 -0.153561,0.56047 -0.03205,0.42729 -0.034,0.43609 -0.11766,0.53148 -0.106624,0.12157 -0.141668,0.25961 -0.143488,0.5652 -7.94e-4,0.13223 -0.01264,0.3461 -0.02636,0.47525 -0.02281,0.21468 -0.03212,0.24095 -0.108749,0.30618 -0.101433,0.0863 -0.107163,0.10913 -0.128054,0.5093 -0.02921,0.55957 -0.04195,0.63366 -0.114103,0.66362 -0.09219,0.0383 -0.151203,0.16176 -0.118351,0.24764 0.05271,0.13778 0.05441,0.13794 1.648273,0.15233 l 1.4719694,0.0133 -1.2775594,0.008 -1.277559,0.008 0.124979,0.0548 c 0.121582,0.0534 0.159339,0.055 1.388651,0.0631 1.1566784,0.007 1.2713144,0.005 1.3539354,-0.0356 0.04965,-0.0241 0.09025,-0.0522 0.09025,-0.0623 0,-0.027 -0.106191,-0.0483 -0.263842,-0.0529 -0.119215,-0.004 -0.109659,-0.006 0.06752,-0.0212 0.193657,-0.0162 0.211864,-0.023 0.295309,-0.11097 0.07987,-0.0841 0.111119,-0.0973 0.306668,-0.12825 0.192987,-0.0306 0.227295,-0.0446 0.301811,-0.12367 0.08061,-0.0855 0.211355,-0.13484 0.493724,-0.18637 0.05639,-0.0103 0.07638,-0.029 0.07638,-0.0714 0,-0.0667 0.06092,-0.0878 0.255262,-0.0883 0.155696,-4.8e-4 0.198832,0.0383 0.0677,0.0607 -0.05124,0.009 -0.11555,0.0385 -0.142927,0.0661 -0.02737,0.0275 -0.07909,0.0501 -0.114906,0.0501 -0.04608,0 -0.06513,0.0145 -0.06513,0.0494 0,0.0298 -0.04788,0.0794 -0.120754,0.12511 -0.06642,0.0417 -0.141882,0.10509 -0.167704,0.141 -0.02583,0.0359 -0.09559,0.0831 -0.15504,0.10472 -0.07445,0.0272 -0.116779,0.0621 -0.136013,0.1124 -0.0188,0.0491 -0.05348,0.0786 -0.106084,0.0899 -0.100071,0.0217 -0.175367,0.0814 -0.175367,0.13911 0,0.0534 -0.03506,0.0769 -0.166639,0.1122 -0.07562,0.0202 -0.104149,0.0454 -0.128488,0.11349 -0.02357,0.066 -0.05088,0.0911 -0.111091,0.10242 -0.105812,0.0198 -0.315881,0.14227 -0.315881,0.18412 0,0.0183 -0.05714,0.0591 -0.12698,0.0909 -0.06985,0.0318 -0.13423,0.0765 -0.143089,0.0994 -0.02701,0.0698 -0.09916,0.13262 -0.193577,0.16857 -0.05731,0.0219 -0.09638,0.058 -0.1079064,0.0998 -0.01936,0.0703 -0.08625,0.11489 -0.172188,0.11489 -0.0615,0 -0.134903,0.0672 -0.149073,0.13658 -0.0065,0.0319 -0.05156,0.0592 -0.134789,0.0815 -0.08406,0.0226 -0.143162,0.0586 -0.180522,0.10998 -0.03055,0.042 -0.115429,0.11182 -0.188618,0.15506 -0.07318,0.0432 -0.151187,0.10381 -0.173331,0.13462 -0.02216,0.0308 -0.08922,0.0811 -0.149069,0.11172 -0.05984,0.0307 -0.133784,0.0943 -0.164315,0.14146 -0.03869,0.0598 -0.08364,0.0912 -0.148342,0.10383 -0.11224,0.0219 -0.16023,0.0547 -0.192248,0.13144 l -0.02419,0.058 -1.326848,-0.002 c -0.729767,-9e-4 -1.345596,-0.008 -1.368507,-0.0164 z m 2.983276,-0.29374 c -0.0265,-0.0787 -0.03286,-0.0806 -0.09472,-0.0296 -0.07204,0.0594 -0.07035,0.083 0.0068,0.0946 0.08836,0.0133 0.109124,-0.002 0.08793,-0.065 z m -3.315548,0.0102 c -0.03794,-0.0646 -0.139492,-0.0936 -0.170687,-0.0487 -0.04946,0.0711 -0.02575,0.0976 0.08734,0.0976 0.102152,0 0.109527,-0.004 0.08334,-0.0489 z m -0.350112,-0.20131 c 0.0084,-0.0123 -0.0034,-0.0365 -0.02612,-0.0537 -0.03442,-0.026 -0.04135,-0.0222 -0.04135,0.0224 0,0.0543 0.03946,0.0726 0.06748,0.0313 z m 3.916753,-9e-4 c 0.02055,-0.0302 -0.03171,-0.0603 -0.0687,-0.0394 -0.03106,0.0175 -0.01065,0.063 0.02823,0.063 0.01349,0 0.03169,-0.0106 0.04047,-0.0236 z m 0.274621,-0.26856 c -0.01819,-0.0432 -0.06941,-0.0379 -0.08654,0.009 -0.0061,0.0167 0.01436,0.0301 0.04599,0.0301 0.03994,0 0.05208,-0.0117 0.04055,-0.0391 z m 0.790812,-0.49877 c -0.0049,-0.0313 -0.02609,-0.057 -0.04715,-0.057 -0.02105,0 -0.05694,0.0256 -0.07977,0.057 -0.04011,0.0551 -0.03856,0.057 0.04715,0.057 0.07603,0 0.08737,-0.008 0.07976,-0.057 z M 10.154024,9.8913499 c 0.0086,-0.0126 0.0051,-0.0487 -0.0076,-0.0801 l -0.02321,-0.0572 -0.06118,0.0557 c -0.03365,0.0307 -0.05373,0.0667 -0.04464,0.0801 0.02095,0.0309 0.116011,0.0319 0.136655,0.002 z m 0.265428,-0.26807 c 0,-0.0209 -0.01097,-0.038 -0.02437,-0.038 -0.0134,0 -0.03993,0.0171 -0.05894,0.038 -0.02889,0.0317 -0.02488,0.038 0.02437,0.038 0.03388,0 0.05894,-0.0161 0.05894,-0.038 z m 0.262283,-0.20543 c 0.03475,-0.0121 0.03751,-0.0234 0.01248,-0.0509 -0.02422,-0.0265 -0.04148,-0.0283 -0.06983,-0.007 -0.02073,0.0157 -0.03082,0.0386 -0.02245,0.0509 0.01809,0.0266 0.02208,0.027 0.07981,0.007 z m 0.51536,-0.30074 c 0,-0.0751 -0.02986,-0.0805 -0.09296,-0.0169 -0.05087,0.0512 -0.03567,0.0802 0.04204,0.0802 0.0358,0 0.05091,-0.0188 0.05091,-0.0633 z m -6.2635344,-0.24611 c 0.08123,-0.24925 0.04404,-0.5258 -0.07069,-0.5258 -0.0146,0 -0.02578,0.14886 -0.02578,0.34316 0,0.3656 0.02278,0.40875 0.09649,0.18264 z m 6.5412664,0.0401 c 0,-0.009 -0.02721,-0.0659 -0.06047,-0.12654 -0.05773,-0.10534 -0.06604,-0.11033 -0.183496,-0.11033 -0.100774,0 -0.119974,0.007 -0.106167,0.0401 0.0093,0.0221 0.01687,0.0568 0.01687,0.0772 0,0.0204 0.03749,0.0491 0.08331,0.0637 0.04582,0.0146 0.08331,0.0367 0.08331,0.0493 0,0.0125 0.0375,0.0229 0.08333,0.0229 0.04582,0 0.08331,-0.007 0.08331,-0.0162 z m 0.277728,-0.26333 c 0,-0.0661 0.119545,-0.17601 0.19151,-0.17601 0.03034,0 0.06328,-0.012 0.07319,-0.0266 0.01203,-0.0177 -0.039,-0.024 -0.153807,-0.019 l -0.171829,0.007 -0.03795,0.1009 c -0.02089,0.0555 -0.05954,0.11528 -0.08593,0.13287 -0.04145,0.0276 -0.03216,0.0319 0.06843,0.0319 0.09874,0 0.116397,-0.008 0.116397,-0.0517 z m -4.2492674,-0.7096 c 0,-0.23329 -0.0082,-0.30335 -0.03472,-0.29547 -0.129547,0.0386 -0.133501,0.60128 -0.0042,0.60128 0.03126,0 0.03894,-0.0603 0.03894,-0.30581 z m 4.8186154,0.2805 c 0.04629,-0.0181 0.04022,-0.0221 -0.03636,-0.0235 -0.0546,-9e-4 -0.08493,0.008 -0.07474,0.0235 0.02002,0.0295 0.03575,0.0295 0.111093,0 z m -7.1017984,-0.62005 c 0.01602,-0.0696 0.02229,-0.18349 0.01393,-0.25309 -0.01666,-0.13854 -0.08481,-0.23995 -0.12371,-0.18409 -0.02682,0.0385 -0.0313,0.61126 -0.005,0.63527 0.03057,0.0279 0.08389,-0.0642 0.11473,-0.19809 z m 2.532257,-0.86682 c -7.94e-4,-0.28926 -0.0051,-0.31759 -0.04166,-0.27355 -0.07766,0.0936 -0.04882,0.59624 0.03421,0.59624 0.0046,0 0.0079,-0.14522 0.0075,-0.32269 z m -2.289781,-0.27023 c 0.03006,-0.0942 0.04061,-0.21761 0.03509,-0.40997 -0.0076,-0.26359 -0.01055,-0.27553 -0.07041,-0.28328 l -0.06249,-0.008 v 0.43349 c 0,0.45696 0.02002,0.51174 0.09782,0.26784 z m 2.568392,-1.04258 c 0,-0.19111 -0.0052,-0.21431 -0.04166,-0.18671 -0.02945,0.0223 -0.04166,0.0813 -0.04166,0.20134 0,0.0934 0.0083,0.17744 0.01851,0.18672 0.04984,0.0455 0.06481,-9e-4 0.06481,-0.20135 z m -2.279864,-0.24936 c 0.04479,-0.22076 0.03808,-0.32817 -0.02472,-0.39643 -0.04693,-0.051 -0.05907,-0.0542 -0.08289,-0.0218 -0.03026,0.0411 -0.03875,0.50757 -0.01097,0.6021 0.01613,0.0549 0.01893,0.0555 0.05268,0.0116 0.01962,-0.0256 0.04926,-0.11348 0.0659,-0.19549 z m 2.528838,-0.85479 c -7.93e-4,-0.30358 -0.0047,-0.32934 -0.04067,-0.27207 -0.07563,0.12057 -0.04892,0.60741 0.03333,0.60741 0.0046,0 0.0079,-0.1509 0.0074,-0.33534 z m -2.291011,-0.25244 c 0.02332,-0.0716 0.04232,-0.1593 0.04222,-0.19505 -2.5e-4,-0.10525 -0.05324,-0.24865 -0.0976,-0.26416 -0.03496,-0.0122 -0.04111,0.0331 -0.04111,0.30268 0,0.34002 0.02399,0.37895 0.09649,0.15653 z m 13.9427714,-0.24529 c 0,-0.0824 -0.04456,-0.0905 -0.13651,-0.0246 -0.05899,0.0423 -0.06799,0.0599 -0.03941,0.0769 0.02039,0.0121 0.0683,0.0191 0.106489,0.0155 0.05293,-0.005 0.06943,-0.0211 0.06943,-0.0677 z M 8.5586606,3.5974999 c 0,-0.0447 -0.05979,-0.0369 -0.07695,0.01 -0.0061,0.0166 0.0088,0.0301 0.03298,0.0301 0.02419,0 0.04397,-0.018 0.04397,-0.0401 z m 11.6567264,-0.004 c -0.04497,-0.041 -0.05026,-0.041 -0.09522,0 -0.04497,0.0409 -0.04232,0.0434 0.04761,0.0434 0.08993,0 0.09258,-0.003 0.04761,-0.0434 z m -1.031916,-0.24847 c -0.04695,-0.0324 -0.721239,-0.0372 -5.224867,-0.0372 -4.5625264,0 -5.1750274,0.004 -5.2055314,0.038 -0.03071,0.0337 0.552889,0.0379 5.2248674,0.0372 4.630515,-7.2e-4 5.252996,-0.005 5.205531,-0.038 z m 1.789724,-0.25293 c 0,-0.0629 -0.0013,-0.0633 -0.08333,-0.0247 -0.04582,0.0216 -0.08332,0.0504 -0.08332,0.0639 0,0.0136 0.0375,0.0247 0.08332,0.0247 0.07058,0 0.08333,-0.01 0.08333,-0.0639 z m 0.277729,-0.24286 c 0,-0.0757 -0.0026,-0.0775 -0.06097,-0.0421 -0.104719,0.0634 -0.09244,0.0995 0.04013,0.1182 0.01145,0.002 0.02084,-0.0326 0.02084,-0.0761 z m 0.277732,-0.2392 c 0,-0.0803 -0.07083,-0.0759 -0.131992,0.008 -0.03998,0.055 -0.03839,0.057 0.04528,0.057 0.07463,0 0.0867,-0.009 0.0867,-0.0652 z m 0.259386,-0.22738 c -0.01253,-0.0297 -0.02436,-0.0314 -0.05564,-0.008 -0.03107,0.0235 -0.03217,0.0343 -0.005,0.0496 0.04737,0.0266 0.08004,0.005 0.06067,-0.0419 z m -15.2531674,-0.2907 c 0.03803,-0.1157 0.01804,-0.17605 -0.05833,-0.17605 -0.05103,0 -0.05641,0.016 -0.05641,0.1676 0,0.14588 0.0054,0.16354 0.04152,0.1362 0.02285,-0.0173 0.05578,-0.0748 0.0732,-0.12775 z m 15.7714234,0.0138 c 0,-0.10723 -0.0222,-0.11041 -0.120171,-0.0172 -0.08409,0.08 -0.07395,0.1058 0.04148,0.1058 0.07141,0 0.07869,-0.008 0.07869,-0.0886 z m 0.277307,-0.18348 c -2.23e-4,-0.0104 -0.01166,-0.0352 -0.02541,-0.0549 -0.02126,-0.0306 -0.03566,-0.0296 -0.09678,0.007 -0.0947,0.0565 -0.09072,0.067 0.02541,0.067 0.05347,0 0.09702,-0.009 0.09679,-0.019 z m -15.8024164,-0.17083 0.06523,-0.0633 h -0.08816 c -0.06698,0 -0.08816,0.0112 -0.08816,0.0464 0,0.0381 0.02174,0.0802 0.04144,0.0802 0.0024,0 0.03376,-0.0284 0.06963,-0.0633 z m 16.0527974,-0.11831 v -0.0804 l -0.06943,0.0594 c -0.03819,0.0327 -0.06944,0.0688 -0.06944,0.0804 0,0.0115 0.03125,0.0209 0.06944,0.0209 0.05948,0 0.06943,-0.0115 0.06943,-0.0804 z M 7.1088356,1.5035599 c 0.0455,-0.0328 -0.0046,-0.0675 -0.09852,-0.068 -0.05118,-2.4e-4 -0.06249,0.0135 -0.06249,0.0764 0,0.0716 0.0043,0.0748 0.06249,0.0472 0.03437,-0.0163 0.07871,-0.0413 0.09852,-0.0556 z m 15.9865244,-0.0331 c 0.03143,-0.011 0.03881,-0.0341 0.0262,-0.0823 -0.02607,-0.0996 -0.03836,-0.11055 -0.08486,-0.0754 -0.07046,0.0533 -0.09108,0.13255 -0.03957,0.15218 0.02482,0.009 0.04725,0.018 0.04982,0.019 0.0026,9e-4 0.02435,-0.005 0.04841,-0.0135 z m -15.3004574,-0.20915 0.08331,-0.0413 -0.218639,-0.007 c -0.120253,-0.005 -0.224373,-0.002 -0.231376,0.004 -0.007,0.006 0.0016,0.0362 0.01938,0.0663 0.028,0.0477 0.04698,0.0525 0.148059,0.0372 0.06377,-0.01 0.153435,-0.0361 0.19926,-0.0589 z m 15.5821484,-0.0309 c 0.03539,-0.0522 -0.03013,-0.0752 -0.126799,-0.0446 -0.08199,0.026 -0.0871,0.0323 -0.03991,0.0491 0.07966,0.0284 0.145548,0.0266 0.166716,-0.004 z"
     id="path2286"
     inkscape:connector-curvature="0" />
  <text
     xml:space="preserve"
     style="font-style:italic;font-variant:normal;font-weight:bold;font-stretch:normal;font-size:17.64386177px;line-height:1.25;font-family:Arial;-inkscape-font-specification:'Arial, Bold Italic';font-variant-ligatures:normal;font-variant-caps:normal;font-variant-numeric:normal;font-feature-settings:normal;text-align:center;letter-spacing:0px;word-spacing:0px;writing-mode:lr-tb;text-anchor:middle;fill:#00d4aa;fill-opacity:1;stroke:none;stroke-width:0.94520682"
     x="49.424911"
     y="13.641626"
     id="text2292"
     transform="scale(1.0117962,0.98834133)"><tspan
       sodipodi:role="line"
       id="tspan2290"
       x="49.424911"
       y="13.641626"
       style="font-style:italic;font-variant:normal;font-weight:bold;font-stretch:normal;font-size:17.64386177px;font-family:Arial;-inkscape-font-specification:'Arial, Bold Italic';font-variant-ligatures:normal;font-variant-caps:normal;font-variant-numeric:normal;font-feature-settings:normal;text-align:center;writing-mode:lr-tb;text-anchor:middle;fill:#00d4aa;stroke-width:0.94520682">HAHIN</tspan></text>
  <text
     xml:space="preserve"
     style="font-style:normal;font-variant:normal;font-weight:bold;font-stretch:normal;font-size:6.16917515px;line-height:1.25;font-family:Arial;-inkscape-font-specification:'Arial, Bold';font-variant-ligatures:normal;font-variant-caps:normal;font-variant-numeric:normal;font-feature-settings:normal;text-align:center;letter-spacing:0px;word-spacing:0px;writing-mode:lr-tb;text-anchor:middle;fill:#00aad4;fill-opacity:1;stroke:none;stroke-width:0.33049148"
     x="37.010563"
     y="20.549292"
     id="text2296"
     transform="scale(1.0856637,0.92109555)"><tspan
       sodipodi:role="line"
       id="tspan2294"
       x="37.010563"
       y="20.549292"
       style="font-style:normal;font-variant:normal;font-weight:bold;font-stretch:normal;font-size:6.16917515px;font-family:Arial;-inkscape-font-specification:'Arial, Bold';font-variant-ligatures:normal;font-variant-caps:normal;font-variant-numeric:normal;font-feature-settings:normal;text-align:center;writing-mode:lr-tb;text-anchor:middle;fill:#00aad4;stroke-width:0.33049148">SOFTWARE</tspan></text>
  <text
     xml:space="preserve"
     style="font-style:normal;font-variant:normal;font-weight:bold;font-stretch:normal;font-size:5.96856117px;line-height:1.25;font-family:Calibri;-inkscape-font-specification:'Calibri, Bold';font-variant-ligatures:normal;font-variant-caps:normal;font-variant-numeric:normal;font-feature-settings:normal;text-align:center;letter-spacing:0px;word-spacing:0px;writing-mode:lr-tb;text-anchor:middle;fill:#00d4aa;fill-opacity:1;stroke:none;stroke-width:0.3197453"
     x="56.37566"
     y="21.149551"
     id="text2300"
     transform="scale(1.1637661,0.85927919)"><tspan
       sodipodi:role="line"
       id="tspan2298"
       x="56.37566"
       y="21.149551"
       style="font-style:normal;font-variant:normal;font-weight:bold;font-stretch:normal;font-size:5.96856117px;font-family:Calibri;-inkscape-font-specification:'Calibri, Bold';font-variant-ligatures:normal;font-variant-caps:normal;font-variant-numeric:normal;font-feature-settings:normal;text-align:center;writing-mode:lr-tb;text-anchor:middle;fill:#00d4aa;stroke-width:0.3197453">&lt;/&gt;</tspan></text>
</svg>
