<?xml version="1.0" encoding="UTF-8" standalone="no"?>
<!-- Created with Inkscape (http://www.inkscape.org/) -->

<svg
   xmlns:dc="http://purl.org/dc/elements/1.1/"
   xmlns:cc="http://creativecommons.org/ns#"
   xmlns:rdf="http://www.w3.org/1999/02/22-rdf-syntax-ns#"
   xmlns:svg="http://www.w3.org/2000/svg"
   xmlns="http://www.w3.org/2000/svg"
   xmlns:sodipodi="http://sodipodi.sourceforge.net/DTD/sodipodi-0.dtd"
   xmlns:inkscape="http://www.inkscape.org/namespaces/inkscape"
   width="280"
   height="50"
   viewBox="0 0 74.083331 13.229166"
   version="1.1"
   id="svg8"
   inkscape:export-filename="E:\fb\etsc logo.png"
   inkscape:export-xdpi="68.588203"
   inkscape:export-ydpi="68.588203"
   inkscape:version="0.92.1 r15371"
   sodipodi:docname="logo.svg">
  <defs
     id="defs2" />
  <sodipodi:namedview
     id="base"
     pagecolor="#ffffff"
     bordercolor="#666666"
     borderopacity="1.0"
     inkscape:pageopacity="0.0"
     inkscape:pageshadow="2"
     inkscape:zoom="2"
     inkscape:cx="146.73462"
     inkscape:cy="-28.058302"
     inkscape:document-units="mm"
     inkscape:current-layer="layer1"
     showgrid="false"
     showborder="false"
     units="px"
     inkscape:window-width="1024"
     inkscape:window-height="715"
     inkscape:window-x="-8"
     inkscape:window-y="-8"
     inkscape:window-maximized="1" />
  <metadata
     id="metadata5">
    <rdf:RDF>
      <cc:Work
         rdf:about="">
        <dc:format>image/svg+xml</dc:format>
        <dc:type
           rdf:resource="http://purl.org/dc/dcmitype/StillImage" />
        <dc:title></dc:title>
      </cc:Work>
    </rdf:RDF>
  </metadata>
  <g
     inkscape:label="Layer 1"
     inkscape:groupmode="layer"
     id="layer1"
     transform="translate(0,-283.77082)">
    <path
       style="opacity:1;fill:#00ff00;fill-opacity:1;fill-rule:nonzero;stroke:none;stroke-width:0.28080198;stroke-miterlimit:4;stroke-dasharray:none;stroke-opacity:1"
       d=""
       id="path55"
       inkscape:connector-curvature="0" />
    <path
       style="opacity:1;fill:#00ff00;fill-opacity:1;fill-rule:nonzero;stroke:none;stroke-width:0.28080198;stroke-miterlimit:4;stroke-dasharray:none;stroke-opacity:1"
       d=""
       id="path59"
       inkscape:connector-curvature="0" />
    <path
       style="opacity:1;fill:#00ff00;fill-opacity:1;fill-rule:nonzero;stroke:none;stroke-width:0.28080198;stroke-miterlimit:4;stroke-dasharray:none;stroke-opacity:1"
       d=""
       id="path61"
       inkscape:connector-curvature="0" />
    <text
       xml:space="preserve"
       style="font-style:normal;font-variant:normal;font-weight:normal;font-stretch:normal;font-size:10.60655022px;line-height:1.25;font-family:Arial;-inkscape-font-specification:Arial;letter-spacing:0px;word-spacing:0px;fill:#000000;fill-opacity:1;stroke:none;stroke-width:0.26516378"
       x="132.32082"
       y="391.31873"
       id="text91"
       transform="scale(1.0029577,0.99705102)"><tspan
         sodipodi:role="line"
         id="tspan89"
         x="132.32082"
         y="400.87262"
         style="stroke-width:0.26516378" /></text>
    <path
       style="font-style:normal;font-variant:normal;font-weight:900;font-stretch:normal;font-size:17.8771019px;line-height:1.25;font-family:Arial;-inkscape-font-specification:'Arial Heavy';letter-spacing:0px;word-spacing:0px;fill:#aad400;fill-opacity:1;stroke:none;stroke-width:0.47514716"
       d="m 60.692958,283.77066 v 13.2191 h 4.068318 v -7.25863 l 5.243804,7.25863 h 4.078253 v -13.2191 H 70.00508 v 7.31285 l -5.272445,-7.31285 z"
       id="path869"
       inkscape:connector-curvature="0" />
    <path
       style="font-style:normal;font-variant:normal;font-weight:900;font-stretch:normal;font-size:17.8771019px;line-height:1.25;font-family:Arial;-inkscape-font-specification:'Arial Heavy';letter-spacing:0px;word-spacing:0px;fill:#5fd3bc;fill-opacity:1;stroke:none;stroke-width:0.47514716"
       d="m 55.10915,283.78074 v 13.21909 h 4.336616 v -13.21909 z"
       id="path867"
       inkscape:connector-curvature="0" />
    <path
       style="font-style:normal;font-variant:normal;font-weight:900;font-stretch:normal;font-size:17.8771019px;line-height:1.25;font-family:Arial;-inkscape-font-specification:'Arial Heavy';letter-spacing:0px;word-spacing:0px;fill:#aad400;fill-opacity:1;stroke:none;stroke-width:0.47514716"
       d="m 40.511749,283.78074 v 13.21909 h 4.326676 v -5.34702 h 4.727667 v 5.34702 h 4.345383 v -13.21909 h -4.345383 v 4.62564 h -4.727667 v -4.62564 z"
       id="path865"
       inkscape:connector-curvature="0" />
    <path
       style="font-style:normal;font-variant:normal;font-weight:900;font-stretch:normal;font-size:17.8771019px;line-height:1.25;font-family:Arial;-inkscape-font-specification:'Arial Heavy';letter-spacing:0px;word-spacing:0px;fill:#5fd3bc;fill-opacity:1;stroke:none;stroke-width:0.47514716"
       d="m 31.465113,283.78064 -5.262409,13.21935 h 4.421957 l 0.678268,-2.1823 h 4.928195 l 0.687596,2.1823 h 4.52714 l -5.262407,-13.21935 z"
       id="path863"
       inkscape:connector-curvature="0" />
    <path
       style="font-style:normal;font-variant:normal;font-weight:900;font-stretch:normal;font-size:17.8771019px;line-height:1.25;font-family:Arial;-inkscape-font-specification:'Arial Heavy';letter-spacing:0px;word-spacing:0px;fill:#aad400;fill-opacity:1;stroke:none;stroke-width:0.47514716"
       d="m 13.630029,283.78074 v 13.21909 h 4.326678 v -5.34702 h 4.727664 v 5.34702 h 4.345968 v -13.21909 h -4.345968 v 4.62564 h -4.727664 v -4.62564 z"
       id="text50"
       inkscape:connector-curvature="0" />
    <path
       style="opacity:1;fill:#5fd3bc;fill-opacity:1;fill-rule:nonzero;stroke:none;stroke-width:0.11018207;stroke-miterlimit:4;stroke-dasharray:none;stroke-opacity:1"
       d="m 7.5900991,283.78074 -0.436058,0.12031 c -0.24007,0.0661 -0.4512727,0.13955 -0.4687915,0.16317 -0.01752,0.0237 -0.1574352,0.0998 -0.3109693,0.16937 -0.153534,0.0695 -0.3479288,0.18866 -0.4319662,0.26387 -0.084042,0.0752 -0.1733728,0.13036 -0.1987398,0.1229 -0.049227,-0.0146 -0.7193358,0.59332 -0.9428438,0.8551 -0.4054313,0.47488 -0.7729448,1.39034 -0.8779615,2.18839 -0.06211,0.47203 0.1924313,1.55303 0.4886656,2.07528 0.1776454,0.31318 0.618431,0.91569 0.618431,0.84531 0,-0.0249 0.064418,0.0314 0.1432092,0.12547 0.18864,0.22523 0.6583944,0.5997 0.7265688,0.57937 0.029556,-0.01 0.067408,0.0101 0.084172,0.0413 0.030167,0.0564 0.4250968,0.31344 0.4816512,0.31344 0.016118,0 0.1798977,0.07 0.3635763,0.15594 l 0.3337659,0.15594 3.029611,0.0289 3.029025,0.0295 0.202246,0.17092 c 0.236639,0.1999 0.323191,0.40406 0.337858,0.7983 0.01511,0.40652 -0.209194,0.74074 -0.625446,0.93257 -0.100345,0.0463 -1.948478,0.0641 -6.6373182,0.0641 C 2.144162,293.98019 0,293.99929 0,294.03809 c 0,0.11082 0.40763518,0.71432 0.7879441,1.16699 0.5006748,0.59594 1.3721194,1.36792 1.8137911,1.60591 l 0.3513015,0.189 h 5.5483418 5.5483425 l 0.553549,-0.25044 c 1.36191,-0.61675 2.186078,-1.5359 2.556141,-2.84934 0.199582,-0.70839 0.201988,-1.17536 0.0088,-1.86307 -0.150446,-0.53555 -0.517155,-1.30486 -0.621938,-1.30486 -0.03057,0 -0.05553,-0.0278 -0.05553,-0.062 0,-0.0777 -0.250995,-0.36844 -0.308046,-0.3568 -0.02307,0.005 -0.03571,-0.0123 -0.02806,-0.0377 0.01761,-0.058 -0.577038,-0.58188 -0.873286,-0.7694 -0.122566,-0.0776 -0.35212,-0.19612 -0.509708,-0.26335 -0.157585,-0.0672 -0.305199,-0.14823 -0.32792,-0.17969 -0.02272,-0.0315 -0.08529,-0.0417 -0.139118,-0.0233 -0.05379,0.0186 -0.106908,0.01 -0.118074,-0.0212 -0.04622,-0.12411 -0.926356,-0.16652 -3.470344,-0.16679 H 8.0296665 l -0.2215362,-0.18536 c -0.3196381,-0.26682 -0.4368558,-0.65749 -0.3115536,-1.03997 0.051342,-0.15669 0.16916,-0.35588 0.2618688,-0.44304 0.3550178,-0.33373 -0.088822,-0.32723 10.1982625,-0.32583 v -3.07705 z"
       id="path949"
       inkscape:connector-curvature="0" />
    <path
       style="opacity:1;fill:#ff7f2a;fill-opacity:1;fill-rule:nonzero;stroke:none;stroke-width:0.01815695;stroke-miterlimit:4;stroke-dasharray:none;stroke-opacity:1"
       d="m 32.106944,291.9845 c -0.08941,-0.0386 -0.114785,-0.0518 -0.119839,-0.0666 -0.0042,-0.0113 -0.02458,-0.0265 -0.05603,-0.0407 -0.027,-0.0128 -0.0581,-0.0326 -0.06847,-0.0457 -0.01049,-0.0128 -0.03049,-0.028 -0.04456,-0.0335 -0.01407,-0.006 -0.03386,-0.0198 -0.04369,-0.0324 -0.0099,-0.0125 -0.04014,-0.0337 -0.06708,-0.0477 -0.03173,-0.0168 -0.04736,-0.0295 -0.04442,-0.0369 0.0026,-0.007 -0.01075,-0.0202 -0.03309,-0.0328 -0.0208,-0.0114 -0.03651,-0.0241 -0.0353,-0.0272 0.0033,-0.008 -0.05811,-0.0829 -0.07278,-0.0887 -0.0065,-0.003 -0.01656,-0.0151 -0.02211,-0.0285 -0.0057,-0.0131 -0.02169,-0.0284 -0.03562,-0.0339 -0.02234,-0.009 -0.02332,-0.0114 -0.0077,-0.0231 0.02276,-0.0168 0.01851,-0.0373 -0.0064,-0.0311 -0.02746,0.007 -0.02912,-0.008 -0.0037,-0.0316 0.01251,-0.0115 0.02231,-0.0276 0.02199,-0.036 -0.001,-0.0228 -0.03415,-0.0199 -0.04334,0.003 -0.01077,0.0272 -0.02238,0.021 -0.03724,-0.0201 -0.0076,-0.0206 -0.02468,-0.0409 -0.04426,-0.0525 -0.0328,-0.0194 -0.03556,-0.0362 -0.0076,-0.0459 0.01206,-0.004 0.0093,-0.009 -0.01267,-0.0229 -0.01783,-0.0103 -0.02956,-0.0268 -0.03129,-0.0421 -0.0015,-0.0136 -0.0073,-0.0267 -0.01292,-0.0289 -0.0056,-0.002 -0.008,-0.01 -0.0053,-0.0163 0.0026,-0.007 -0.0031,-0.0182 -0.01292,-0.0255 -0.0098,-0.007 -0.01502,-0.0202 -0.01164,-0.0288 0.0033,-0.008 0.0013,-0.0229 -0.0046,-0.032 -0.006,-0.009 -0.0086,-0.0219 -0.0061,-0.0283 0.0026,-0.007 -4.58e-4,-0.0217 -0.0068,-0.0338 -0.0063,-0.0122 -0.01278,-0.0347 -0.01444,-0.0502 -0.0016,-0.0155 -0.0075,-0.0301 -0.01314,-0.0323 -0.0056,-0.002 -0.0072,-0.0115 -0.0038,-0.0202 0.0037,-0.009 8.82e-4,-0.0207 -0.0058,-0.0264 -0.0066,-0.006 -0.01054,-0.0231 -0.0085,-0.0391 0.002,-0.0159 -8.79e-4,-0.034 -0.0064,-0.0403 -0.01254,-0.0146 0.0049,-0.0964 0.02102,-0.0983 0.01526,-10e-4 0.02094,-0.0163 0.0082,-0.0214 -0.0055,-0.002 -0.01216,0.002 -0.01502,0.009 -0.0029,0.007 -0.01177,0.0102 -0.02001,0.007 -0.01107,-0.004 -0.01096,-0.0159 3.22e-4,-0.0445 0.01107,-0.028 0.01135,-0.0448 0.0012,-0.0611 -0.01179,-0.0189 -0.0099,-0.0332 0.01145,-0.0872 0.01787,-0.0452 0.02313,-0.0724 0.01744,-0.0903 -0.0059,-0.0186 8.28e-4,-0.0504 0.02443,-0.11574 0.02292,-0.0634 0.03041,-0.0979 0.02518,-0.11632 -0.0055,-0.0192 0.0034,-0.0562 0.03336,-0.13966 0.03247,-0.0903 0.0387,-0.118 0.03054,-0.13583 -0.0076,-0.0167 -0.0028,-0.0436 0.01875,-0.10566 0.02256,-0.0649 0.02642,-0.0881 0.01747,-0.10513 -0.0089,-0.0168 -0.0058,-0.0363 0.01328,-0.0845 0.01768,-0.0447 0.02135,-0.0654 0.01306,-0.0724 -0.007,-0.006 -0.0063,-0.0304 0.0019,-0.0615 0.0087,-0.0331 0.0091,-0.0566 0.0011,-0.0653 -0.0091,-0.01 -0.0071,-0.0273 0.0076,-0.0645 0.01787,-0.0452 0.01788,-0.0518 2e-4,-0.0587 -0.01699,-0.007 -0.0177,-0.0135 -0.0045,-0.0468 0.0085,-0.0214 0.01324,-0.052 0.01055,-0.0679 -0.0026,-0.0159 -0.002,-0.0455 0.0015,-0.0658 0.0035,-0.0202 0.0028,-0.0448 -0.0014,-0.0546 -0.0041,-0.0102 -0.0036,-0.0378 0.0015,-0.0621 0.0051,-0.0242 0.0039,-0.0486 -0.0027,-0.0541 -0.01494,-0.0124 0.0039,-0.0626 0.02648,-0.0705 0.0133,-0.004 0.01229,-0.0134 -0.0058,-0.0437 -0.01235,-0.0208 -0.02067,-0.0424 -0.01847,-0.048 0.0022,-0.006 -3.76e-4,-0.0197 -0.0059,-0.0314 -0.0053,-0.0118 -0.006,-0.0383 -0.0013,-0.0591 0.0047,-0.0208 0.0033,-0.0423 -0.0032,-0.0476 -0.0066,-0.006 -0.0068,-0.0223 -2.68e-4,-0.0388 0.0099,-0.025 0.01473,-0.0277 0.03577,-0.0194 0.05512,0.0218 0.04623,-0.0174 -0.01022,-0.0453 l -0.0337,-0.0165 0.01519,-0.0558 c 0.009,-0.0328 0.01098,-0.065 0.005,-0.078 -0.007,-0.015 -0.0042,-0.0375 0.0087,-0.07 0.01313,-0.0332 0.01555,-0.0543 0.0081,-0.0686 -0.006,-0.012 -0.0053,-0.0408 0.0018,-0.0668 0.007,-0.0253 0.0096,-0.0561 0.0058,-0.0684 -0.0038,-0.0122 -0.0025,-0.034 0.0029,-0.0483 0.0054,-0.0143 0.0095,-0.0434 0.0092,-0.0646 -5.81e-4,-0.0358 8.21e-4,-0.0383 0.02017,-0.0353 0.01162,10e-4 0.02292,-0.002 0.02549,-0.009 0.0062,-0.0156 -0.0035,-0.0187 -0.03268,-0.01 -0.02268,0.007 -0.02317,0.005 -0.01023,-0.0274 0.0085,-0.0215 0.0093,-0.0456 0.0023,-0.064 -0.0083,-0.0217 -0.0062,-0.0426 0.0077,-0.0778 0.01335,-0.0338 0.01528,-0.0512 0.0067,-0.0585 -0.008,-0.006 -0.0071,-0.0307 0.0023,-0.0674 0.0092,-0.0358 0.01025,-0.0608 0.0027,-0.0671 -0.0087,-0.007 -0.0058,-0.0258 0.0091,-0.0638 0.01163,-0.0296 0.02229,-0.0779 0.02367,-0.10722 0.0014,-0.0294 0.01782,-0.1022 0.03649,-0.16181 0.02495,-0.0797 0.03132,-0.11406 0.024,-0.12984 -0.0081,-0.0174 -0.0014,-0.0431 0.03613,-0.138 0.04038,-0.10213 0.04436,-0.11846 0.03199,-0.13186 -0.01326,-0.0138 -0.0037,-0.0414 0.134762,-0.38882 0.134447,-0.33736 0.150753,-0.37371 0.168384,-0.37498 0.01578,-0.001 0.02507,-0.0155 0.04812,-0.0738 0.02213,-0.056 0.03603,-0.0778 0.06114,-0.0964 0.02394,-0.0177 0.03899,-0.0404 0.05695,-0.0858 0.0189,-0.0478 0.02874,-0.0621 0.04345,-0.0631 0.01174,-7.3e-4 0.0273,-0.0165 0.04081,-0.0413 0.012,-0.0219 0.02952,-0.0435 0.039,-0.0479 0.0096,-0.005 0.02304,-0.014 0.03016,-0.0214 0.0089,-0.009 0.01871,-0.009 0.0315,-6.7e-4 0.02308,0.0156 0.04312,-10e-4 0.03572,-0.0296 -0.0083,-0.0322 0.01052,-0.0676 0.03764,-0.0707 0.01315,-10e-4 0.02653,-0.009 0.02947,-0.0163 0.0099,-0.0251 0.02742,0.003 0.02159,0.035 l -0.0058,0.0316 0.02231,-0.0205 c 0.01905,-0.0175 0.0205,-0.023 0.01,-0.0375 -0.01476,-0.02 0.01123,-0.0634 0.0371,-0.0619 0.009,3.4e-4 0.01933,-0.007 0.02312,-0.0166 0.0038,-0.01 0.01845,-0.0206 0.0326,-0.0242 0.01425,-0.004 0.02818,-0.013 0.0312,-0.0207 0.0029,-0.007 0.01716,-0.0173 0.03153,-0.0215 0.01425,-0.004 0.02726,-0.0107 0.02873,-0.0144 0.0038,-0.01 0.06862,-0.0312 0.08011,-0.0266 0.0052,0.002 0.01244,-0.004 0.01627,-0.0134 0.0038,-0.01 0.01337,-0.0145 0.02201,-0.0111 0.0084,0.003 0.01997,0.001 0.02579,-0.004 0.0056,-0.005 0.02001,-0.009 0.03157,-0.008 0.01155,0.001 0.0234,-0.004 0.02627,-0.0109 0.0039,-0.01 0.01109,-0.009 0.02863,0.003 0.02032,0.0134 0.02374,0.0126 0.02394,-0.003 4.24e-4,-0.0193 0.05516,-0.0487 0.07559,-0.0407 0.0054,0.002 0.02294,4.7e-4 0.03919,-0.004 0.01617,-0.004 0.03296,-0.004 0.03734,10e-4 0.0046,0.005 -0.0046,0.0118 -0.021,0.0151 l -0.02889,0.006 0.01925,0.0334 c 0.01059,0.0184 0.02981,0.0376 0.0427,0.0427 0.02868,0.0113 0.03383,0.002 0.01291,-0.0223 -0.02078,-0.0246 -0.01606,-0.0328 0.01873,-0.0327 0.03747,8e-5 0.04697,-0.0228 0.01477,-0.0356 -0.01336,-0.005 -0.0256,-0.0144 -0.02715,-0.0204 -0.0015,-0.006 0.004,-0.008 0.01233,-0.005 0.0084,0.003 0.02291,4.6e-4 0.03259,-0.007 0.01844,-0.0137 0.07954,0.003 0.073,0.0192 -0.0022,0.006 0.0103,0.0116 0.03223,0.0171 0.02291,0.005 0.03708,0.0125 0.03912,0.0208 0.0023,0.008 0.0096,0.008 0.02271,-0.002 0.01066,-0.008 0.02876,-0.013 0.04019,-0.0104 0.01155,0.002 0.0281,0.006 0.03689,0.007 0.01438,0.001 0.01511,-4.8e-4 0.0048,-0.0122 -0.0211,-0.0253 -0.07404,-0.0403 -0.093,-0.026 -0.02074,0.0154 -0.06911,10e-5 -0.0612,-0.0199 0.0029,-0.007 0.01391,-0.009 0.02498,-0.005 0.01095,0.004 0.02138,0.004 0.02322,-4.9e-4 0.0018,-0.005 0.02061,-0.008 0.04175,-0.007 0.02107,8e-4 0.04279,-0.002 0.04818,-0.005 0.0053,-0.003 0.02414,-0.003 0.04176,-1.6e-4 0.01747,0.004 0.03412,7e-4 0.03677,-0.006 0.0029,-0.007 0.0155,-0.008 0.03459,-4.1e-4 0.019,0.008 0.03686,0.007 0.04899,-4.2e-4 0.01421,-0.009 0.02999,-0.008 0.06039,0.004 0.02447,0.01 0.04843,0.0127 0.05866,0.008 0.0101,-0.005 0.0339,-0.001 0.05607,0.007 0.02423,0.01 0.04764,0.0124 0.06319,0.007 0.01461,-0.005 0.04726,-0.002 0.08057,0.007 0.03135,0.009 0.0631,0.0121 0.07221,0.007 0.009,-0.005 0.03025,-0.003 0.04746,0.004 0.01721,0.007 0.05096,0.0115 0.07521,0.01 0.0263,-10e-4 0.06293,0.005 0.09135,0.0163 0.03552,0.014 0.04854,0.016 0.05251,0.006 0.0059,-0.0149 0.06665,0.005 0.07723,0.0262 0.008,0.0151 0.100466,0.0288 0.133098,0.0196 0.0167,-0.005 0.06207,0.009 0.205494,0.0633 l 0.183975,0.0695 -0.140496,0.35276 c -0.07725,0.19403 -0.140089,0.36305 -0.139578,0.37563 0.0018,0.0456 -0.05761,0.0501 -0.09391,0.007 -0.01223,-0.0145 -0.01882,-0.0171 -0.03243,-0.0122 -0.01397,0.005 -0.01463,0.009 -0.004,0.024 0.01748,0.0241 0.01438,0.028 -0.01696,0.0211 -0.01548,-0.003 -0.02934,-0.0127 -0.03311,-0.0228 -0.0052,-0.0128 -0.01042,-0.0152 -0.02173,-0.0107 -0.01085,0.004 -0.01181,0.008 -0.0039,0.0145 0.01676,0.0142 0.0042,0.0322 -0.02027,0.0295 -0.01205,-0.002 -0.02421,0.003 -0.0269,0.01 -0.0026,0.007 -0.01127,0.01 -0.01912,0.007 -0.0078,-0.003 -0.02004,6.8e-4 -0.02735,0.009 -0.0072,0.008 -0.01673,0.0132 -0.02116,0.0114 -0.0045,-0.002 -0.0182,0.006 -0.0306,0.0176 -0.01438,0.0132 -0.03043,0.0182 -0.04419,0.0136 -0.02069,-0.007 -0.021,-0.006 -6.29e-4,0.005 0.02521,0.0153 0.01743,0.0441 -0.01248,0.0462 -0.01902,10e-4 -0.02775,0.02 -0.111417,0.24094 -0.04991,0.13168 -0.0995,0.25256 -0.110271,0.26859 -0.01672,0.0249 -0.02176,0.027 -0.03412,0.0139 -0.01649,-0.0173 -0.0332,-0.002 -0.05259,0.046 -0.01172,0.0292 -0.0056,0.0377 0.02059,0.0286 0.02952,-0.0103 0.02594,0.0135 -0.02027,0.13468 -0.03933,0.1033 -0.04416,0.12313 -0.03265,0.13558 0.01007,0.0104 0.009,0.024 -0.0037,0.0503 -0.01462,0.0305 -0.01415,0.0415 0.0033,0.0746 0.01126,0.0214 0.02531,0.0409 0.0312,0.0432 0.0059,0.002 0.0081,0.0108 0.0053,0.0179 -0.0029,0.007 0.0027,0.0192 0.01274,0.026 0.02137,0.0149 0.01962,0.026 -0.0039,0.0247 -0.0093,-4.4e-4 -0.01905,0.005 -0.0217,0.0112 -0.0072,0.0183 0.02075,0.0368 0.04504,0.0296 0.01897,-0.006 0.02389,-0.003 0.04438,0.0218 0.01256,0.0157 0.03464,0.0331 0.04897,0.0388 0.02243,0.009 0.0251,0.0153 0.01935,0.0449 -0.0037,0.0189 -0.01292,0.0422 -0.02038,0.0516 -0.0086,0.0108 -0.0098,0.0255 -0.0032,0.0398 0.0081,0.0174 0.0072,0.0223 -0.004,0.0211 -0.01106,-10e-4 -0.03169,0.0385 -0.08689,0.16705 -0.06583,0.15319 -0.08582,0.22006 -0.07654,0.2559 0.0016,0.006 10e-4,0.0243 -0.0011,0.0404 -0.0035,0.0262 -0.007,0.0288 -0.03228,0.0248 -0.01547,-0.003 -0.02839,7.1e-4 -0.02843,0.007 -1.14e-4,0.0177 0.03202,0.0338 0.04965,0.025 0.01066,-0.005 0.03687,9.2e-4 0.0849,0.0201 0.06167,0.0247 0.07354,0.0269 0.105821,0.0162 0.01991,-0.006 0.03925,-0.0192 0.04293,-0.0285 0.0037,-0.009 0.01878,-0.0266 0.03355,-0.0381 0.01904,-0.0151 0.02925,-0.0328 0.03508,-0.0611 0.0066,-0.0318 0.01221,-0.0401 0.02791,-0.0413 0.01799,-10e-4 0.0184,-0.002 0.0057,-0.013 -0.01194,-0.0101 -0.0066,-0.0302 0.03845,-0.14414 0.03221,-0.0815 0.06004,-0.13909 0.07232,-0.14955 0.01525,-0.013 0.01826,-0.0212 0.01268,-0.0346 -0.01023,-0.0248 0.004,-0.0303 0.04978,-0.0191 0.02328,0.006 0.04754,0.005 0.05898,-0.003 0.01067,-0.007 0.02605,-0.01 0.03422,-0.006 0.0082,0.003 0.01632,0.002 0.01816,-0.002 0.0018,-0.005 -0.0079,-0.0128 -0.02158,-0.0182 -0.02992,-0.0118 -0.02518,-0.035 0.0061,-0.0302 0.01205,0.002 0.0241,-0.003 0.02708,-0.0103 0.0065,-0.0165 0.01084,-0.0152 0.03174,0.009 0.01417,0.0164 0.02047,0.0167 0.04947,0.005 0.0183,-0.008 0.04386,-0.0273 0.05683,-0.0433 0.01301,-0.016 0.03108,-0.0287 0.0403,-0.0282 0.01167,3.1e-4 0.0217,-0.0115 0.03255,-0.039 0.01114,-0.0282 0.02217,-0.0411 0.03753,-0.044 0.02009,-0.004 0.03382,-0.034 0.177839,-0.39043 0.153281,-0.37956 0.156101,-0.38751 0.156211,-0.45114 8.9e-5,-0.0357 -0.0052,-0.074 -0.01178,-0.0852 -0.0066,-0.0112 -0.0098,-0.0301 -0.0073,-0.0419 0.0036,-0.0166 0.01065,-0.0204 0.03145,-0.0168 0.03811,0.006 0.05303,-0.0187 0.01905,-0.0322 -0.01427,-0.006 -0.03072,-0.006 -0.03674,3.2e-4 -0.01489,0.0145 -0.03219,0.006 -0.04462,-0.022 -0.0057,-0.0131 -0.01929,-0.0274 -0.03029,-0.0318 -0.011,-0.004 -0.01825,-0.0126 -0.01595,-0.0187 0.0071,-0.0188 -0.02564,-0.0652 -0.06073,-0.0861 -0.04451,-0.0262 -0.04252,-0.0384 0.03343,-0.21097 0.105888,-0.24062 0.151333,-0.35804 0.149776,-0.38674 -9.99e-4,-0.0176 0.007,-0.0405 0.022,-0.0627 0.01394,-0.0208 0.02635,-0.0544 0.03073,-0.0829 0.0086,-0.0567 0.02288,-0.0633 0.07459,-0.0347 0.01806,0.0104 0.06325,0.0304 0.100211,0.045 0.0601,0.0239 0.06646,0.0284 0.06051,0.0435 -0.0069,0.0174 0.01322,0.0451 0.04047,0.0559 0.02237,0.009 0.02554,-0.008 0.0069,-0.0374 l -0.01604,-0.0249 0.05905,0.0231 c 0.03959,0.0154 0.06307,0.0292 0.07077,0.0429 0.0079,0.0128 0.04075,0.0333 0.09808,0.06 0.04751,0.022 0.09124,0.0474 0.09714,0.0565 0.006,0.009 0.03875,0.0304 0.07297,0.0473 0.03993,0.0201 0.06335,0.0367 0.06543,0.0471 0.0021,0.0105 0.01859,0.0221 0.0471,0.0333 0.02988,0.0118 0.04482,0.0231 0.04731,0.0346 0.0022,0.0105 0.02153,0.0265 0.05046,0.0412 0.02574,0.0134 0.04831,0.0298 0.0503,0.0362 0.0017,0.007 0.02086,0.0242 0.04228,0.0387 l 0.03894,0.0264 -0.03116,-10e-4 c -0.03326,-0.001 -0.05354,0.0259 -0.03931,0.053 0.01245,0.0236 0.04936,0.0163 0.06087,-0.0128 0.0094,-0.0237 0.01132,-0.024 0.04545,-0.006 0.07678,0.0411 0.08019,0.0444 0.06504,0.0639 -0.0077,0.01 -0.01053,0.0223 -0.0062,0.0273 0.0044,0.005 0.0102,0.003 0.01331,-0.004 0.0082,-0.0207 0.06875,0.007 0.07587,0.0343 0.0032,0.0121 0.01583,0.026 0.02827,0.031 0.01243,0.005 0.02759,0.0184 0.03347,0.0305 0.02624,0.0522 0.03757,0.0668 0.05782,0.0748 0.01254,0.005 0.01936,0.0141 0.01649,0.0214 -0.0029,0.007 -0.01363,0.009 -0.02417,0.005 -0.02817,-0.0111 -0.05495,-0.011 -0.05211,2.7e-4 0.0036,0.0141 0.0679,0.0378 0.07674,0.0282 0.0043,-0.005 0.01772,-0.003 0.03016,0.004 0.02169,0.0118 0.02164,0.0129 -5.49e-4,0.0204 -0.04168,0.0144 -0.01429,0.0446 0.03509,0.0388 0.02055,-0.003 0.02486,0.001 0.03196,0.0223 0.0046,0.0145 0.01845,0.0294 0.03234,0.0349 0.01499,0.006 0.02249,0.0143 0.01925,0.0224 -0.0029,0.007 0.0033,0.0161 0.01359,0.0202 0.01248,0.005 0.01721,0.0165 0.01479,0.0335 -0.0023,0.015 0.005,0.0354 0.01699,0.048 0.01685,0.0176 0.01838,0.0282 0.0079,0.0546 -0.0136,0.0344 -0.0067,0.0448 0.02119,0.0321 0.0144,-0.007 0.01856,-0.005 0.03035,0.0142 0.0076,0.0116 0.01116,0.0281 0.0081,0.0358 -0.0041,0.0103 0.0014,0.0155 0.02096,0.0198 0.02599,0.006 0.03084,0.023 0.0073,0.0253 -0.0235,0.003 -0.01816,0.0179 0.0078,0.0221 0.02344,0.004 0.02573,0.008 0.0209,0.0377 -0.003,0.0184 1.99e-4,0.0357 0.0071,0.0384 0.0069,0.003 0.01094,0.0166 0.0089,0.0307 -0.002,0.0141 0.0048,0.0435 0.01514,0.0651 0.02407,0.0506 0.02335,0.075 -0.0026,0.084 -0.01131,0.004 -0.02211,0.0113 -0.02409,0.0163 -0.0049,0.0125 0.0226,0.0225 0.03249,0.0118 0.0045,-0.005 0.01426,-0.003 0.02329,0.005 0.01168,0.01 0.01188,0.0195 4.21e-4,0.0399 -0.01235,0.022 -0.01183,0.0276 0.0028,0.0298 0.01334,0.002 0.01668,0.0109 0.01266,0.0352 -0.003,0.0179 4.65e-4,0.0372 0.0075,0.0431 0.007,0.006 0.0085,0.0214 0.0032,0.0347 -0.0053,0.0134 -0.0033,0.034 0.0046,0.0466 0.01098,0.0175 0.0099,0.0331 -0.0046,0.07 -0.01353,0.0342 -0.01512,0.0505 -0.0058,0.0583 0.0091,0.008 0.008,0.0238 -0.0042,0.0549 -0.02084,0.0536 -0.02908,0.11696 -0.01644,0.12669 0.0056,0.004 -0.0032,0.0386 -0.02217,0.0867 -0.02864,0.0724 -0.03338,0.0793 -0.05319,0.0762 -0.01548,-0.003 -0.0218,0.002 -0.02141,0.015 7.19e-4,0.0403 0.0098,0.0487 0.03997,0.0371 l 0.02858,-0.0111 -0.140803,0.36377 c -0.127089,0.32827 -0.142983,0.36467 -0.16344,0.37289 -0.01758,0.007 -0.03301,0.0322 -0.0689,0.11221 -0.03449,0.0769 -0.05176,0.10536 -0.06773,0.11212 -0.01571,0.007 -0.0329,0.0343 -0.06407,0.10329 -0.02422,0.0537 -0.05083,0.0995 -0.06173,0.10648 -0.01054,0.007 -0.03274,0.0386 -0.04937,0.0708 -0.01662,0.0322 -0.04131,0.067 -0.05485,0.0772 -0.01352,0.0102 -0.03267,0.0389 -0.04245,0.0635 -0.01327,0.0335 -0.0246,0.0473 -0.0445,0.0541 -0.01662,0.006 -0.0312,0.0207 -0.03866,0.0396 -0.0066,0.0167 -0.02156,0.0363 -0.03319,0.0438 -0.01165,0.007 -0.03155,0.0314 -0.04412,0.0532 -0.0126,0.0218 -0.0332,0.0439 -0.04583,0.049 -0.01363,0.005 -0.03057,0.026 -0.04174,0.0504 -0.01036,0.0227 -0.02948,0.0472 -0.04246,0.0544 -0.01434,0.008 -0.0306,0.0308 -0.04134,0.058 -0.01283,0.0325 -0.02299,0.0451 -0.03704,0.0461 -0.01295,0.001 -0.02723,0.0164 -0.04249,0.0456 -0.0127,0.0242 -0.02847,0.0467 -0.03495,0.0498 -0.0064,0.003 -0.02859,0.0323 -0.04907,0.0647 -0.02046,0.0325 -0.04099,0.0597 -0.04558,0.0606 -0.01655,0.003 -0.05158,0.048 -0.05323,0.0681 -0.001,0.0127 -0.01347,0.0267 -0.03271,0.0369 -0.01706,0.009 -0.03593,0.0287 -0.04188,0.0438 -0.006,0.0152 -0.02099,0.0316 -0.03341,0.0366 -0.01233,0.005 -0.0328,0.0284 -0.04535,0.0521 -0.01257,0.0236 -0.02985,0.0446 -0.03847,0.0467 -0.0086,0.002 -0.02491,0.0199 -0.03624,0.0398 -0.01129,0.0198 -0.02934,0.0376 -0.04005,0.0397 -0.01352,0.002 -0.02512,0.0179 -0.03843,0.0516 -0.01552,0.0392 -0.02326,0.0482 -0.04249,0.0492 -0.02049,0.002 -0.02701,0.0101 -0.04881,0.0652 -0.0139,0.0351 -0.02954,0.0622 -0.03474,0.0601 -0.01415,-0.006 -0.05316,0.0461 -0.07354,0.0975 -0.0098,0.0248 -0.02757,0.0512 -0.0394,0.0586 -0.01184,0.007 -0.03155,0.0295 -0.04388,0.0491 -0.01238,0.0196 -0.03158,0.0409 -0.04278,0.0472 -0.01203,0.007 -0.02906,0.0335 -0.04159,0.0652 -0.01592,0.0403 -0.02469,0.0524 -0.03512,0.0483 -0.01916,-0.008 -0.03353,0.009 -0.05493,0.063 -0.01228,0.0311 -0.02839,0.0528 -0.04921,0.0664 -0.0196,0.0128 -0.03695,0.0353 -0.0473,0.0614 -0.01,0.0252 -0.02413,0.0439 -0.03637,0.0482 -0.01418,0.005 -0.02721,0.0252 -0.04435,0.0685 -0.01787,0.0452 -0.03299,0.0679 -0.05687,0.0856 -0.02585,0.0191 -0.03899,0.0404 -0.06388,0.10335 -0.02768,0.07 -0.03416,0.0796 -0.05546,0.0821 -0.02146,0.002 -0.02781,0.0121 -0.05719,0.0864 -0.02886,0.073 -0.0363,0.0845 -0.05876,0.0904 -0.01847,0.005 -0.02987,0.0173 -0.04061,0.0445 -0.01011,0.0256 -0.02026,0.0374 -0.03177,0.0367 -0.0093,-4.4e-4 -0.01963,0.006 -0.02298,0.0143 -0.0033,0.008 -0.01952,0.0232 -0.03602,0.0331 -0.01647,0.01 -0.03337,0.0265 -0.0376,0.0371 -0.0043,0.0107 -0.01384,0.0168 -0.02155,0.0137 -0.01605,-0.006 -0.03316,0.008 -0.04485,0.0375 -0.0083,0.021 -0.02465,0.0223 -0.02971,0.002 -0.0015,-0.006 -0.0071,-0.0125 -0.01221,-0.0145 -0.01207,-0.005 -0.02149,0.0185 -0.01096,0.0271 0.01232,0.0103 -0.01948,0.05 -0.03501,0.0439 -0.0075,-0.003 -0.01671,0.002 -0.02032,0.0111 -0.0042,0.0106 -0.01491,0.0143 -0.03,0.0104 -0.01936,-0.006 -0.02492,-0.001 -0.03193,0.0226 -0.0087,0.0297 -0.02737,0.0319 -0.04155,0.005 -0.01002,-0.019 -0.05533,-0.0294 -0.06158,-0.0136 -0.0033,0.008 0.004,0.0158 0.02293,0.0221 0.01841,0.006 0.02627,0.0136 0.02315,0.0215 -0.0026,0.007 -0.01108,0.01 -0.01863,0.007 -0.0075,-0.003 -0.01906,0.001 -0.02575,0.01 -0.0066,0.008 -0.01911,0.0122 -0.02784,0.009 -0.0087,-0.003 -0.01734,-0.003 -0.01917,0.002 -0.0055,0.014 -0.06676,0.0335 -0.08385,0.0267 -0.0096,-0.004 -0.01922,10e-4 -0.02305,0.0107 -0.0037,0.009 -0.01272,0.0148 -0.01996,0.0119 -0.01548,-0.006 -0.0705,0.0131 -0.0758,0.0265 -0.0018,0.005 -0.0163,0.007 -0.03179,0.005 -0.02025,-0.004 -0.03034,-0.01 -0.03529,-0.0252 -0.0058,-0.0167 -0.01037,-0.0195 -0.02423,-0.0149 -0.01358,0.004 -0.01606,0.0102 -0.01161,0.0276 0.0046,0.018 0.003,0.0208 -0.0091,0.016 -0.0081,-0.003 -0.02238,-2.5e-4 -0.032,0.007 -0.0095,0.007 -0.02934,0.0109 -0.04402,0.008 -0.01463,-0.003 -0.02828,-4.3e-4 -0.02979,0.003 -0.0015,0.004 -0.01575,0.007 -0.03121,0.006 -0.01553,-7.6e-4 -0.02967,0.002 -0.03159,0.007 -0.0018,0.005 -0.01187,0.005 -0.0224,8.2e-4 -0.02967,-0.0117 -0.05427,-0.0107 -0.05941,0.002 -0.0037,0.009 -0.0199,0.006 -0.06341,-0.0112 -0.04057,-0.016 -0.06176,-0.0201 -0.06855,-0.0136 -0.0055,0.005 -0.02815,0.006 -0.05044,7e-4 -0.02244,-0.005 -0.04926,-0.007 -0.05994,-0.004 -0.01076,0.003 -0.03995,-0.002 -0.06511,-0.01 -0.07855,-0.0267 -0.08988,-0.0345 -0.08276,-0.0557 0.005,-0.0151 0.0025,-0.0142 -0.01131,0.004 -0.03195,0.0422 -0.03056,0.0423 -0.181427,-0.0184 -0.07738,-0.0312 -0.154675,-0.0606 -0.172004,-0.0648 -0.01717,-0.005 -0.08213,-0.0303 -0.144503,-0.0567 z m 0.07407,-0.0127 c 0.0045,-0.0113 -0.02722,-0.0509 -0.04708,-0.0587 -0.01619,-0.006 -0.04334,0.0159 -0.03613,0.0297 0.0062,0.0121 0.07968,0.0379 0.08299,0.0296 z m -0.279685,-0.18047 c 0.0053,-0.003 -0.0033,-0.0141 -0.01955,-0.024 -0.02931,-0.018 -0.02907,-0.0231 0.0032,-0.0529 0.0091,-0.008 0.0051,-0.0169 -0.01551,-0.0331 -0.03525,-0.0278 -0.06936,-0.0273 -0.08064,10e-4 -0.0067,0.0169 -0.0022,0.0243 0.02444,0.0401 0.01806,0.0104 0.03066,0.0244 0.02819,0.0306 -0.0075,0.0189 0.04142,0.0499 0.05985,0.0381 z m 0.837173,0.2956 c 0.02912,0.002 0.0089,-0.0499 -0.02483,-0.0633 -0.04014,-0.0159 -0.04791,-0.008 -0.02557,0.026 0.02198,0.0334 0.02514,0.0357 0.05039,0.0372 z m -0.684579,-0.2814 c -0.0058,-0.006 -0.01694,-0.01 -0.0249,-0.01 -0.008,7e-5 -0.0027,0.003 0.01098,0.009 0.01369,0.005 0.02002,0.006 0.01391,10e-4 z m 0.926908,0.32709 c 0.0022,-0.006 0.01362,-0.0116 0.02514,-0.0126 0.01929,-0.002 0.01934,-0.002 0.0043,-0.009 -0.0093,-0.004 -0.02134,-0.004 -0.02726,-3e-5 -0.0059,0.004 -0.0226,-3.3e-4 -0.03764,-0.008 -0.0337,-0.0187 -0.04401,-0.002 -0.02077,0.034 0.01484,0.0229 0.01753,0.024 0.03411,0.0156 0.0098,-0.005 0.01991,-0.014 0.02226,-0.0199 z m -0.351071,-0.16815 c -0.0022,-0.004 -0.01079,-0.007 -0.01888,-0.008 -0.009,-3.3e-4 -0.0074,0.002 0.0038,0.008 0.01036,0.005 0.01711,0.005 0.0149,5.2e-4 z m 0.529622,0.21153 c 7.36e-4,-0.002 -0.0019,-0.008 -0.0063,-0.0132 -0.0044,-0.005 -0.0096,-0.005 -0.01143,-2.2e-4 -0.0018,0.005 7.88e-4,0.0111 0.0063,0.0132 0.0055,0.002 0.01069,0.002 0.01143,2.2e-4 z m -1.20091,-0.53004 c -0.0087,-0.0187 -0.01429,-0.0227 -0.02371,-0.0169 -0.02084,0.013 -0.01883,0.02 0.0087,0.0309 0.0259,0.0102 0.02621,0.01 0.01502,-0.0141 z m 1.411016,0.47891 c 0.03393,0.002 0.03475,-0.0159 0.0013,-0.0292 -0.02772,-0.011 -0.0388,-0.008 -0.03798,0.0107 7.54e-4,0.0169 -4.18e-4,0.0163 0.03655,0.0188 z m -0.334856,-0.17325 5.58e-4,-0.0229 -0.01642,0.0165 c -0.01921,0.0193 -0.01785,0.0408 0.0022,0.0338 0.0072,-0.003 0.01338,-0.0148 0.01367,-0.0275 z m 0.320738,0.049 c 0.0018,-0.005 -0.0012,-0.0101 -0.0067,-0.0123 -0.0055,-0.002 -0.01143,-2.1e-4 -0.01327,0.004 -0.0018,0.005 0.0012,0.0101 0.0067,0.0123 0.0055,0.002 0.01143,2.2e-4 0.01327,-0.004 z m -0.130832,-0.0913 c 0.0054,-0.003 -0.0032,-0.0109 -0.02099,-0.018 -0.01675,-0.007 -0.03193,-0.008 -0.03376,-0.004 -0.0018,0.005 0.0076,0.0127 0.02099,0.018 0.01336,0.005 0.02854,0.007 0.03377,0.004 z m 0.587661,0.0418 c 0.0015,-0.004 -0.004,-0.009 -0.0122,-0.0124 -0.01686,-0.007 -0.01819,-0.005 -0.01701,0.018 6.3e-4,0.0134 0.0034,0.0151 0.01367,0.009 0.0072,-0.005 0.01412,-0.011 0.01562,-0.0145 z m -1.264741,-0.52377 c -0.0039,-0.0176 -0.0057,-0.017 -0.01473,0.005 -0.0075,0.0183 -0.0063,0.0238 0.0044,0.02 0.01048,-0.003 0.01351,-0.0108 0.01026,-0.0251 z m 0.977904,0.37575 c 0.0046,-0.0111 -0.02562,-0.0273 -0.04117,-0.0217 -0.0048,10e-4 -0.0042,0.0132 0.0015,0.0256 0.008,0.0174 0.01326,0.0207 0.02292,0.0144 0.0067,-0.004 0.0143,-0.0125 0.01671,-0.0183 z m -2.253641,-0.96731 c 0.0033,-0.008 -0.0015,-0.013 -0.01283,-0.0137 -0.01417,-10e-4 -0.01576,10e-4 -0.0074,0.0115 0.01385,0.0167 0.0145,0.0167 0.02009,0.003 z m 0.310299,0.0808 c -0.009,-0.006 -0.02239,-0.011 -0.03,-0.0114 -0.0078,1.5e-4 -2.62e-4,0.004 0.01614,0.0107 0.01648,0.006 0.02267,0.007 0.01373,0.001 z m -0.256075,-0.20329 c 0.01352,-0.009 0.01293,-0.0457 -6.7e-4,-0.0442 -0.01468,0.002 -0.03045,0.0419 -0.01833,0.0467 0.0051,0.002 0.01364,10e-4 0.01889,-0.002 z m 2.744693,1.0052 c -0.0013,-0.006 -0.0079,-0.01 -0.01416,-0.009 -0.0063,7.3e-4 -0.0101,0.006 -0.0087,0.0117 0.0013,0.006 0.0079,0.01 0.01416,0.009 0.0063,-7.3e-4 0.0101,-0.006 0.0088,-0.0117 z M 33.94186,291.641 c 0.0075,-0.001 0.02173,-0.008 0.03189,-0.0159 0.0164,-0.0123 0.01561,-0.0155 -0.0069,-0.0292 -0.03227,-0.0192 -0.04777,-0.0146 -0.05081,0.0169 -0.0023,0.0255 0.0031,0.0314 0.02583,0.0281 z m -2.665191,-1.0913 c 0.01993,-0.0257 0.0095,-0.0454 -0.02304,-0.0436 -0.02779,10e-4 -0.03724,0.0156 -0.02545,0.038 0.01277,0.0242 0.03232,0.0264 0.04852,0.006 z m 1.11048,0.43472 c 0.0018,-0.005 -0.0012,-0.0101 -0.0067,-0.0123 -0.0055,-0.002 -0.01217,0.002 -0.01522,0.009 -0.0029,0.007 1.26e-4,0.0127 0.0067,0.0123 0.0066,-6.2e-4 0.01364,-0.005 0.01522,-0.009 z m -1.060705,-0.93823 c -10e-4,-0.0232 -0.02223,-0.0185 -0.02433,0.006 -0.001,0.0131 0.0029,0.0182 0.01165,0.0154 0.0073,-0.002 0.01301,-0.012 0.01262,-0.021 z m 0.666351,0.18859 c 0.0018,-0.005 -0.0034,-0.011 -0.01163,-0.0143 -0.0154,-0.006 -0.02379,0.002 -0.01639,0.0164 0.0054,0.01 0.02387,0.008 0.02813,-0.002 z m -0.03456,-0.0582 c 0.0029,-0.007 -1.25e-4,-0.0127 -0.0067,-0.0123 -0.0066,6.2e-4 -0.01364,0.005 -0.01522,0.009 -0.0018,0.005 0.0012,0.0101 0.0067,0.0123 0.0055,0.002 0.01217,-0.002 0.01522,-0.009 z m 2.427397,0.96503 c 0.0018,-0.005 -0.0012,-0.0101 -0.0067,-0.0123 -0.0055,-0.002 -0.01143,-2.2e-4 -0.01327,0.004 -0.0018,0.005 0.0012,0.0101 0.0067,0.0123 0.0055,0.002 0.01143,2.2e-4 0.01327,-0.004 z m -1.19065,-0.59905 c 0.01051,-0.0266 0.0098,-0.0341 -0.0035,-0.0349 -0.01673,-10e-4 -0.03929,0.0382 -0.03092,0.054 0.01014,0.0193 0.02176,0.0129 0.03441,-0.0191 z m -1.806583,-0.77412 c -0.0015,-0.005 -0.0102,-0.0105 -0.0198,-0.011 -0.01353,-10e-4 -0.01522,0.002 -0.0073,0.0109 0.01179,0.0143 0.03067,0.0143 0.02727,-8e-5 z m 3.180204,1.242 c 0.01472,-0.0144 0.008,-0.0506 -0.01073,-0.058 -0.01783,-0.007 -0.02677,0.0125 -0.01918,0.042 0.0068,0.0264 0.01486,0.0307 0.02988,0.0161 z m -0.04946,-0.0591 c 0.01521,-0.007 0.01642,-0.0106 0.0071,-0.0217 -0.02105,-0.0252 -0.04271,-0.0212 -0.04152,0.008 9.17e-4,0.0203 0.01106,0.0244 0.0344,0.0137 z M 31.3908,289.66091 c 0.0018,-0.005 0.0014,-0.009 -0.0011,-0.0101 -0.0024,-9.6e-4 -0.0086,8.8e-4 -0.01385,0.004 -0.0052,0.003 -0.0047,0.008 0.0011,0.0101 0.0058,0.002 0.01202,4.5e-4 0.01385,-0.004 z m 0.277016,0.10737 c 8.6e-5,-0.0154 -0.02438,-0.0305 -0.05857,-0.0362 -0.04342,-0.007 -0.03577,0.0113 0.01281,0.0306 0.03208,0.0127 0.0455,0.0148 0.04571,0.006 z m 0.94689,0.31488 c 0.0081,-0.0146 0.0078,-0.0263 -0.0012,-0.0338 -0.01894,-0.0161 -0.05001,-0.006 -0.0599,0.0189 -0.007,0.0178 -0.004,0.0222 0.02017,0.0291 0.02226,0.007 0.03099,0.004 0.04093,-0.0143 z m 0.968764,0.3503 c 0.005,-0.0125 0.0025,-0.0232 -0.0061,-0.0266 -0.02023,-0.008 -0.02834,-2e-5 -0.02734,0.0269 0.0011,0.0285 0.02213,0.0282 0.03342,-3.4e-4 z m 0.887544,0.34659 c 0.0038,-0.01 0.0018,-0.017 -0.0046,-0.0163 -0.0063,7.3e-4 -0.0112,0.008 -0.01085,0.016 9.19e-4,0.0208 0.0073,0.0209 0.01527,6.6e-4 z m 0.175788,-0.0906 c -0.0058,-0.0109 -0.01107,-0.005 -0.02164,0.024 l -0.01405,0.0385 0.02164,-0.024 c 0.01575,-0.0175 0.01955,-0.028 0.01405,-0.0385 z m -3.12676,-1.21958 c 0.01489,-0.0145 0.0015,-0.0411 -0.0174,-0.0345 -0.01526,0.005 -0.01757,0.0363 -0.0031,0.042 0.005,0.002 0.0141,-8.8e-4 0.02048,-0.007 z m 0.976089,0.36911 c -0.0088,-0.0167 -0.03154,-0.0123 -0.03075,0.006 4.93e-4,0.0118 0.0045,0.014 0.0188,0.0106 0.01159,-0.003 0.01592,-0.009 0.01189,-0.0165 z m -1.002678,-0.52543 c 0.01155,-0.0298 0.01144,-0.0619 -2.07e-4,-0.0606 -0.01227,0.002 -0.03037,0.0423 -0.02933,0.066 9.4e-4,0.0216 0.02057,0.0178 0.02956,-0.005 z m 0.791199,0.1513 c 0.0071,-0.001 -0.01539,-0.0493 -0.0257,-0.0534 -0.0047,-0.002 -0.01377,0.0104 -0.02036,0.027 -0.01132,0.0286 -0.01052,0.0301 0.01441,0.029 0.01453,-7.1e-4 0.02873,-0.002 0.03167,-0.003 z m 0.904205,0.34198 c -0.006,-0.012 -0.0097,-0.0103 -0.01599,0.006 -0.0063,0.016 -0.0046,0.0194 0.0079,0.0149 0.01261,-0.005 0.01426,-0.009 0.0081,-0.0206 z m -0.798932,-0.34359 c 0.0018,-0.005 -0.0034,-0.011 -0.01163,-0.0143 -0.0082,-0.003 -0.01641,-0.002 -0.01824,0.002 -0.0018,0.005 0.0034,0.011 0.01163,0.0143 0.0082,0.003 0.01641,0.002 0.01824,-0.002 z m 2.612905,0.96169 c 0.0055,-0.0138 0.0035,-0.0174 -0.0074,-0.0137 -0.0083,0.003 -0.01353,0.0106 -0.01183,0.0172 0.0046,0.0184 0.01106,0.0173 0.01926,-0.003 z m -1.035259,-0.59227 c -0.009,-0.006 -0.02239,-0.011 -0.03,-0.0115 -0.0079,1.1e-4 -2.62e-4,0.004 0.01614,0.0107 0.01648,0.006 0.02267,0.007 0.01373,10e-4 z m -1.249218,-0.53043 c 7.35e-4,-0.002 -0.0045,-0.008 -0.01163,-0.0143 -0.0071,-0.006 -0.01457,-0.007 -0.0164,-0.002 -0.0018,0.005 0.0034,0.011 0.01163,0.0143 0.0082,0.003 0.01567,0.004 0.01641,0.002 z m 1.895209,0.74603 c -0.0058,-0.006 -0.01694,-0.01 -0.02489,-0.01 -0.008,7e-5 -0.0027,0.003 0.01097,0.009 0.01369,0.005 0.02002,0.006 0.01391,0.001 z m 0.182222,-0.0605 c 0.0037,-0.009 -1.51e-4,-0.0192 -0.0084,-0.0224 -0.01477,-0.006 -0.03128,0.0181 -0.02311,0.0334 0.0067,0.0134 0.0246,0.007 0.03148,-0.0109 z m -0.09425,-0.16197 c -0.0058,-0.006 -0.01694,-0.01 -0.02489,-0.01 -0.008,7e-5 -0.0027,0.003 0.01097,0.009 0.01369,0.005 0.02002,0.006 0.01391,10e-4 z m 0.51824,0.16692 c 0.0018,-0.005 -5.67e-4,-0.0116 -0.0055,-0.0153 -0.0048,-0.004 -0.01143,-2.2e-4 -0.01445,0.007 -0.0029,0.007 -6.47e-4,0.0147 0.0055,0.0153 0.0062,3.1e-4 0.01253,-0.003 0.01445,-0.007 z m -3.000229,-1.19042 c -0.0015,-0.006 -0.0071,-0.0125 -0.01221,-0.0145 -0.0051,-0.002 -0.01084,1e-5 -0.01267,0.005 -0.0018,0.005 0.0037,0.0111 0.01221,0.0145 0.0086,0.003 0.01422,10e-4 0.01267,-0.005 z m -0.7653,-0.36772 c 0.01966,-0.0192 0.02491,-0.0437 0.01059,-0.0494 -0.01412,-0.006 -0.0379,0.0208 -0.03802,0.0422 -10e-5,0.0168 0.0139,0.0204 0.02729,0.008 z m 3.80451,1.37267 -0.003,-0.0273 -0.0251,0.019 c -0.02159,0.0163 -0.02584,0.0261 -0.03051,0.0706 l -0.0054,0.0516 0.03351,-0.0433 c 0.02663,-0.0344 0.0329,-0.0489 0.0305,-0.0706 z m 0.172449,0.11657 c 0.0091,-0.023 0.0065,-0.0471 -0.0054,-0.0518 -0.0057,-0.002 -0.01344,-0.0128 -0.01709,-0.0241 -0.01179,-0.0348 -0.02816,-0.0144 -0.02136,0.0265 0.0089,0.0541 0.01444,0.0679 0.02689,0.0664 0.0059,-8.8e-4 0.0135,-0.008 0.01696,-0.0171 z m -3.881324,-1.53875 c 0.0073,-0.0185 -0.01601,-0.0483 -0.03318,-0.0423 -0.01266,0.005 -0.0083,0.0387 0.006,0.0485 0.0083,0.005 0.01605,0.0106 0.01705,0.0121 0.0012,10e-4 0.0058,-0.007 0.01019,-0.0184 z m 0.09606,-0.0683 c 0.0076,-0.0192 0.03382,-0.0116 0.03457,0.0104 10e-4,0.0241 0.02039,0.0253 0.02958,0.002 0.0067,-0.0169 0.0034,-0.0234 -0.01579,-0.031 -0.04431,-0.0175 -0.08131,-0.0146 -0.08988,0.007 -0.0044,0.0111 -0.006,0.0239 -0.0037,0.0284 0.0069,0.0124 0.03787,0.002 0.04493,-0.0163 z m 2.759443,1.11662 c 0.04761,-0.002 0.05996,-0.0344 0.02622,-0.0687 -0.01365,-0.014 -0.03014,-0.0247 -0.03651,-0.0241 -0.01304,0.001 -0.04304,0.0699 -0.03618,0.0828 0.0061,0.011 0.0072,0.0114 0.04657,0.01 z m -0.876479,-0.37231 c 0.03934,-0.0151 0.03961,-0.0155 0.02437,-0.0355 -0.0086,-0.0109 -0.02745,-0.0258 -0.04213,-0.0326 -0.02208,-0.0109 -0.02853,-0.009 -0.03888,0.009 -0.01359,0.0243 -0.01007,0.0633 0.0063,0.0698 0.0059,0.002 0.02849,-0.003 0.05038,-0.0112 z m -0.917515,-0.37639 c 0.0081,-0.0204 0.0056,-0.028 -0.0123,-0.0378 -0.03421,-0.0178 -0.04987,-0.008 -0.04016,0.0264 0.01097,0.0389 0.0392,0.045 0.05258,0.0111 z m 2.675276,0.94188 c 0.01653,-0.0179 0.01518,-0.0523 -0.0021,-0.056 -0.02185,-0.004 -0.03822,0.0189 -0.02896,0.0413 0.0086,0.0209 0.02017,0.0264 0.0311,0.0144 z m -1.898249,-0.91269 c 7.36e-4,-0.002 -0.01122,-0.008 -0.02627,-0.0136 -0.01997,-0.008 -0.02429,-0.007 -0.01629,0.002 0.0101,0.0115 0.03925,0.0198 0.04256,0.0115 z m 1.829677,0.7298 c 0.0018,-0.005 -0.0104,-0.0138 -0.02715,-0.0204 -0.01776,-0.007 -0.02936,-0.007 -0.02761,-10e-4 0.0015,0.006 0.01378,0.0151 0.02715,0.0204 0.01336,0.005 0.02577,0.006 0.02761,10e-4 z m -2.137615,-0.89058 c -0.0022,-0.004 -0.01079,-0.007 -0.01888,-0.008 -0.009,-3.4e-4 -0.0074,0.002 0.0038,0.008 0.01036,0.005 0.01711,0.005 0.0149,5.1e-4 z m 1.837258,0.72579 c -0.0058,-0.006 -0.01694,-0.01 -0.02489,-0.01 -0.008,7e-5 -0.0027,0.003 0.01097,0.009 0.01369,0.005 0.02002,0.006 0.01391,0.001 z m -1.65166,-0.7797 c 0.0083,-0.0209 -0.01538,-0.0483 -0.03943,-0.0456 -0.01657,0.002 -0.02907,0.0364 -0.01978,0.0541 0.01133,0.0216 0.04936,0.0163 0.05914,-0.008 z m 0.873064,0.34839 c 0.01599,-0.0282 -0.0097,-0.0498 -0.02924,-0.0247 -0.0077,0.0101 -0.01279,0.0237 -0.01111,0.0305 0.005,0.0197 0.02781,0.0164 0.04035,-0.006 z m 0.948862,0.3719 c 0.0049,-0.0124 0.0035,-0.0213 -0.0034,-0.0205 -0.0066,6.2e-4 -0.015,0.009 -0.01864,0.018 -0.0037,0.009 -0.0021,0.0184 0.0034,0.0206 0.0055,0.002 0.01386,-0.006 0.01864,-0.018 z m -3.510459,-1.51591 c 0.01283,-0.014 0.02863,-0.0234 0.03505,-0.0209 0.01868,0.007 -0.0095,-0.023 -0.02878,-0.0308 -0.01986,-0.008 -0.04553,0.0199 -0.0462,0.0501 -6.79e-4,0.0298 0.01348,0.0304 0.03989,0.002 z m 1.603265,0.63276 c 7.35e-4,-0.002 -0.0077,-0.007 -0.01903,-0.0118 -0.01127,-0.004 -0.01933,-0.003 -0.01793,0.003 0.0024,0.01 0.03401,0.0167 0.03695,0.009 z m 1.829406,0.72265 c -0.009,-0.006 -0.02239,-0.011 -0.03001,-0.0115 -0.0078,1.4e-4 -2.62e-4,0.004 0.01614,0.0107 0.01648,0.006 0.02267,0.007 0.01373,10e-4 z m 0.863461,0.29351 c 0.0074,-0.0313 -0.01012,-0.0397 -0.02548,-0.0122 -0.0091,0.0162 -0.0081,0.024 0.0038,0.0287 0.01159,0.005 0.01793,-4.4e-4 0.02167,-0.0165 z m 0.04456,-0.0358 c 0.005,-0.003 0.0053,-0.01 8.87e-4,-0.015 -0.0045,-0.005 -0.01032,-0.003 -0.01343,0.004 -0.0059,0.015 -8.87e-4,0.0197 0.0123,0.0113 z m -0.08189,-0.0449 c 0.0088,-0.003 0.02257,-0.0232 0.03058,-0.0448 l 0.0146,-0.0393 -0.02457,0.0217 c -0.01355,0.012 -0.03013,0.0223 -0.03698,0.0231 -0.01771,0.002 -0.02791,0.0337 -0.0126,0.0398 0.0072,0.003 0.02016,0.003 0.02894,-3.8e-4 z m -4.31616,-1.81056 c 7.98e-4,-0.009 -0.0033,-0.006 -0.0091,0.009 -0.0058,0.0141 -0.0064,0.0217 -0.0014,0.017 0.0049,-0.005 0.0098,-0.0163 0.01051,-0.0255 z m 2.305443,0.84972 0.03016,-0.008 -0.04719,-0.019 c -0.05028,-0.0203 -0.05038,-0.0202 -0.04933,0.004 9.97e-4,0.0217 0.02995,0.0315 0.06614,0.0229 z m -1.814651,-0.7573 c 0.0094,-0.0238 0.0078,-0.0322 -0.0079,-0.0408 -0.01069,-0.006 -0.02812,-0.007 -0.03812,-0.002 -0.02781,0.0127 -0.02026,0.0589 0.01086,0.067 0.01898,0.005 0.02561,4.5e-4 0.03521,-0.0238 z m 0.975485,0.41532 c 0.0053,-0.003 -0.0018,-0.0104 -0.0166,-0.0162 -0.01484,-0.006 -0.02489,-0.006 -0.02322,5e-4 0.0015,0.006 0.009,0.0133 0.0166,0.0162 0.0075,0.003 0.018,0.003 0.02322,-5e-4 z m 0.923017,0.31814 c -0.0068,-0.0124 -0.02031,-0.003 -0.01645,0.0119 0.0029,0.0108 0.0053,0.0118 0.01197,0.005 0.0045,-0.005 0.0067,-0.0125 0.0045,-0.0167 z m 1.829587,0.73729 c 0.02002,-0.009 0.0083,-0.0331 -0.02189,-0.045 -0.02203,-0.009 -0.0469,0.005 -0.04225,0.0238 0.0038,0.0151 0.04658,0.0292 0.06417,0.0211 z m -1.70875,-0.682 c 0.0018,-0.005 -0.0012,-0.0101 -0.0066,-0.0123 -0.0055,-0.002 -0.01143,-2.2e-4 -0.01327,0.004 -0.0018,0.005 0.0012,0.0101 0.0067,0.0123 0.0055,0.002 0.01142,2.1e-4 0.01326,-0.004 z m 2.005483,0.79345 c 0.005,-0.003 0.0053,-0.01 8.86e-4,-0.015 -0.0045,-0.005 -0.01032,-0.003 -0.01343,0.004 -0.0059,0.015 -8.87e-4,0.0197 0.0123,0.0113 z m -1.955276,-0.82397 c -0.0087,-0.0166 -0.02934,-0.007 -0.02486,0.0117 0.0023,0.008 0.0071,0.0103 0.01751,0.007 0.01038,-0.003 0.01252,-0.009 0.0074,-0.0186 z m -0.438487,-0.21927 c 7.98e-4,-0.009 -0.0033,-0.006 -0.0091,0.009 -0.0058,0.014 -0.0064,0.0217 -0.0014,0.017 0.0049,-0.005 0.0098,-0.0163 0.01051,-0.0255 z m 1.057799,0.39077 c 0.0081,-0.0204 0.0072,-0.0318 -0.0024,-0.0356 -0.01958,-0.008 -0.04266,0.0204 -0.03399,0.0415 0.01154,0.028 0.02381,0.026 0.03638,-0.006 z m -1.102982,-0.44681 c 0.0041,-0.0261 -0.01831,-0.0365 -0.02757,-0.0131 -0.0045,0.0114 -0.0062,0.0246 -0.0037,0.0292 0.0069,0.0135 0.02863,0.002 0.03136,-0.0164 z m 0.435937,0.1831 c 0.0029,-0.007 0.01177,-0.0102 0.02001,-0.007 0.0082,0.003 0.01641,0.002 0.01824,-0.002 0.0049,-0.0125 -0.0067,-0.0148 -0.03378,-0.007 -0.02618,0.008 -0.03509,0.0192 -0.0196,0.0254 0.0055,0.002 0.01217,-0.002 0.01503,-0.009 z m -0.33532,-0.22967 c 0.01377,-0.0354 0.0086,-0.0518 -0.01707,-0.0539 -0.01853,-0.002 -0.0195,-1.8e-4 -0.0092,0.016 0.0062,0.01 0.0069,0.029 0.0015,0.0427 -0.0057,0.0145 -0.0049,0.0246 0.0021,0.0237 0.0066,-6.2e-4 0.01683,-0.0137 0.02271,-0.0288 z m 0.928962,0.32962 c 0.0015,-0.004 -0.0083,-0.0119 -0.02195,-0.0173 -0.02342,-0.009 -0.03515,-0.004 -0.02687,0.0114 0.0054,0.01 0.04533,0.0147 0.04879,0.006 z m -1.842207,-0.72722 c 0.0018,-0.005 -0.0034,-0.011 -0.01163,-0.0143 -0.0082,-0.003 -0.01641,-0.002 -0.01824,0.002 -0.0018,0.005 0.0034,0.011 0.01163,0.0143 0.0082,0.003 0.01641,0.002 0.01824,-0.002 z m 3.275177,1.27503 c 0.01218,-0.0153 0.0068,-0.0316 -0.0086,-0.0263 -0.01286,0.005 -0.02219,0.0338 -0.01214,0.0378 0.0048,0.002 0.01408,-0.003 0.02076,-0.0116 z m -2.739609,-1.10223 c 0.01139,-0.007 -0.0033,-0.0249 -0.01937,-0.023 -0.01334,0.001 -0.01223,0.0198 0.0017,0.0253 0.0048,0.002 0.01282,7.6e-4 0.01782,-0.003 z m 0.282657,-0.01 c -5.88e-4,-0.008 -0.0037,-0.007 -0.0083,0.003 -0.0041,0.009 -0.0036,0.0149 7.6e-4,0.0133 0.0044,-0.002 0.0078,-0.009 0.0073,-0.016 z m -1.937691,-0.79734 c 0.0021,-0.006 0.0054,-0.0314 0.0076,-0.0577 0.0037,-0.0446 0.0026,-0.0469 -0.01518,-0.0339 -0.02399,0.0176 -0.03357,0.0414 -0.02993,0.0742 0.0028,0.0252 0.02993,0.0377 0.03729,0.018 z m 1.924986,0.75135 c 0.0143,-0.0362 -0.02269,-0.0713 -0.05808,-0.0553 -0.01327,0.006 -0.01391,0.0129 -0.0031,0.0334 0.01879,0.0357 0.05117,0.0472 0.06114,0.022 z m 0.926265,0.36512 c 0.01129,-0.0285 -0.0039,-0.0432 -0.02415,-0.0231 -0.01916,0.019 -0.01867,0.0304 0.0015,0.0383 0.0086,0.003 0.01766,-0.003 0.02262,-0.0152 z m -2.655736,-1.14455 c 0.0018,-0.005 -0.0056,-0.0119 -0.0166,-0.0162 -0.01095,-0.004 -0.02138,-0.004 -0.02322,4.9e-4 -0.0018,0.005 0.0056,0.0119 0.0166,0.0163 0.01095,0.004 0.02138,0.004 0.02322,-5e-4 z m 1.893597,0.69915 c 0.0043,-0.011 0.0033,-0.0235 -0.0024,-0.0278 -0.01214,-0.009 -0.03843,0.0167 -0.03413,0.0337 0.0049,0.0192 0.02813,0.0154 0.03651,-0.006 z m 0.643973,0.27524 c 0.01399,-0.002 0.01486,-0.008 0.0056,-0.0365 -0.01355,-0.0416 -0.05035,-0.10087 -0.06656,-0.10728 -0.0065,-0.003 -0.02016,6.3e-4 -0.03046,0.007 -0.01585,0.0101 -0.01628,0.0156 -0.0026,0.0361 0.0089,0.0132 0.01983,0.038 0.02441,0.0547 0.0084,0.031 0.03698,0.0497 0.06959,0.0457 z m 1.848103,0.70568 c -8.98e-4,-0.02 -0.0333,-0.0333 -0.05609,-0.0228 -0.01805,0.008 -0.01845,0.008 0.02025,0.0359 0.01791,0.0135 0.03645,0.007 0.03575,-0.0129 z m -2.390079,-1.042 c -5.75e-4,-0.005 -0.01194,-0.0122 -0.02506,-0.0174 l -0.02385,-0.009 0.01058,0.0374 0.01061,0.0373 0.01446,-0.02 c 0.0079,-0.0111 0.01396,-0.0236 0.01318,-0.0279 z m -1.665227,-0.80398 c 0.0018,-0.005 -0.0041,-0.009 -0.01347,-0.01 -0.0093,-4.4e-4 -0.01751,6.1e-4 -0.01824,0.002 -7.35e-4,0.002 0.0052,0.006 0.01346,0.01 0.0082,0.003 0.01641,0.002 0.01825,-0.002 z m 0.199213,0.0785 c -0.01508,-0.0183 -0.02564,-0.0225 -0.02987,-0.0118 -0.0018,0.005 0.0068,0.0124 0.01909,0.0172 0.01816,0.007 0.02027,0.006 0.01075,-0.005 z m -0.06284,-0.074 c 0.01077,-0.0273 -0.01051,-0.06 -0.03999,-0.0617 -0.01887,-10e-4 -0.05476,0.0312 -0.05104,0.046 0.0016,0.005 0.02035,0.0167 0.04193,0.0252 0.03686,0.0146 0.03997,0.0136 0.04927,-0.01 z m 1.342573,0.53508 c 0.0026,-0.007 -0.0018,-0.0149 -0.01008,-0.0182 -0.015,-0.006 -0.0276,0.01 -0.01973,0.0249 0.006,0.012 0.02423,0.007 0.02982,-0.007 z m 0.925897,0.36604 c 0.0056,-0.0141 -0.0092,-0.0227 -0.02342,-0.0136 -0.01254,0.008 -0.007,0.0288 0.0073,0.0272 0.0062,-7.7e-4 0.01342,-0.007 0.01614,-0.0136 z m -1.377577,-0.54999 c -0.0013,-0.006 -0.0079,-0.01 -0.01416,-0.009 -0.0063,7.3e-4 -0.0101,0.006 -0.0087,0.0117 0.0013,0.006 0.0079,0.01 0.01416,0.009 0.0063,-7.3e-4 0.0101,-0.006 0.0088,-0.0117 z m 1.296091,0.52316 c 0.0018,-0.005 -0.0014,-0.0102 -0.0072,-0.0125 -0.0058,-0.002 -0.0093,6.3e-4 -0.0077,0.007 0.0015,0.006 0.0048,0.0116 0.0072,0.0125 0.0024,9.5e-4 0.0058,-0.002 0.0077,-0.007 z m 0.600352,0.23949 c 0.01853,-0.0119 7.06e-4,-0.0322 -0.02994,-0.034 -0.01677,-10e-4 -0.02941,0.003 -0.0279,0.009 0.0033,0.0131 0.04692,0.0319 0.05777,0.025 z m -1.475271,-0.65636 c -5.88e-4,-0.008 -0.0037,-0.007 -0.0082,0.003 -0.0041,0.009 -0.0036,0.0148 7.59e-4,0.0133 0.0044,-10e-4 0.0078,-0.009 0.0073,-0.0161 z m 1.048667,0.29769 c 0.0018,-0.005 0.0014,-0.009 -0.0011,-0.0101 -0.0024,-9.6e-4 -0.0086,8.9e-4 -0.01385,0.004 -0.0052,0.003 -0.0047,0.008 0.0011,0.0101 0.0058,0.002 0.01202,4.5e-4 0.01385,-0.004 z m -1.032014,-0.47618 c 0.0038,-0.01 -0.01854,-0.0288 -0.02924,-0.0251 -0.01607,0.006 -0.01317,0.0173 0.0063,0.0249 0.01094,0.004 0.02138,0.004 0.02285,4.3e-4 z m 1.100492,0.434 c 0.0052,-0.003 0.0025,-0.009 -0.0061,-0.0121 -0.0086,-0.003 -0.01699,-0.002 -0.01883,0.002 -0.0018,0.005 8.76e-4,0.01 0.0061,0.0121 0.0051,0.002 0.01361,10e-4 0.01883,-0.002 z m -1.047455,-0.53903 c 0.0039,-0.01 3.44e-4,-0.0115 -0.01954,-0.009 -0.01316,10e-4 -0.02517,0.005 -0.02638,0.008 -0.0011,0.003 0.0075,0.007 0.01954,0.009 0.01205,0.002 0.02381,-0.002 0.02638,-0.008 z m 1.137211,0.29744 c 0.0066,-0.0167 0.0051,-0.0276 -0.0042,-0.0313 -0.0212,-0.008 -0.03354,0.003 -0.02909,0.0279 0.0057,0.0314 0.0216,0.0331 0.03329,0.003 z m -1.054123,-0.5032 0.0083,-0.0339 -0.02398,0.0251 c -0.01666,0.0174 -0.02218,0.0297 -0.01807,0.0403 0.0087,0.0226 0.0241,0.008 0.03385,-0.0315 z m -1.685472,-0.62536 c 0.0044,-0.002 0.0076,-0.009 0.0073,-0.0172 -4.71e-4,-0.0111 -0.0047,-0.0134 -0.01813,-0.0104 -0.0097,0.003 -0.01899,0.008 -0.02065,0.0119 -0.0033,0.008 0.01937,0.0195 0.0314,0.0156 z m 4.489676,1.7685 c 0.0068,-0.0172 -0.009,-0.0401 -0.0346,-0.0502 -0.02408,-0.01 -0.04628,0.003 -0.04121,0.0227 0.0043,0.017 0.07048,0.041 0.0757,0.0278 z m -0.07582,-0.12944 c 0.0066,-0.0176 -0.0017,-0.0565 -0.01298,-0.0609 -0.01165,-0.005 -0.03469,0.0374 -0.03117,0.0568 0.0048,0.0262 0.03477,0.0291 0.04412,0.004 z m -2.799172,-1.14663 c 0.0014,-0.0152 -0.0035,-0.024 -0.01365,-0.0245 -0.01937,-10e-4 -0.03361,0.0311 -0.02278,0.0516 0.01102,0.0209 0.03334,0.005 0.03644,-0.0272 z m -1.592987,-0.68236 c -0.0074,-0.014 -0.03868,-0.008 -0.04515,0.009 -0.0068,0.0173 -0.0068,0.0173 0.02093,0.008 0.01526,-0.005 0.02619,-0.0127 0.02426,-0.0164 z m 1.512344,0.53671 c 0.0095,-0.006 -0.02544,-0.0327 -0.04092,-0.031 -0.0058,9.5e-4 -0.0092,0.006 -0.0076,0.0113 0.0032,0.013 0.03734,0.0268 0.04851,0.0196 z m -0.253281,-0.10766 c -0.009,-0.006 -0.02239,-0.011 -0.03002,-0.0114 -0.0078,1.4e-4 -2.62e-4,0.004 0.01614,0.0107 0.01648,0.006 0.02267,0.007 0.01373,10e-4 z m -1.16682,-0.50635 c 0.0021,-0.006 0.002,-0.0182 -5e-4,-0.0274 -0.0036,-0.013 -0.0067,-0.0113 -0.01403,0.007 -0.0052,0.0129 -0.0049,0.0253 5.01e-4,0.0274 0.0055,0.002 0.01173,-7.4e-4 0.01403,-0.007 z m 0.428624,0.16838 c 0.0026,-0.007 -5.8e-5,-0.0238 -0.0059,-0.0385 -0.01455,-0.0366 -0.05847,-0.0438 -0.08669,-0.0142 l -0.02062,0.0216 0.05424,0.0214 c 0.03965,0.0157 0.05534,0.0187 0.05894,0.01 z m -0.317853,-0.33209 c 0.0034,-0.008 -6.83e-4,-0.0176 -0.0089,-0.0208 -0.01516,-0.006 -0.03494,0.0261 -0.02627,0.0425 0.0058,0.0109 0.02721,-0.002 0.03509,-0.0217 z m 2.668595,1.06038 c 0.004,-0.0251 0.0039,-0.0253 -0.01214,-0.009 -0.01696,0.0171 -0.01779,0.0374 -0.0015,0.0354 0.0055,-10e-4 0.01139,-0.0125 0.01358,-0.0265 z m -0.01565,-0.0539 c 0.0029,-0.007 8.88e-4,-0.0145 -0.0043,-0.0165 -0.01255,-0.005 -0.02684,0.005 -0.02157,0.0148 0.0074,0.0141 0.02075,0.0147 0.0259,0.002 z m 1.672587,0.66125 c 0.0029,-0.007 6.1e-4,-0.0146 -0.0049,-0.0168 -0.0055,-0.002 -0.01217,0.002 -0.01503,0.009 -0.0029,0.007 -6.1e-4,0.0146 0.0049,0.0168 0.0055,0.002 0.01216,-0.002 0.01502,-0.009 z M 33.9363,286.1916 c 0.01517,-0.0378 0.01351,-0.0632 -0.0035,-0.0525 -0.01531,0.01 -0.03499,0.0553 -0.03391,0.079 9.89e-4,0.0242 0.02352,0.008 0.03747,-0.0265 z m 1.101094,0.4766 c 0.0029,-0.007 -0.0016,-0.0155 -0.0099,-0.0187 -0.0082,-0.003 -0.01714,-3.3e-4 -0.02001,0.007 -0.0029,0.007 0.0016,0.0155 0.0099,0.0187 0.0082,0.003 0.01714,3.3e-4 0.02001,-0.007 z m -0.06928,-0.0577 c 0.0046,-0.0115 0.0038,-0.0227 -0.0017,-0.0249 -0.0055,-0.002 -0.01463,0.008 -0.02033,0.0223 -0.006,0.0153 -0.0053,0.0256 0.0017,0.0248 0.0066,-6.2e-4 0.01577,-0.0107 0.02033,-0.0223 z m 0.285022,0.13806 c -0.0015,-0.006 -0.01378,-0.0151 -0.02715,-0.0204 -0.01336,-0.005 -0.02577,-0.006 -0.02761,-10e-4 -0.0018,0.005 0.0104,0.0138 0.02715,0.0204 0.01776,0.007 0.02936,0.007 0.02761,10e-4 z m -2.872081,-1.16514 c 0.0018,-0.005 -0.0034,-0.011 -0.01163,-0.0143 -0.0082,-0.003 -0.01641,-0.002 -0.01825,0.002 -0.0018,0.005 0.0034,0.011 0.01163,0.0143 0.0082,0.003 0.01641,0.002 0.01824,-0.002 z m 0.683964,0.1918 c 0.0018,-0.005 -3.46e-4,-0.0122 -0.0047,-0.0172 -0.0044,-0.005 -0.01016,-0.003 -0.01327,0.004 -0.0029,0.007 -7.94e-4,0.0151 0.0047,0.0172 0.0055,0.002 0.01143,2.2e-4 0.01327,-0.004 z m 0.253328,0.0773 c -5.84e-4,-0.007 -0.0047,-0.003 -0.0092,0.009 -0.0046,0.0117 -0.0043,0.0174 7.93e-4,0.0127 0.005,-0.004 0.0089,-0.0144 0.0085,-0.0214 z m 1.816275,0.70074 c 0.0095,-0.0241 -0.01546,-0.0456 -0.033,-0.0284 -0.01646,0.0161 -0.01235,0.0416 0.0074,0.0458 0.01046,0.002 0.02058,-0.005 0.02558,-0.0174 z m -0.964524,-0.37809 c -0.009,-0.006 -0.02239,-0.011 -0.03001,-0.0114 -0.0078,1.4e-4 -2.62e-4,0.004 0.01614,0.0107 0.01648,0.006 0.02267,0.007 0.01373,0.001 z m 0.862017,0.30251 c 0.0056,-0.0141 -0.0092,-0.0227 -0.02342,-0.0136 -0.01254,0.008 -0.007,0.0288 0.0073,0.0272 0.0062,-7.7e-4 0.01345,-0.007 0.01614,-0.0136 z m -0.106748,-0.0487 c 0.03502,-0.0158 0.03666,-0.0226 0.0083,-0.0338 -0.0232,-0.009 -0.05283,0.0111 -0.04746,0.0324 0.0035,0.014 0.01079,0.0139 0.03915,0.001 z m -0.776654,-0.34662 c 0.02258,-0.0196 0.02239,-0.0381 -3.47e-4,-0.0471 -0.02826,-0.0112 -0.05204,0.004 -0.04729,0.0301 0.0052,0.0288 0.02557,0.0361 0.04774,0.0167 z m -0.896959,-0.37192 c 0.0018,-0.005 -0.0082,-0.0129 -0.02217,-0.0184 -0.01445,-0.006 -0.02428,-0.005 -0.02263,7.3e-4 0.0015,0.006 0.01154,0.0142 0.02216,0.0184 0.01063,0.004 0.02079,0.004 0.02263,-7.3e-4 z m 2.797604,1.10601 c 0.0018,-0.005 -0.0037,-0.0111 -0.01221,-0.0145 -0.0086,-0.003 -0.01422,-10e-4 -0.01267,0.005 0.0015,0.006 0.0071,0.0125 0.01221,0.0145 0.0051,0.002 0.01084,-1e-5 0.01268,-0.005 z m -1.743949,-0.69913 c -0.0015,-0.006 -0.009,-0.0133 -0.0166,-0.0162 -0.0075,-0.003 -0.018,-0.003 -0.02322,5e-4 -0.0053,0.003 0.0018,0.0104 0.0166,0.0162 0.01484,0.006 0.02489,0.006 0.02322,-5e-4 z m 0.851229,0.33653 c 0.0018,-0.005 0.0014,-0.009 -0.0011,-0.0101 -0.0024,-9.6e-4 -0.0086,8.9e-4 -0.01386,0.004 -0.0052,0.003 -0.0047,0.008 0.0011,0.0101 0.0058,0.002 0.01202,4.5e-4 0.01385,-0.004 z m -2.476363,-1.01934 c -0.01179,-0.0143 -0.03067,-0.0143 -0.02727,8e-5 0.0015,0.005 0.01021,0.0105 0.01981,0.0111 0.01354,10e-4 0.01522,-0.002 0.0073,-0.0109 z m 3.86901,1.52528 c -9.2e-4,-0.0208 -0.0073,-0.0209 -0.01527,-6.6e-4 -0.0038,0.01 -0.0018,0.017 0.0046,0.0163 0.0063,-7.3e-4 0.0112,-0.008 0.01089,-0.0161 z m -3.897177,-1.56706 c 0.0055,-0.0139 0.0036,-0.0174 -0.0074,-0.0137 -0.0083,0.003 -0.01353,0.0106 -0.01183,0.0171 0.0046,0.0184 0.01105,0.0173 0.01925,-0.003 z m 3.770338,1.49918 c 0.0057,-0.0145 -0.01129,-0.0425 -0.02331,-0.0384 -0.01982,0.007 -0.02068,0.0346 -0.0013,0.0423 0.01095,0.004 0.02212,0.002 0.02458,-0.004 z m 0.07891,-0.0243 c -0.01465,-0.0172 -0.02253,-0.0143 -0.02148,0.007 5.93e-4,0.0135 0.0042,0.016 0.0171,0.0111 0.01272,-0.005 0.01358,-0.009 0.0046,-0.019 z m -3.796705,-1.49132 c 0.0018,-0.005 -0.0012,-0.0101 -0.0067,-0.0123 -0.0055,-0.002 -0.01143,-2.2e-4 -0.01327,0.004 -0.0018,0.005 0.0012,0.0101 0.0067,0.0123 0.0055,0.002 0.01143,2.1e-4 0.01327,-0.004 z m 0.423935,0.11674 c 0.0055,-0.0253 -0.02053,-0.0397 -0.03453,-0.019 -0.01213,0.0179 6.04e-4,0.0509 0.01742,0.0451 0.007,-0.003 0.01445,-0.014 0.017,-0.0259 z m 3.353102,1.33638 c 0.0018,-0.005 -0.0034,-0.011 -0.01163,-0.0143 -0.0154,-0.006 -0.02379,0.002 -0.01639,0.0164 0.0054,0.01 0.02387,0.008 0.02813,-0.002 z m -3.733651,-1.4755 c 0.0018,-0.005 0.0014,-0.009 -0.0011,-0.0101 -0.0024,-9.6e-4 -0.0086,8.9e-4 -0.01385,0.004 -0.0052,0.003 -0.0047,0.008 0.0011,0.0101 0.0058,0.002 0.01202,4.5e-4 0.01385,-0.004 z m 0.05511,-0.004 c 0.01563,-0.0153 0.0015,-0.0411 -0.01872,-0.0341 -0.01708,0.006 -0.01928,0.0346 -0.0032,0.041 0.0059,0.002 0.01549,-3.3e-4 0.02186,-0.007 z m 0.319389,-0.0265 c 0.0052,-0.003 2.4e-4,-0.01 -0.01104,-0.014 -0.01127,-0.004 -0.02197,-0.004 -0.02381,2.6e-4 -0.0018,0.005 0.0031,0.0109 0.01104,0.014 0.0079,0.003 0.01859,0.003 0.0238,-2.7e-4 z m 0.842435,0.33735 c 0.01187,-0.004 0.0084,-0.0303 -0.0047,-0.0354 -0.02021,-0.008 -0.04488,-6.4e-4 -0.04172,0.012 0.0032,0.013 0.03307,0.028 0.04629,0.0237 z m 1.944419,0.76549 c 0.01139,-0.007 -0.0033,-0.0249 -0.01937,-0.023 -0.01334,10e-4 -0.01223,0.0198 0.0017,0.0253 0.0048,0.002 0.01282,7.7e-4 0.01782,-0.003 z m -0.186504,-0.17105 c -0.0026,-0.0107 -0.018,-0.0256 -0.034,-0.0335 -0.02655,-0.0137 -0.02946,-0.0122 -0.03297,0.0101 -0.0048,0.0304 0.02457,0.0579 0.05228,0.049 0.01486,-0.005 0.01836,-0.0109 0.01466,-0.0254 z m -2.581322,-1.00115 c 0.0043,-0.005 8.46e-4,-0.0114 -0.0078,-0.0148 -0.0086,-0.003 -0.01834,2.8e-4 -0.02109,0.007 -0.006,0.0152 0.01651,0.0209 0.02905,0.007 z m 3.063657,1.21011 c 0.005,-0.003 0.0052,-0.01 8.31e-4,-0.0151 -0.01052,-0.0117 -0.05096,-0.0169 -0.05515,-0.006 -0.0041,0.0104 0.04275,0.029 0.05433,0.0215 z m -2.349112,-0.95526 c 0.03171,0.005 0.05029,-0.0286 0.02515,-0.0457 -0.03209,-0.0213 -0.06516,-0.0161 -0.07641,0.0124 -0.0083,0.021 -0.0067,0.0271 0.0073,0.0279 0.0098,6.7e-4 0.02959,0.003 0.04394,0.005 z m 2.360928,0.89907 c 0.01649,-0.0106 -5.83e-4,-0.0317 -0.02815,-0.0348 -0.02411,-0.003 -0.02464,-0.002 -0.01119,0.0163 0.01694,0.0231 0.02568,0.0271 0.03921,0.0187 z m -2.777187,-1.16224 c 0.01372,-0.0135 0.01075,-0.0321 -0.0049,-0.0303 -0.01442,0.002 -0.02724,0.0333 -0.01545,0.038 0.0049,0.002 0.0142,-0.002 0.02038,-0.008 z m 0.123871,0.0246 c 0.0018,-0.005 -0.0012,-0.0101 -0.0067,-0.0123 -0.0055,-0.002 -0.01217,0.002 -0.01522,0.009 -0.0029,0.007 1.25e-4,0.0127 0.0067,0.0123 0.0066,-6.2e-4 0.01364,-0.005 0.01522,-0.009 z m 0.2042,0.0663 c 0.01446,-0.007 0.01567,-0.0124 0.0065,-0.032 -0.01599,-0.0344 -0.05557,-0.0482 -0.06564,-0.0227 -0.01452,0.0367 0.02276,0.0714 0.05908,0.0549 z m 0.29028,0.10261 c 0.0056,-0.006 -0.0023,-0.0133 -0.02237,-0.0212 -0.02958,-0.0117 -0.04138,-0.008 -0.03165,0.0109 0.007,0.0135 0.04448,0.0208 0.05406,0.0102 z m 0.119241,-0.003 c 0.0056,-0.0141 -0.02448,-0.0531 -0.04174,-0.0541 -0.01445,-10e-4 -0.01678,0.003 -0.01184,0.0212 0.0056,0.0215 0.04779,0.0475 0.05359,0.0328 z m 1.417421,0.55822 c -0.0053,-0.01 -0.01362,-0.0129 -0.02927,-0.0119 -0.01942,0.002 -0.01844,0.003 0.0072,0.0138 0.02132,0.009 0.0275,0.008 0.02206,-0.002 z m -1.297354,-0.54161 c 0.0018,-0.005 -0.0082,-0.0129 -0.02217,-0.0184 -0.01445,-0.006 -0.02428,-0.005 -0.02263,7.3e-4 0.0015,0.006 0.01154,0.0142 0.02217,0.0185 0.01063,0.004 0.02079,0.004 0.02263,-7.3e-4 z m 0.826338,0.32668 c 0.0018,-0.005 -0.0012,-0.0101 -0.0067,-0.0123 -0.0055,-0.002 -0.01143,-2.2e-4 -0.01327,0.004 -0.0018,0.005 0.0012,0.0101 0.0067,0.0123 0.0055,0.002 0.01143,2.2e-4 0.01327,-0.004 z m 0.609405,0.19415 c -0.0068,-0.0124 -0.02031,-0.003 -0.01645,0.0119 0.0029,0.0108 0.0053,0.0118 0.01198,0.005 0.0045,-0.005 0.0067,-0.0125 0.0045,-0.0167 z m -1.819173,-0.70844 c -0.0058,-0.006 -0.01694,-0.01 -0.02489,-0.01 -0.008,6e-5 -0.0027,0.003 0.01097,0.009 0.01369,0.005 0.02002,0.006 0.01391,0.001 z m 0.562722,0.22217 c -0.0088,-0.006 -0.02671,-0.0127 -0.03978,-0.0159 -0.01311,-0.003 -0.0061,0.002 0.01584,0.0106 0.02186,0.009 0.03277,0.0108 0.02399,0.005 z m -0.207537,-0.11355 c 0.01289,-10e-4 0.01351,-0.004 0.0024,-0.0134 -0.01585,-0.0138 -0.046,-0.0171 -0.05049,-0.006 -0.0038,0.01 0.02672,0.0217 0.04808,0.0192 z m 1.214838,0.48041 c 0.02468,0.003 0.02449,0.002 -0.0047,-0.0256 -0.02839,-0.0272 -0.03246,-0.029 -0.06123,-0.0248 -0.0232,0.003 -0.02822,0.007 -0.02052,0.0165 0.01172,0.0143 0.04904,0.0291 0.08632,0.0341 z m -1.417239,-0.56783 c -0.0058,-0.006 -0.01694,-0.01 -0.0249,-0.01 -0.008,7e-5 -0.0027,0.003 0.01097,0.009 0.01369,0.005 0.02002,0.006 0.01392,0.001 z m 0.302532,0.0865 c 0.0056,-0.003 -0.0051,-0.0117 -0.02656,-0.0202 -0.02148,-0.008 -0.035,-0.01 -0.03317,-0.003 0.0015,0.006 0.01351,0.015 0.02655,0.0202 0.01304,0.005 0.02796,0.007 0.03318,0.003 z"
       id="path977"
       inkscape:connector-curvature="0" />
    <path
       style="opacity:1;fill:#ff7f2a;fill-opacity:1;fill-rule:nonzero;stroke:#ff7f2a;stroke-width:0.00453924;stroke-miterlimit:4;stroke-dasharray:none;stroke-opacity:1"
       d="m 34.070398,287.39293 c -0.0077,-0.005 -0.01079,-0.009 -0.01132,-0.0131 -9.6e-4,-0.008 -0.01066,-0.0193 -0.02486,-0.0281 -0.01468,-0.009 -0.03207,-0.0255 -0.03078,-0.0287 7.35e-4,-0.002 0.0032,-0.003 0.0061,-0.004 0.0042,-0.002 0.0112,1.3e-4 0.03283,0.009 0.03007,0.0119 0.04266,0.0136 0.05346,0.007 0.0085,-0.005 0.0068,-0.0136 -0.0061,-0.0291 -0.006,-0.007 -0.01294,-0.0187 -0.01584,-0.0258 -0.007,-0.0173 -0.01448,-0.0239 -0.02655,-0.0234 -0.01263,3.8e-4 -0.0192,0.007 -0.03,0.0278 -0.0052,0.0102 -0.01116,0.0198 -0.0133,0.0214 -0.0039,0.003 -0.01181,0.002 -0.01034,-0.002 0.0011,-0.003 8.4e-5,-0.0114 -0.0026,-0.0247 -0.0014,-0.007 -0.0051,-0.0137 -0.01084,-0.0191 -0.0046,-0.005 -0.0086,-0.0109 -0.0088,-0.0132 -1.19e-4,-0.006 0.179793,-0.47437 0.211418,-0.54974 0.01372,-0.0326 0.03115,-0.0731 0.03884,-0.0898 0.01485,-0.0324 0.02727,-0.063 0.04204,-0.10399 0.01138,-0.0314 0.01467,-0.0359 0.02504,-0.034 0.0159,0.003 0.03109,-0.007 0.04653,-0.0317 0.0022,-0.003 0.0062,-0.007 0.0087,-0.008 0.0027,-0.001 0.01831,7.9e-4 0.03472,0.004 0.03076,0.005 0.04733,0.004 0.06084,-0.002 0.0071,-0.004 0.0073,-0.004 0.05403,0.0138 0.02572,0.01 0.05569,0.0219 0.06668,0.0269 0.01935,0.01 0.01967,0.01 0.01884,0.016 -7.17e-4,0.004 -0.0016,0.0101 -0.0022,0.0139 -9.92e-4,0.007 0.0062,0.0173 0.01584,0.0211 0.0029,0.001 0.0084,0.008 0.012,0.0155 0.0039,0.007 0.01089,0.017 0.01581,0.0215 0.0079,0.007 0.0087,0.01 0.0083,0.0206 -7.2e-4,0.0149 0.0025,0.021 0.01569,0.0305 l 0.0098,0.007 -0.0044,0.0166 c -0.0023,0.009 -0.0091,0.0257 -0.01478,0.0366 -0.0094,0.018 -0.01138,0.0203 -0.02089,0.0243 -0.0057,0.002 -0.01228,0.007 -0.01445,0.01 -0.0062,0.009 -0.01033,0.0411 -0.0063,0.0495 0.0032,0.007 0.0024,0.0106 -0.0079,0.0416 -0.0063,0.0189 -0.05426,0.14269 -0.106501,0.2751 -0.09275,0.23511 -0.115492,0.28832 -0.122558,0.2877 -0.0059,-2e-4 -0.02863,0.007 -0.03456,0.0117 -0.0046,0.004 -0.0069,0.008 -0.01026,0.0213 -0.0037,0.0147 -0.0052,0.0172 -0.01119,0.0204 -0.0113,0.006 -0.02888,-0.005 -0.02483,-0.0152 7.35e-4,-0.002 -4.91e-4,-0.007 -0.0028,-0.0108 -0.0037,-0.007 -0.0059,-0.009 -0.02595,-0.0167 -0.02091,-0.008 -0.02254,-0.008 -0.03094,-0.006 -0.0048,10e-4 -0.0093,0.004 -0.0096,0.005 -2.02e-4,5.1e-4 0.0016,0.006 0.0039,0.0123 l 0.0047,0.0104 0.02411,0.007 0.02412,0.007 4.91e-4,0.007 c 4.17e-4,0.0115 -0.0028,0.0133 -0.02213,0.0124 -0.01673,-0.001 -0.01902,10e-6 -0.02796,0.008 l -0.0097,0.009 -0.03121,-0.0102 c -0.04181,-0.0144 -0.08887,-0.033 -0.101832,-0.0413 z m 0.08099,-0.0298 0.01046,-0.0112 -0.0037,-0.008 -0.0037,-0.008 -0.01207,6e-4 c -0.0097,4.5e-4 -0.01213,0.002 -0.01232,0.006 -6.7e-5,0.006 0.0066,0.0288 0.0093,0.0298 0.0012,4.8e-4 0.0067,-0.004 0.01261,-0.0104 z m -0.0041,-0.0789 c 0.0097,-0.004 0.01149,-0.005 0.01055,-0.009 -0.0013,-0.007 -0.0096,-0.019 -0.01465,-0.021 -0.0047,-0.002 -0.02741,0.003 -0.0287,0.006 -0.0015,0.004 0.01028,0.0234 0.01578,0.0256 0.003,0.001 0.01082,-2e-5 0.01702,-0.002 z m 0.07201,0.0209 c 0.0058,-9.2e-4 0.0058,-9.2e-4 0.0026,-0.007 -0.0045,-0.006 -0.0073,-0.007 -0.01483,-0.006 -0.005,0.001 -0.0057,0.002 -0.0042,0.006 0.0025,0.005 0.0087,0.008 0.01637,0.007 z m 0.08559,0.002 c 0.01001,-0.004 0.01047,-0.004 0.0068,-0.0144 -0.0035,-0.01 -0.0092,-0.0122 -0.02048,-0.009 -0.01085,0.003 -0.01239,0.007 -0.0064,0.016 0.0063,0.009 0.01003,0.0104 0.02005,0.007 z m -0.265104,-0.11233 c 7.35e-4,-0.002 -1.3e-5,-0.003 -0.0018,-0.003 -0.0016,-4e-5 -0.0026,10e-4 -0.0026,0.003 10e-4,0.004 0.0025,0.004 0.0044,-4.3e-4 z m 0.335594,-0.49644 c 0.0011,-6.5e-4 -2.92e-4,-0.003 -0.0032,-0.006 -0.0066,-0.006 -0.01457,-0.004 -0.01178,0.004 0.0019,0.004 0.0096,0.006 0.01462,0.003 z m 0.07933,0.006 c 0.01212,-0.0108 0.01444,-0.0161 0.01099,-0.0248 -0.0034,-0.008 -0.007,-0.008 -0.01794,4.4e-4 -0.0065,0.005 -0.0083,0.008 -0.0081,0.0134 3.18e-4,0.01 0.0018,0.0188 0.0035,0.0195 8.09e-4,2.9e-4 0.0058,-0.003 0.01152,-0.008 z m 0.0478,-0.0248 c 0.0047,-0.004 0.01886,-0.0385 0.01854,-0.0459 -3.05e-4,-0.007 -0.003,-0.004 -0.01444,0.011 -0.0054,0.008 -0.01238,0.015 -0.01579,0.0176 -0.0084,0.006 -0.0087,0.008 -0.0019,0.0137 0.0085,0.007 0.009,0.007 0.01372,0.003 z m -0.07192,-0.0946 c 0.01718,-0.002 0.01808,-0.005 0.0084,-0.0264 -0.005,-0.0106 -0.01045,-0.0222 -0.01241,-0.0252 -0.002,-0.003 -0.0083,-0.0144 -0.01411,-0.0251 -0.0058,-0.0109 -0.01101,-0.0196 -0.01168,-0.0194 -0.003,9.8e-4 -0.02361,0.0202 -0.02468,0.0229 -7.35e-4,0.002 0.003,0.01 0.0082,0.0181 0.005,0.008 0.0098,0.0197 0.01033,0.0253 5.8e-4,0.006 0.0039,0.0146 0.0074,0.0199 0.0069,0.0103 0.01019,0.0115 0.02845,0.0102 z"
       id="path979"
       inkscape:connector-curvature="0" />
    <path
       style="opacity:1;fill:#ff7f2a;fill-opacity:1;fill-rule:nonzero;stroke:none;stroke-width:0.0256778;stroke-miterlimit:4;stroke-dasharray:none;stroke-opacity:1"
       d="m 31.902338,292.54854 c -0.01716,-0.0132 -0.09105,-0.0487 -0.164289,-0.0786 -0.09305,-0.0379 -0.139426,-0.0627 -0.15344,-0.083 -0.01117,-0.0157 -0.04912,-0.0402 -0.08435,-0.0543 -0.05729,-0.0231 -0.06077,-0.0262 -0.03198,-0.0323 0.04288,-0.009 0.02141,-0.0313 -0.03285,-0.0346 -0.04558,-0.003 -0.09304,-0.0303 -0.08566,-0.049 0.0026,-0.007 -0.01379,-0.0185 -0.03607,-0.0273 -0.02228,-0.009 -0.0451,-0.0275 -0.05088,-0.0411 -0.0057,-0.0139 -0.02859,-0.0323 -0.05087,-0.0411 -0.02716,-0.0107 -0.03795,-0.0225 -0.03313,-0.0347 0.0058,-0.0148 -0.0035,-0.0211 -0.04501,-0.0303 -0.05035,-0.0113 -0.06535,-0.0344 -0.02494,-0.039 0.01021,-0.001 0.0078,-0.0164 -0.0057,-0.0368 -0.02579,-0.0389 -0.05593,-0.0449 -0.04063,-0.009 0.0079,0.019 0.004,0.0213 -0.02012,0.0117 -0.01643,-0.006 -0.02846,-0.0156 -0.0263,-0.0212 0.004,-0.0105 -0.05965,-0.083 -0.07995,-0.0911 -0.0075,-0.003 -0.02276,-0.0232 -0.03395,-0.0449 -0.0234,-0.0455 -0.05469,-0.0854 -0.08605,-0.10951 -0.01208,-0.009 -0.02009,-0.0213 -0.01799,-0.0266 0.0022,-0.006 -0.01501,-0.0315 -0.03802,-0.0583 -0.023,-0.0267 -0.04227,-0.0537 -0.04275,-0.06 -3.98e-4,-0.007 -0.0062,-0.0135 -0.01273,-0.0161 -0.01025,-0.004 -0.07104,-0.1083 -0.06784,-0.11639 7.35e-4,-0.002 -0.03164,-0.0682 -0.07178,-0.14789 -0.04012,-0.0797 -0.07075,-0.15048 -0.06807,-0.15726 0.0026,-0.007 -0.0059,-0.0313 -0.01924,-0.0543 -0.01326,-0.0231 -0.02185,-0.0477 -0.01913,-0.0545 0.0029,-0.007 -0.0045,-0.0164 -0.01612,-0.021 -0.01161,-0.005 -0.01744,-0.0177 -0.01318,-0.0284 0.0044,-0.0111 -8.74e-4,-0.0441 -0.0116,-0.0736 -0.01076,-0.0294 -0.01744,-0.0588 -0.01494,-0.0652 0.0026,-0.007 -0.0065,-0.0875 -0.02003,-0.18028 -0.01354,-0.0928 -0.02547,-0.18479 -0.0265,-0.20445 -10e-4,-0.0197 -0.0047,-0.0547 -0.0082,-0.0779 -0.0035,-0.0231 6.6e-4,-0.0596 0.0091,-0.081 0.0085,-0.0215 0.0111,-0.0471 0.0059,-0.057 -0.0053,-0.01 9.35e-4,-0.056 0.01369,-0.10234 0.01274,-0.0464 0.01775,-0.0864 0.01113,-0.089 -0.0066,-0.003 0.0037,-0.0446 0.02292,-0.0932 0.02335,-0.0591 0.03118,-0.099 0.02359,-0.12012 -0.01699,-0.0473 0.337268,-0.94577 0.381888,-0.96859 0.02071,-0.0106 0.04258,-0.0468 0.07074,-0.11716 0.02241,-0.056 0.05364,-0.11609 0.06928,-0.13354 0.01571,-0.0174 0.06001,-0.0999 0.09852,-0.18315 0.04893,-0.1058 0.07433,-0.14813 0.08435,-0.14049 0.0077,0.006 0.0073,0.0344 -0.0013,0.0631 -0.0086,0.0288 -0.0092,0.0548 -0.0013,0.0579 0.0084,0.003 0.0023,0.0313 -0.01471,0.0676 -0.02436,0.0521 -0.0252,0.0642 -0.005,0.0763 0.02048,0.0124 0.01964,0.0218 -0.0059,0.0651 -0.02817,0.0476 -0.02797,0.0509 0.0026,0.0543 0.02779,0.003 0.02949,0.007 0.0125,0.026 -0.01272,0.0142 -0.01521,0.033 -0.0068,0.0512 0.0073,0.0158 0.01169,0.0455 0.0098,0.0659 -0.002,0.0205 9.23e-4,0.0425 0.0064,0.0488 0.0054,0.006 0.0057,0.0222 5.32e-4,0.0353 -0.0051,0.013 -0.0071,0.0355 -0.0043,0.0499 0.0028,0.0144 7.14e-4,0.0482 -0.0045,0.075 -0.0052,0.0268 -0.0034,0.0511 0.0039,0.054 0.0073,0.003 0.0049,0.0268 -0.0055,0.0531 -0.01257,0.0318 -0.01265,0.0546 -9.7e-5,0.0681 0.01455,0.0154 0.01255,0.031 -0.0083,0.0664 -0.02082,0.0355 -0.02217,0.0463 -0.0058,0.0473 0.01412,0.001 0.01858,0.017 0.01354,0.0485 -0.0042,0.026 -0.0033,0.0525 0.0022,0.0588 0.0054,0.006 -0.0017,0.0409 -0.01593,0.0768 -0.01721,0.0435 -0.02046,0.0711 -0.0098,0.0828 0.01028,0.0116 0.0069,0.0485 -0.0099,0.10523 -0.06182,0.20899 -0.08838,0.32508 -0.07863,0.34361 0.0062,0.0121 -0.0078,0.0661 -0.03536,0.1358 -0.03452,0.0873 -0.04289,0.12507 -0.03406,0.15299 0.0093,0.0292 0.0023,0.0569 -0.03276,0.13075 -0.02491,0.0524 -0.0366,0.0888 -0.02654,0.0826 0.02325,-0.0143 0.0361,0.024 0.02109,0.0629 -0.0057,0.0146 -0.0053,0.0324 8.37e-4,0.0397 0.0062,0.007 0.0061,0.0256 3.5e-5,0.0411 -0.0061,0.0154 -0.0039,0.0392 0.0049,0.0528 0.0098,0.0151 0.0088,0.0366 -0.0025,0.0553 -0.01114,0.0184 -0.01185,0.031 -0.0017,0.0316 0.0093,4.5e-4 0.02354,0.0305 0.03169,0.0665 0.02048,0.09 0.02074,0.0886 -0.01342,0.0751 -0.01819,-0.007 -0.03069,-0.005 -0.03053,0.005 -5.4e-5,0.01 0.01501,0.0235 0.0334,0.0307 0.01978,0.008 0.03541,0.0258 0.03816,0.0442 0.0026,0.017 0.01082,0.0432 0.01831,0.0581 0.0075,0.015 0.02869,0.0631 0.04716,0.10693 0.03662,0.087 0.05936,0.13067 0.132133,0.25419 0.03362,0.0571 0.04346,0.0881 0.033,0.10402 -0.0082,0.0125 -0.0085,0.0174 -5.31e-4,0.0109 0.01859,-0.0153 0.0654,0.003 0.07218,0.0286 0.0087,0.0326 0.08114,0.12649 0.104759,0.13583 0.01213,0.005 0.02022,0.0134 0.01779,0.0195 -0.0022,0.006 0.01021,0.0205 0.02792,0.0323 0.03747,0.0245 0.03556,0.0453 -0.0033,0.0393 -0.01465,-0.003 0.0034,0.005 0.0403,0.0154 0.05288,0.0155 0.06733,0.0245 0.06818,0.0424 6.36e-4,0.015 0.01781,0.0296 0.04901,0.042 0.0264,0.0104 0.05257,0.0305 0.05836,0.044 0.0059,0.0143 0.03351,0.0342 0.06412,0.0463 0.02957,0.0117 0.05547,0.0284 0.05769,0.0368 0.0022,0.008 0.0347,0.0277 0.07232,0.0426 0.04221,0.0167 0.06842,0.0335 0.06825,0.0445 -2.14e-4,0.0253 0.548057,0.2499 0.601907,0.24656 0.02106,-10e-4 0.06837,0.005 0.105196,0.0136 0.126258,0.0302 0.19793,0.0414 0.219006,0.0341 0.01159,-0.004 0.04123,7.1e-4 0.06583,0.0104 0.02461,0.01 0.05594,0.0124 0.06944,0.006 0.01361,-0.006 0.03446,-0.007 0.0464,-0.003 0.03032,0.012 0.145093,0.0124 0.149799,5.1e-4 0.0022,-0.006 0.01111,-0.007 0.01991,-0.003 0.0088,0.003 0.02807,2e-5 0.04273,-0.008 0.0227,-0.0119 0.03016,-0.01 0.05009,0.0134 0.02697,0.0313 0.0652,0.0344 0.04912,0.004 -0.01091,-0.0208 0.04054,-0.0496 0.06909,-0.0387 0.0085,0.003 0.04288,-0.002 0.07635,-0.0111 0.03347,-0.009 0.08426,-0.0222 0.112909,-0.0286 0.02865,-0.006 0.0538,-0.0158 0.05593,-0.021 0.0047,-0.0116 0.176251,-0.0658 0.190888,-0.0604 0.0058,0.002 0.01386,-0.004 0.01813,-0.015 0.0051,-0.0128 0.01486,-0.0134 0.03049,-0.002 0.01965,0.0142 0.02407,0.0117 0.03117,-0.0218 0.005,-0.0234 0.01444,-0.0364 0.02386,-0.0327 0.0086,0.003 0.02108,-0.007 0.02766,-0.0241 0.0075,-0.0189 0.01998,-0.0272 0.03311,-0.022 0.01162,0.005 0.02443,-2e-5 0.02866,-0.0107 0.0042,-0.0105 0.01842,-0.0235 0.0318,-0.0289 0.05994,-0.0245 0.0742,-0.0333 0.08064,-0.0495 0.0038,-0.01 0.01763,-0.0168 0.03075,-0.016 0.01309,8.7e-4 0.02935,-0.0125 0.03605,-0.0294 0.0067,-0.0169 0.02178,-0.038 0.03353,-0.0466 0.01172,-0.009 0.02867,-0.0241 0.0376,-0.0343 0.01384,-0.0157 0.0195,-0.0145 0.0388,0.008 0.01236,0.0146 0.01973,0.0334 0.01643,0.0418 -0.0033,0.008 2.94e-4,0.0177 0.0081,0.0208 0.0077,0.003 0.01739,-0.003 0.02125,-0.0126 0.004,-0.01 8.82e-4,-0.0207 -0.0069,-0.0238 -0.0077,-0.003 -0.0099,-0.0162 -0.0048,-0.029 0.0051,-0.0129 0.0043,-0.0294 -0.0018,-0.0365 -0.01403,-0.0164 0.0045,-0.0652 0.028,-0.0736 0.01733,-0.006 0.09098,-0.12654 0.182411,-0.29804 0.02542,-0.0477 0.05841,-0.0956 0.07333,-0.10653 0.01494,-0.0109 0.03785,-0.047 0.05098,-0.0802 0.01342,-0.0339 0.03161,-0.0596 0.04149,-0.0585 0.0098,6.6e-4 0.0321,-0.0255 0.04974,-0.0587 0.01766,-0.0332 0.03877,-0.0612 0.04691,-0.0621 0.0082,-10e-4 0.02524,-0.028 0.03796,-0.0602 0.01507,-0.0381 0.0307,-0.0581 0.04473,-0.0573 0.01198,4.4e-4 0.0338,-0.0181 0.04867,-0.0417 0.05736,-0.0911 0.104358,-0.15177 0.122314,-0.15799 0.01029,-0.003 0.03087,-0.0366 0.04574,-0.0734 0.01486,-0.0368 0.04151,-0.077 0.05914,-0.0893 0.01765,-0.0123 0.04145,-0.0453 0.05291,-0.0735 0.01144,-0.0282 0.02582,-0.0493 0.03201,-0.0468 0.0164,0.006 0.109522,-0.10383 0.128787,-0.15256 0.0091,-0.0231 0.02287,-0.0394 0.03063,-0.0363 0.0077,0.003 0.01011,0.0156 0.0053,0.0278 -0.01456,0.0368 0.0014,0.0467 0.03475,0.0213 0.04448,-0.0339 0.05451,-0.0627 0.01878,-0.0538 -0.02307,0.006 -0.02491,10e-4 -0.01241,-0.0304 0.0081,-0.0204 0.02139,-0.0378 0.02973,-0.0388 0.0084,-10e-4 0.029,-0.0245 0.04601,-0.0522 0.01701,-0.0278 0.03817,-0.0514 0.047,-0.0524 0.0087,-8.5e-4 0.02345,-0.0205 0.03254,-0.0435 0.0091,-0.023 0.02168,-0.0396 0.02807,-0.0371 0.0064,0.003 0.02633,-0.0133 0.04433,-0.035 l 0.03273,-0.0395 -0.0207,0.0575 c -0.01133,0.0317 -0.0157,0.0634 -0.0095,0.0705 0.0062,0.007 -0.0085,0.0632 -0.03252,0.12442 -0.02401,0.0613 -0.04571,0.13574 -0.04833,0.16549 -0.009,0.10451 -0.113174,0.42118 -0.258599,0.78641 -0.15416,0.38723 -0.233844,0.55228 -0.273153,0.56587 -0.01299,0.005 -0.03499,0.037 -0.04893,0.0723 -0.02265,0.0573 -0.02853,0.0629 -0.05526,0.0523 -0.02533,-0.01 -0.02824,-0.008 -0.01925,0.014 0.0076,0.0184 0.0048,0.0278 -0.0097,0.0328 -0.0115,0.004 -0.02414,0.0271 -0.02913,0.053 -0.0064,0.033 -0.01252,0.0417 -0.02168,0.0309 -0.0071,-0.008 -0.0094,-0.0244 -0.0052,-0.0357 0.0072,-0.0193 0.0063,-0.0197 -0.01418,-0.006 -0.01461,0.01 -0.0205,0.0268 -0.01775,0.0512 0.0032,0.0291 -0.0026,0.04 -0.02982,0.0553 -0.01861,0.0104 -0.03854,0.0308 -0.04424,0.0452 -0.0057,0.0144 -0.02112,0.0256 -0.03424,0.0249 -0.01309,-8.8e-4 -0.02711,0.007 -0.03101,0.0167 -0.0085,0.0215 -0.121726,0.10472 -0.141165,0.10374 -0.0073,-7.5e-4 -0.01723,0.009 -0.02179,0.0202 -0.0046,0.0115 -0.02173,0.0278 -0.03821,0.0362 -0.01648,0.008 -0.03499,0.0275 -0.04119,0.0424 -0.0066,0.0159 -0.01998,0.0236 -0.03234,0.0187 -0.01162,-0.005 -0.02443,2e-5 -0.0288,0.0111 -0.0051,0.0129 -0.01432,0.0139 -0.02739,0.003 -0.01387,-0.0119 -0.01962,-0.01 -0.01881,0.005 4.74e-4,0.0116 -0.0064,0.0219 -0.01541,0.0229 -0.0089,7.8e-4 -0.0142,-0.003 -0.01126,-0.0109 0.0062,-0.0158 -0.04483,-0.0375 -0.062,-0.0267 -0.007,0.005 -0.0011,0.0166 0.01279,0.027 0.01412,0.01 0.0223,0.0266 0.01862,0.0359 -0.01044,0.0264 -0.120105,0.0605 -0.140395,0.0436 -0.01352,-0.0118 -0.01858,-0.007 -0.02089,0.0173 -0.0024,0.0256 -0.01962,0.0379 -0.08321,0.06 -0.07671,0.0266 -0.08026,0.0265 -0.08117,-0.003 -10e-4,-0.0336 -0.01965,-0.0471 -0.04386,-0.0315 -0.0084,0.005 -0.0076,0.0208 0.0021,0.0341 0.02258,0.0308 0.0013,0.0514 -0.05892,0.057 -0.03563,0.003 -0.05012,-5.7e-4 -0.05821,-0.0155 -0.01461,-0.0278 -0.03787,-0.0171 -0.02585,0.0117 0.01266,0.0307 -0.01676,0.0584 -0.04863,0.0458 -0.01384,-0.005 -0.0321,-0.003 -0.04042,0.005 -0.0084,0.008 -0.02528,0.011 -0.0375,0.006 -0.01223,-0.005 -0.04232,-9.2e-4 -0.06684,0.009 -0.02452,0.01 -0.04905,0.0157 -0.0545,0.0135 -0.0054,-0.002 -0.03689,0.002 -0.06991,0.008 -0.04345,0.009 -0.06803,0.007 -0.08903,-0.009 -0.02383,-0.0169 -0.0269,-0.0171 -0.01769,0.002 0.02073,0.0419 0.0031,0.0457 -0.06034,0.0132 -0.03975,-0.02 -0.05697,-0.0258 -0.04759,-0.0134 0.01228,0.0145 0.0062,0.0206 -0.02941,0.0285 -0.02454,0.005 -0.05823,0.005 -0.0749,-0.002 -0.01664,-0.006 -0.03713,-0.005 -0.04556,0.003 -0.0089,0.009 -0.03291,0.008 -0.05713,-0.002 -0.02302,-0.009 -0.04797,-0.0125 -0.05533,-0.008 -0.0073,0.005 -0.02894,0.003 -0.04786,-0.005 -0.0219,-0.009 -0.03695,-0.007 -0.04191,0.005 -0.0058,0.0146 -0.01931,0.0133 -0.05771,-0.005 -0.03097,-0.0155 -0.05462,-0.0194 -0.06191,-0.0116 -0.0065,0.007 -0.03806,0.006 -0.07025,-0.002 -0.03196,-0.008 -0.06374,-0.0109 -0.07017,-0.007 -0.0064,0.004 -0.03731,-0.003 -0.06859,-0.015 -0.03128,-0.0124 -0.07978,-0.0229 -0.108123,-0.0226 -0.02819,-7e-5 -0.109441,-0.0197 -0.18057,-0.0437 -0.07116,-0.0238 -0.18108,-0.0608 -0.244208,-0.0823 -0.06306,-0.0217 -0.128845,-0.0499 -0.145999,-0.0631 z m -0.278634,-0.2234 c -0.01905,-0.041 -0.07095,-0.0591 -0.0898,-0.0312 -0.01082,0.0159 -0.0026,0.0235 0.04646,0.0429 0.05907,0.0233 0.05943,0.0232 0.04327,-0.0115 z m 0.175814,0.0759 c 0.01783,-0.005 0.03204,-0.0185 0.03154,-0.0295 -6.92e-4,-0.0151 -0.01023,-0.0154 -0.03907,-10e-4 -0.05933,0.0289 -0.05443,0.049 0.0075,0.0309 z m -0.290151,-0.17632 c 0.0026,-0.007 -0.0015,-0.0146 -0.0093,-0.0176 -0.0077,-0.003 -0.01629,1e-5 -0.01886,0.007 -0.0026,0.007 0.0015,0.0146 0.0093,0.0177 0.0077,0.003 0.01629,-1e-5 0.01886,-0.007 z m 0.971503,0.38408 c 0.0026,-0.007 -0.01106,-0.0183 -0.03042,-0.026 -0.01936,-0.008 -0.0374,-0.008 -0.03998,-0.002 -0.0026,0.006 0.01106,0.0183 0.03042,0.026 0.01936,0.008 0.0374,0.008 0.03998,0.002 z m -0.989807,-0.46132 c 0.0026,-0.007 -0.0047,-0.0159 -0.01634,-0.0204 -0.01162,-0.005 -0.02333,-0.003 -0.0259,0.004 -0.0026,0.007 0.0047,0.0159 0.01634,0.0204 0.01161,0.005 0.02332,0.003 0.0259,-0.004 z m 1.407102,0.54769 c -0.0032,-0.006 -0.01499,-0.0113 -0.02662,-0.0116 -0.0127,-7.3e-4 -0.01048,0.003 0.0055,0.0108 0.01465,0.006 0.02426,0.006 0.02105,8e-4 z m 0.151819,-0.0434 c 0.0026,-0.007 -0.0047,-0.0159 -0.01634,-0.0204 -0.01161,-0.005 -0.02332,-0.003 -0.0259,0.004 -0.0026,0.007 0.0047,0.0159 0.01634,0.0204 0.01162,0.005 0.02333,0.003 0.0259,-0.004 z m -1.548512,-0.65413 c 0.0026,-0.007 -0.0079,-0.0171 -0.02338,-0.0232 -0.01548,-0.006 -0.03036,-0.006 -0.03294,9.6e-4 -0.0026,0.007 0.0079,0.0171 0.02338,0.0232 0.01548,0.006 0.03036,0.006 0.03294,-9.6e-4 z m 1.140459,0.45087 c -0.0213,-0.026 -0.03625,-0.0319 -0.04224,-0.0167 -0.0026,0.007 0.0095,0.0177 0.02698,0.0244 0.02567,0.01 0.02874,0.008 0.01526,-0.008 z m 0.43673,0.13072 c 0.0026,-0.007 0.002,-0.0132 -0.0015,-0.0145 -0.0033,-10e-4 -0.01233,0.002 -0.01969,0.006 -0.0073,0.005 -0.0067,0.0113 0.0015,0.0145 0.0082,0.003 0.01712,3.2e-4 0.0197,-0.006 z m 0.117418,0.0324 c 0.0053,-0.0134 1.75e-4,-0.0279 -0.01156,-0.0325 -0.02546,-0.0101 -0.03281,0.003 -0.0177,0.0322 0.015,0.0285 0.01802,0.0285 0.02916,3.5e-4 z m 0.181741,-0.0891 c 0.004,-0.01 -0.0019,-0.0218 -0.01309,-0.0263 -0.02353,-0.009 -0.04624,0.002 -0.03755,0.0182 0.01112,0.0211 0.04361,0.0259 0.05067,0.008 z m -2.156332,-0.88743 c 0.0026,-0.007 -0.0051,-0.016 -0.01717,-0.0208 -0.01207,-0.005 -0.02024,-0.002 -0.01803,0.007 0.0022,0.008 0.0099,0.0179 0.01717,0.0208 0.0073,0.003 0.01546,-3.4e-4 0.01803,-0.007 z m 2.323417,0.8766 c 0.0026,-0.006 -0.0015,-0.0146 -0.0093,-0.0177 -0.0077,-0.003 -0.01629,10e-6 -0.01886,0.007 -0.0026,0.007 0.0015,0.0146 0.0093,0.0177 0.0077,0.003 0.01629,-2e-5 0.01886,-0.007 z m -2.791097,-1.13494 c 0.0056,-0.0142 -0.01631,-0.0187 -0.02824,-0.006 -0.0058,0.006 -0.0027,0.0124 0.0069,0.0135 0.0098,6.7e-4 0.01915,-0.002 0.02124,-0.007 z m 2.883382,1.05594 c 5.4e-5,-0.01 -0.0083,-0.0208 -0.01865,-0.0249 -0.01032,-0.004 -0.02399,-0.002 -0.03064,0.005 -0.0071,0.008 5.17e-4,0.0177 0.01865,0.0249 0.01814,0.007 0.0307,0.005 0.03064,-0.005 z m -3.085384,-1.28624 c 0.0026,-0.007 -0.0019,-0.0147 -0.01014,-0.018 -0.0082,-0.003 -0.0132,10e-4 -0.01101,0.01 0.0022,0.008 0.0067,0.0166 0.01014,0.018 0.0033,0.001 0.0084,-0.003 0.01101,-0.01 z m 0.302715,0.11968 c 0.0073,-0.005 0.0032,-0.0127 -0.0093,-0.0177 -0.01253,-0.005 -0.02107,-0.002 -0.01886,0.007 0.0022,0.008 0.0063,0.0165 0.0093,0.0177 0.003,10e-4 0.01151,-0.002 0.01886,-0.007 z m 2.895961,1.13737 c 0.0041,-0.0103 -3.14e-4,-0.018 -0.0099,-0.0169 -0.0094,5.9e-4 -0.01567,0.008 -0.01369,0.0164 0.0054,0.0216 0.01511,0.0218 0.02346,6.7e-4 z m 0.05536,-0.0543 c 0.0176,0.007 0.0303,0.002 0.03655,-0.0135 0.0064,-0.0161 1.76e-4,-0.0279 -0.0186,-0.0353 -0.01548,-0.006 -0.0311,-0.004 -0.03496,0.006 -0.0037,0.009 -0.01177,0.0235 -0.0179,0.0314 -0.0063,0.008 -0.0068,0.0113 -0.0017,0.008 0.0051,-0.003 0.02173,-0.002 0.03657,0.004 z m -3.255012,-1.30168 c 0.01732,-0.0111 -0.0089,-0.0727 -0.03541,-0.0831 -0.02566,-0.0102 -0.03326,0.0137 -0.01047,0.0327 0.01014,0.008 0.01538,0.0229 0.01171,0.0322 -0.0079,0.0199 0.01365,0.0313 0.03428,0.0179 z m 0.41929,0.15264 c 0.0026,-0.007 -0.0015,-0.0146 -0.0093,-0.0177 -0.0077,-0.003 -0.01629,10e-6 -0.01886,0.007 -0.0026,0.007 0.0015,0.0146 0.0093,0.0177 0.0077,0.003 0.01628,-2e-5 0.01886,-0.007 z m 3.239927,1.25389 c 0.007,-0.005 0.0075,-0.014 0.0012,-0.0213 -0.0064,-0.007 -0.01468,-0.005 -0.01876,0.006 -0.0084,0.0212 -0.0012,0.0278 0.01757,0.0156 z m 0.06759,-0.0702 c -0.01823,-0.0147 -0.03395,-0.006 -0.02852,0.0153 0.0034,0.0135 0.0093,0.0152 0.02281,0.007 0.0108,-0.007 0.01303,-0.0158 0.0056,-0.0217 z m -3.390289,-1.47881 c 0.0071,-0.008 -2.75e-4,-0.0175 -0.01752,-0.0243 -0.0173,-0.007 -0.03227,-0.004 -0.03687,0.007 -0.0088,0.0222 0.03643,0.0363 0.05427,0.0171 z m -0.06839,-0.21773 c -0.0053,-0.0237 -0.03756,-10e-4 -0.03645,0.0255 0.0011,0.0252 0.0019,0.0255 0.02018,0.007 0.01047,-0.0107 0.01782,-0.0252 0.01621,-0.0323 z m 0.05873,-0.0358 c 0.0069,-0.0176 0.0049,-0.0301 -0.0048,-0.0291 -0.0092,6.7e-4 -0.02121,0.0125 -0.02632,0.0254 -0.0051,0.0129 -0.003,0.026 0.0048,0.0291 0.0077,0.003 0.0196,-0.008 0.02632,-0.0254 z m 3.873427,1.40341 c 0.0096,-0.0244 0.0074,-0.0307 -0.0084,-0.0253 -0.01168,0.004 -0.02092,0.0174 -0.02034,0.0297 0.0015,0.0339 0.01446,0.032 0.02888,-0.005 z m -4.296742,-1.86382 c -0.004,-0.0357 -0.037,-0.0637 -0.04659,-0.0394 -0.0026,0.007 0.0015,0.0146 0.0093,0.0177 0.0077,0.003 0.01077,0.0139 0.0069,0.0237 -0.004,0.01 0.0022,0.0218 0.01364,0.0264 0.0171,0.007 0.02015,0.002 0.01673,-0.0284 z m 4.563105,1.64304 c 0.0053,-0.0133 0.0039,-0.0264 -0.003,-0.0292 -0.01583,-0.006 -0.04305,0.0194 -0.03556,0.0335 0.01121,0.0212 0.02931,0.0191 0.03857,-0.004 z m -0.268576,-0.44073 c 0.01,-0.0405 -0.02832,-0.0673 -0.05443,-0.0382 -0.01022,0.0114 -0.01605,0.0352 -0.01292,0.0525 0.0047,0.0258 0.01068,0.0305 0.03251,0.0251 0.01478,-0.004 0.03038,-0.0214 0.03482,-0.0395 z m -3.716537,-1.59919 c -6.4e-4,-0.0114 -0.0052,-0.01 -0.0114,0.004 -0.0056,0.0125 -0.0052,0.021 0.0012,0.0188 0.0061,-0.002 0.01091,-0.0124 0.01027,-0.0227 z m 3.87671,1.51779 c -5.97e-4,-0.01 -0.0063,-0.005 -0.01306,0.0124 -0.0066,0.0166 -0.0061,0.0247 0.0011,0.018 0.0072,-0.007 0.01258,-0.0204 0.01199,-0.0303 z m 0.09617,-0.022 c 0.01834,-0.008 0.02258,-0.0169 0.01531,-0.0308 -0.01465,-0.0278 -0.05838,-0.0263 -0.06974,0.002 -0.01147,0.029 0.01855,0.0446 0.05461,0.028 z m 0.353227,-0.1125 c 0.0069,-0.0176 0.0048,-0.0301 -0.0048,-0.0291 -0.0092,6.7e-4 -0.02121,0.0125 -0.02632,0.0254 -0.0051,0.0129 -0.003,0.026 0.0048,0.0291 0.0077,0.003 0.01959,-0.008 0.02632,-0.0254 z m 0.292678,-0.94621 c 0.0038,-0.01 0.0019,-0.0233 -0.0042,-0.0305 -0.0062,-0.007 -0.01555,-0.002 -0.02099,0.0119 -0.0054,0.0137 -0.0035,0.0274 0.0042,0.0305 0.0077,0.003 0.01702,-0.002 0.02099,-0.0119 z"
       id="path981"
       inkscape:connector-curvature="0" />
  </g>
</svg>
