<?xml version="1.0" encoding="UTF-8" standalone="no"?>
<!-- Created with Inkscape (http://www.inkscape.org/) -->

<svg
   xmlns:dc="http://purl.org/dc/elements/1.1/"
   xmlns:cc="http://creativecommons.org/ns#"
   xmlns:rdf="http://www.w3.org/1999/02/22-rdf-syntax-ns#"
   xmlns:svg="http://www.w3.org/2000/svg"
   xmlns="http://www.w3.org/2000/svg"
   xmlns:sodipodi="http://sodipodi.sourceforge.net/DTD/sodipodi-0.dtd"
   xmlns:inkscape="http://www.inkscape.org/namespaces/inkscape"
   width="165mm"
   height="25mm"
   viewBox="0 0 165 25"
   version="1.1"
   id="svg8"
   sodipodi:docname="logo-white.svg"
   inkscape:version="0.92.1 r15371">
  <defs
     id="defs2" />
  <sodipodi:namedview
     id="base"
     pagecolor="#ffffff"
     bordercolor="#666666"
     borderopacity="1.0"
     inkscape:pageopacity="0.0"
     inkscape:pageshadow="2"
     inkscape:zoom="1.0193498"
     inkscape:cx="311.81102"
     inkscape:cy="47.244094"
     inkscape:document-units="mm"
     inkscape:current-layer="layer1"
     showgrid="false"
     inkscape:window-width="1024"
     inkscape:window-height="715"
     inkscape:window-x="-8"
     inkscape:window-y="-8"
     inkscape:window-maximized="1"
     showborder="true"
     inkscape:pagecheckerboard="true" />
  <metadata
     id="metadata5">
    <rdf:RDF>
      <cc:Work
         rdf:about="">
        <dc:format>image/svg+xml</dc:format>
        <dc:type
           rdf:resource="http://purl.org/dc/dcmitype/StillImage" />
        <dc:title></dc:title>
      </cc:Work>
    </rdf:RDF>
  </metadata>
  <g
     inkscape:label="Layer 1"
     inkscape:groupmode="layer"
     id="layer1"
     transform="translate(0,-272)">
    <path
       style="fill:#ffffff;stroke-width:0.10606876"
       d="M 0.38828102,296.96498 0,296.90032 0.42747077,296.564 c 0.61313933,-0.48243 1.28324933,-1.45809 1.65004633,-2.4024 0.1744989,-0.44925 0.3542177,-0.83844 0.3993732,-0.86487 0.1460267,-0.0855 0.4590847,-1.74322 0.5807066,-3.07506 0.065157,-0.71352 0.1201632,-4.45405 0.1222379,-8.3123 l 0.00387,-7.01499 1.6063153,-0.56225 c 0.8834742,-0.30923 2.3765143,-0.83896 3.317869,-1.17717 0.9413534,-0.33821 1.7474308,-0.61494 1.7912812,-0.61494 0.043851,0 0.059555,3.8162 0.034901,8.48046 -0.043169,8.16409 -0.054088,8.51935 -0.292781,9.5228 -0.4263024,1.79212 -1.184496,3.33021 -2.1457006,4.35284 -0.7804758,0.83035 -2.421237,1.63148 -3.909087,1.90869 -0.850348,0.15843 -2.66345602,0.24924 -3.19811902,0.16019 z"
       id="path23"
       inkscape:connector-curvature="0" />
    <path
       style="fill:#ffffff;stroke-width:0.10606876"
       d="m 20.772959,272.41578 -1.275959,0.0694 c -2.74196,0.14901 -5.134943,0.67201 -6.438783,1.40718 -0.851787,0.48027 -1.63872,1.27604 -1.91429,1.93596 -0.661287,1.58362 -0.345209,3.17983 0.921985,4.65639 1.203611,1.40248 1.16568,1.37175 4.07707,3.31235 0.724407,0.48285 1.317017,0.91503 1.317017,0.96053 0,0.0455 0.05643,0.0828 0.125307,0.0828 0.147047,0 1.806459,1.0474 2.977156,1.87902 0.450744,0.32019 0.906663,0.60923 1.013073,0.64228 0.190651,0.0592 1.136198,0.96902 2.009626,1.93364 1.035763,1.14391 1.441425,2.29565 1.334482,3.78845 -0.09899,1.38165 -0.573625,2.35101 -1.636774,3.34237 l -0.490608,0.45731 1.285159,-0.0567 c 3.345777,-0.1476 6.552938,-1.15309 7.931846,-2.48663 0.238171,-0.23033 0.537652,-0.50886 0.665706,-0.61885 0.128051,-0.11 0.405639,-0.49915 0.616621,-0.86484 0.37829,-0.65544 0.383426,-0.68393 0.376393,-2.01015 -0.0067,-1.26072 -0.03146,-1.4045 -0.394326,-2.28674 -0.212971,-0.5178 -0.448078,-0.99361 -0.522467,-1.05718 -0.07438,-0.0635 -0.38199,-0.43977 -0.683403,-0.83618 -0.9042,-1.18913 -2.187092,-2.39278 -3.667405,-3.44056 -0.769262,-0.54449 -1.72257,-1.22987 -2.118416,-1.52301 -0.395846,-0.29316 -0.878336,-0.61211 -1.072305,-0.70892 -0.664792,-0.33184 -2.657087,-1.74934 -3.789406,-2.69622 -0.824444,-0.68942 -1.238265,-1.12374 -1.52185,-1.59679 -0.357169,-0.59577 -0.388793,-0.72193 -0.38135,-1.51643 0.0091,-0.97381 0.219329,-1.53189 0.869126,-2.30709 z m 1.933639,0.028 0.468897,0.45653 c 0.257887,0.25106 0.878794,0.8023 1.379791,1.22512 0.500994,0.42282 1.221101,1.07149 1.600198,1.44146 0.379095,0.36997 1.256115,1.1701 1.948978,1.77791 1.269019,1.11323 2.763806,2.48206 3.266943,2.99179 0.149553,0.1515 0.294344,0.27542 0.321879,0.27542 0.02754,0 0.05004,-1.83797 0.05004,-4.08421 v -4.08402 h -4.518356 z m -5.93496,15.19253 c -0.250085,-10e-4 -0.493834,0.019 -0.792666,0.0611 -0.428385,0.0602 -0.810522,0.14488 -0.849064,0.18789 -0.03852,0.043 -0.432044,0.22952 -0.87455,0.4145 -1.868018,0.7809 -2.91449,2.52624 -2.546961,4.24809 0.163041,0.76381 0.824669,1.85933 1.392769,2.3063 0.531601,0.41825 1.721537,0.93244 2.531386,1.09378 0.804144,0.16021 1.266996,0.15849 2.228617,-0.009 1.365164,-0.23738 2.518286,-0.93502 3.177033,-1.92182 0.176409,-0.26427 0.36379,-0.50383 0.416274,-0.53227 0.229733,-0.12456 0.481451,-1.30346 0.411081,-1.92493 -0.06906,-0.60993 -0.26671,-1.23909 -0.420521,-1.3386 -0.04085,-0.0263 -0.212074,-0.24421 -0.380639,-0.48386 -0.381183,-0.54193 -1.298884,-1.25545 -1.978007,-1.53811 -0.282808,-0.11767 -0.542553,-0.25002 -0.577213,-0.29403 -0.03468,-0.044 -0.442837,-0.13358 -0.907116,-0.19892 -0.323861,-0.0456 -0.580336,-0.0689 -0.830423,-0.0702 z"
       id="path25"
       inkscape:connector-curvature="0" />
    <path
       style="font-style:normal;font-variant:normal;font-weight:bold;font-stretch:normal;font-size:10.58333302px;line-height:1.25;font-family:Calibri;-inkscape-font-specification:'Calibri, Bold';font-variant-ligatures:normal;font-variant-caps:normal;font-variant-numeric:normal;font-feature-settings:normal;text-align:start;letter-spacing:0px;word-spacing:0px;writing-mode:lr-tb;text-anchor:start;fill:#ffffff;fill-opacity:1;stroke:none;stroke-width:0.80395609"
       d="m 71.890046,273.99995 c -0.552049,0 -0.981428,0.0156 -1.288123,0.0482 -0.306697,0.0218 -0.526495,0.0911 -0.659397,0.20908 -0.12267,0.10734 -0.173802,0.27504 -0.153359,0.50005 0.03065,0.22496 0.107333,0.52897 0.230038,0.91485 l 3.166635,9.89474 3.574544,-1.83453 -2.692793,-8.94452 c -0.0511,-0.16087 -0.107333,-0.29466 -0.168665,-0.40197 -0.05112,-0.10734 -0.148258,-0.18606 -0.291375,-0.23958 -0.143118,-0.0535 -0.347589,-0.0927 -0.613392,-0.11418 -0.265796,-0.0218 -0.633834,-0.0312 -1.104105,-0.0312 z m 19.073428,0 c -0.521381,0 -0.930308,0.0156 -1.226787,0.0482 -0.28624,0.0218 -0.495823,0.0911 -0.628725,0.20908 -0.122672,0.11793 -0.178904,0.28935 -0.168665,0.51453 0.01019,0.21436 0.06133,0.51449 0.15336,0.90037 l 4.086725,16.45318 3.369055,-1.73003 -3.392057,-15.52707 c -0.03065,-0.20349 -0.07157,-0.35908 -0.122671,-0.46627 -0.05111,-0.11793 -0.148258,-0.2038 -0.291375,-0.25731 -0.14312,-0.0644 -0.357809,-0.10174 -0.644061,-0.11263 -0.276035,-0.0218 -0.654281,-0.0321 -1.134773,-0.0321 z m 23.324206,0 c -0.48048,0 -0.85362,0.0156 -1.11942,0.0482 -0.26581,0.0218 -0.47027,0.0696 -0.6134,0.14467 -0.1431,0.0644 -0.24025,0.16086 -0.29137,0.28936 -0.0512,0.11792 -0.092,0.2626 -0.12264,0.4341 l -1.84478,8.42036 4.19713,-2.15614 1.37398,-5.46027 c 0.092,-0.39661 0.14312,-0.70747 0.15336,-0.93257 0.0204,-0.23585 -0.0256,-0.41267 -0.13802,-0.53059 -0.11243,-0.11791 -0.29647,-0.18762 -0.55204,-0.20908 -0.24535,-0.0321 -0.59294,-0.0483 -1.04278,-0.0483 z m 10.02585,0 c -0.5214,0 -0.94053,0.01 -1.25745,0.0321 -0.31692,0.01 -0.56739,0.0482 -0.75141,0.11264 -0.17379,0.0535 -0.30157,0.13939 -0.38337,0.25731 -0.0817,0.10703 -0.15334,0.25202 -0.21466,0.43413 l -1.05502,3.18354 6.4958,-3.3347 c -0.0434,-0.0986 -0.0809,-0.21344 -0.13493,-0.28282 -0.0818,-0.11793 -0.22491,-0.2038 -0.42939,-0.25731 -0.19425,-0.0644 -0.47027,-0.10174 -0.82806,-0.11263 -0.35783,-0.0218 -0.83831,-0.0321 -1.44148,-0.0321 z m -38.42281,0.002 c -0.480492,0 -0.85875,0.01 -1.134773,0.0312 -0.276035,0.0218 -0.490718,0.066 -0.644064,0.13037 -0.143119,0.0644 -0.24535,0.1537 -0.306695,0.27162 -0.06133,0.10735 -0.11249,0.25202 -0.153358,0.43414 l -1.864713,6.28188 4.601974,-2.36353 0.989095,-3.08227 c 0.122671,-0.37517 0.199353,-0.67528 0.230007,-0.9004 0.04089,-0.22496 0.01009,-0.39661 -0.09202,-0.5145 -0.09202,-0.12851 -0.270931,-0.20909 -0.536719,-0.24113 -0.255589,-0.0321 -0.618504,-0.0466 -1.088772,-0.0466 z m 16.6352,0 c -0.46005,0 -0.82808,0.0155 -1.10412,0.0483 -0.27603,0.0218 -0.49582,0.0696 -0.65939,0.14467 -0.15336,0.0644 -0.26579,0.16087 -0.33736,0.28937 -0.0613,0.1285 -0.1125,0.29465 -0.15336,0.49841 l -3.499407,15.29872 3.836767,-1.9696 1.74817,-7.66947 h 0.0307 l 1.44761,6.01337 3.39972,-1.74773 -2.34776,-9.92687 c -0.0409,-0.21438 -0.0971,-0.38591 -0.16867,-0.51454 -0.0715,-0.1285 -0.18912,-0.22495 -0.3527,-0.28936 -0.15332,-0.075 -0.37827,-0.12165 -0.67473,-0.14312 -0.28624,-0.0218 -0.67473,-0.0321 -1.16544,-0.0321 z m -64.292695,0.0949 c -0.337359,0 -0.623623,0.10734 -0.85875,0.32156 -0.224905,0.20347 -0.337365,0.54132 -0.337365,1.01294 v 11.76145 l 4.017717,-2.06288 V 277.409 h 2.03953 c 1.237004,0 2.233769,0.17673 2.990283,0.53059 0.766747,0.343 1.390357,0.82536 1.870848,1.44708 0.393286,0.49827 0.632027,1.12256 0.848017,1.76543 l 3.767756,-1.93426 c -0.420984,-0.96963 -0.944266,-1.83724 -1.64082,-2.53236 -0.838304,-0.85753 -1.875962,-1.50068 -3.112967,-1.92943 -1.226784,-0.43948 -2.724486,-0.6592 -4.493094,-0.6592 z m 18.843402,0 c -0.337359,0 -0.623621,0.10734 -0.858748,0.32156 -0.224905,0.20347 -0.337365,0.54132 -0.337365,1.01294 v 2.08698 l 6.662973,-3.42148 z m 8.081442,0 -9.277555,4.76245 v 14.70864 c 0,0.34711 0.126591,0.54953 0.248436,0.75731 l 5.324242,-2.73497 h -1.554948 v -5.86866 h 5.995911 c 0.092,0 0.173801,-0.0281 0.245349,-0.0787 0.0818,-0.0535 0.148256,-0.13939 0.199354,-0.25731 0.0511,-0.1285 0.08689,-0.2962 0.107331,-0.50006 0.03065,-0.20348 0.04599,-0.45933 0.04599,-0.77016 0,-0.30025 -0.01535,-0.55205 -0.04599,-0.75569 -0.02048,-0.21438 -0.05623,-0.3805 -0.107331,-0.49842 -0.05111,-0.1285 -0.117582,-0.22122 -0.199354,-0.27504 -0.07155,-0.0644 -0.153323,-0.0965 -0.245349,-0.0965 h -5.995911 v -5.08084 h 7.084679 c 0.09202,0 0.173802,-0.0281 0.245348,-0.0802 0.07157,-0.0644 0.132917,-0.1593 0.184014,-0.28781 0.05111,-0.12849 0.08691,-0.29464 0.107332,-0.49844 0.03065,-0.21437 0.046,-0.47162 0.046,-0.77174 0,-0.32156 -0.01537,-0.58423 -0.046,-0.78788 -0.02047,-0.21436 -0.05623,-0.38586 -0.107332,-0.51449 -0.05112,-0.13939 -0.112478,-0.23584 -0.184014,-0.28936 -0.07155,-0.0535 -0.15336,-0.0802 -0.245348,-0.0802 z m 89.276061,0 c -0.33735,0 -0.62363,0.10734 -0.85873,0.32156 -0.22492,0.20347 -0.33738,0.54132 -0.33738,1.01294 v 3.38612 l 9.19627,-4.72062 z m -17.27312,8.4e-4 c -0.33734,0 -0.6236,0.10734 -0.85874,0.32159 -0.2249,0.20349 -0.33736,0.54131 -0.33736,1.01295 v 12.25504 l 13.56975,-6.96842 c 0.0397,-0.30617 0.12411,-0.58177 0.12411,-0.91488 0,-0.82535 -0.1176,-1.55426 -0.35267,-2.18668 -0.23516,-0.64316 -0.57764,-1.19518 -1.02746,-1.6561 -0.43959,-0.47163 -0.98142,-0.85215 -1.62548,-1.14157 -0.63385,-0.28936 -1.34947,-0.49308 -2.14687,-0.61098 -0.27603,-0.0321 -0.58272,-0.0575 -0.92009,-0.0787 -0.33738,-0.0218 -0.76673,-0.0321 -1.28813,-0.0321 z m 27.4999,0.19789 -6.0649,3.11281 h 5.74441 c 0.092,0 0.17388,-0.0281 0.24536,-0.0787 0.0715,-0.0644 0.13292,-0.16086 0.184,-0.28935 0.0512,-0.1285 0.087,-0.29465 0.10737,-0.49845 0.0307,-0.21439 0.0459,-0.47164 0.0459,-0.77175 0,-0.32157 -0.0147,-0.58422 -0.0459,-0.78787 -0.0204,-0.21438 -0.0561,-0.38587 -0.10737,-0.5145 -0.0303,-0.0828 -0.0713,-0.11947 -0.10882,-0.17206 z m -37.10714,1.52265 -7.4389,3.81865 -4.5268,13.65711 c -0.12265,0.37517 -0.19938,0.67529 -0.23,0.9004 -0.0307,0.22495 0.005,0.40196 0.10737,0.53058 0.10223,0.11792 0.28625,0.19447 0.55205,0.22683 0.26579,0.0321 0.63382,0.0482 1.1041,0.0482 0.43957,0 0.7923,-0.01 1.05809,-0.0321 0.27604,-0.0218 0.48561,-0.0588 0.62872,-0.11262 0.15337,-0.0644 0.2607,-0.14469 0.32204,-0.24114 0.0716,-0.10735 0.12785,-0.23584 0.16866,-0.38591 l 1.25744,-4.06785 h 7.4527 l 0.44164,1.38596 3.70029,-1.90208 z m 12.44419,1.50975 h 1.80951 c 0.46003,0 0.81785,0.0155 1.07344,0.0483 0.26579,0.0321 0.50092,0.0766 0.70538,0.13037 0.67471,0.19289 1.16033,0.52527 1.4568,0.99688 0.29649,0.47163 0.44472,1.05047 0.44472,1.73647 0,0.45022 -0.0716,0.8575 -0.2147,1.22195 -0.14319,0.36445 -0.35779,0.68066 -0.64405,0.94865 -0.28625,0.2573 -0.64409,0.46092 -1.07344,0.61099 -0.42938,0.13937 -0.9303,0.20907 -1.50283,0.20907 h -2.05483 z m -15.74577,0.73962 h 0.0154 l 2.80628,8.84321 h -5.62797 z m 33.00355,0.0281 -4.01772,2.06289 v 13.4079 c 0,0.47165 0.11243,0.81465 0.33738,1.02902 0.2351,0.2038 0.52138,0.30555 0.85873,0.30555 h 9.96762 c 0.092,0 0.17388,-0.0281 0.24535,-0.0787 0.0817,-0.0644 0.1483,-0.16085 0.19934,-0.28936 0.0513,-0.1285 0.0868,-0.29465 0.10737,-0.49843 0.0307,-0.21439 0.0462,-0.47701 0.0462,-0.78785 0,-0.31083 -0.0147,-0.56811 -0.0462,-0.77177 -0.0204,-0.21439 -0.0564,-0.38588 -0.10737,-0.51454 -0.051,-0.1285 -0.1176,-0.21967 -0.19934,-0.27349 -0.0715,-0.0644 -0.15341,-0.0965 -0.24535,-0.0965 h -7.14601 v -5.86867 h 5.99591 c 0.092,0 0.1739,-0.0281 0.24534,-0.0802 0.0817,-0.0535 0.14829,-0.1394 0.19936,-0.25732 0.0511,-0.1285 0.087,-0.29466 0.10736,-0.49845 0.0307,-0.20349 0.0459,-0.46095 0.0459,-0.77178 0,-0.30025 -0.0146,-0.55206 -0.0459,-0.75569 -0.0204,-0.21438 -0.0564,-0.3805 -0.10736,-0.49842 -0.051,-0.1285 -0.11761,-0.22122 -0.19936,-0.27505 -0.0715,-0.0644 -0.15342,-0.0965 -0.24534,-0.0965 h -5.99591 z m -104.313376,2.27191 -3.836768,1.96963 c 0.119017,0.64364 0.245353,1.28276 0.245353,2.00015 0,1.20053 -0.127775,2.251 -0.383372,3.1514 -0.24535,0.90042 -0.623614,1.65611 -1.134777,2.26709 -0.500935,0.60027 -1.129653,1.05047 -1.886179,1.35058 -0.756513,0.30026 -1.686826,0.45023 -2.790933,0.45023 h -2.100861 v -5.08567 l -4.017717,2.06289 v 5.03258 c 0,0.47165 0.112438,0.81465 0.337365,1.02902 0.235113,0.2038 0.521391,0.30555 0.85875,0.30555 h 4.738454 c 1.758386,0 3.271423,-0.1982 4.539099,-0.59493 1.277905,-0.40731 2.361553,-1.03974 3.25098,-1.89726 0.889415,-0.85753 1.569256,-1.96158 2.039527,-3.31217 0.480491,-1.36133 0.720736,-2.99599 0.720736,-4.90399 0,-1.4491 -0.240869,-2.68158 -0.579657,-3.82507 z m 32.93149,0.0249 -4.555971,2.33942 -2.404495,8.10195 h -0.01535 l -1.788038,-5.941 -3.554608,1.82492 2.367692,7.39611 c 0.04089,0.13939 0.0818,0.25731 0.122673,0.35374 0.05113,0.0859 0.117581,0.16116 0.199353,0.22526 0.09199,0.0644 0.199355,0.11792 0.322028,0.16087 0.132918,0.0429 0.301585,0.075 0.506049,0.0965 0.204459,0.0218 0.449817,0.0321 0.73607,0.0321 0.296482,0.01 0.649178,0.0155 1.058105,0.0155 0.511158,0 0.925202,-0.01 1.242118,-0.0321 0.316923,-0.01 0.567387,-0.0429 0.751405,-0.0965 0.184011,-0.0644 0.316916,-0.14997 0.398704,-0.25731 0.0818,-0.11792 0.14822,-0.26789 0.199354,-0.45022 z m 63.259046,1.87474 -8.04158,4.12895 h 0.16401 c 0.42938,0 0.80765,0.0698 1.13479,0.20908 0.32716,0.1394 0.61339,0.35002 0.85874,0.62871 0.2556,0.26788 0.4856,0.60401 0.69008,1.01131 0.20443,0.40732 0.41403,0.8752 0.62871,1.40044 l 1.77885,4.64671 c 0.041,0.1285 0.092,0.24113 0.1534,0.33765 0.0615,0.0859 0.16348,0.1593 0.3067,0.22339 0.15343,0.0535 0.35785,0.0912 0.61341,0.11262 0.25558,0.0219 0.59807,0.0321 1.02742,0.0321 0.51117,0 0.91497,-0.01 1.21145,-0.0321 0.29648,-0.0218 0.52137,-0.0588 0.67473,-0.11262 0.15342,-0.0535 0.25049,-0.11792 0.29139,-0.19291 0.041,-0.0859 0.0612,-0.18761 0.0612,-0.30553 0,-0.10734 -0.0257,-0.25203 -0.0766,-0.43414 -0.0511,-0.1929 -0.15341,-0.4931 -0.30669,-0.90039 l -1.67151,-4.10004 c -0.19426,-0.49307 -0.39359,-0.93259 -0.59806,-1.31843 -0.20445,-0.3966 -0.42426,-0.74498 -0.6594,-1.0451 -0.22489,-0.31084 -0.47026,-0.57346 -0.73608,-0.78788 -0.25558,-0.21437 -0.53159,-0.39654 -0.82807,-0.54667 0.61339,-0.20348 1.16034,-0.47162 1.64082,-0.80392 0.4805,-0.33229 0.88431,-0.72348 1.21146,-1.17374 0.20936,-0.28811 0.32842,-0.64119 0.4708,-0.97756 z m -35.0277,0.45503 -4.14037,2.12558 -1.30499,5.95389 h -0.0307 l -1.11024,-4.69816 -3.39512,1.74289 1.43839,5.97802 c 0.0512,0.25731 0.12269,0.4663 0.2147,0.62706 0.0921,0.14997 0.24025,0.26789 0.44471,0.35373 0.20447,0.075 0.48049,0.12322 0.82808,0.14469 0.35783,0.032 0.82808,0.0483 1.41081,0.0483 0.52138,0 0.95076,-0.0155 1.28813,-0.0483 0.33737,-0.0218 0.61338,-0.0697 0.82808,-0.14469 0.21468,-0.0859 0.37313,-0.20379 0.47537,-0.35373 0.11243,-0.16086 0.19935,-0.36978 0.26069,-0.62706 z m 25.89276,4.23507 -4.03305,2.07094 v 5.29464 c 0,0.10703 0.0307,0.20381 0.092,0.28937 0.0614,0.0859 0.16859,0.15525 0.32203,0.20909 0.1534,0.0535 0.35778,0.0965 0.61337,0.12849 0.26579,0.0321 0.59295,0.0483 0.98145,0.0483 0.39868,0 0.72584,-0.0155 0.98141,-0.0483 0.25558,-0.0321 0.46005,-0.075 0.61338,-0.12849 0.15343,-0.0535 0.2607,-0.12322 0.32202,-0.20909 0.0715,-0.0859 0.10737,-0.18234 0.10737,-0.28937 z m -39.73547,2.87165 -6.788712,3.48581 0.127269,0.50969 c 0.06133,0.25731 0.138055,0.4663 0.230038,0.62706 0.09202,0.14997 0.240247,0.26789 0.444711,0.35373 0.204457,0.075 0.480485,0.12322 0.828077,0.14469 0.357814,0.032 0.833197,0.0483 1.426138,0.0483 0.562281,0 1.012095,-0.0155 1.349462,-0.0483 0.347582,-0.0218 0.618508,-0.075 0.812745,-0.16087 0.204457,-0.0859 0.352698,-0.20347 0.44471,-0.35372 0.09198,-0.16087 0.163563,-0.36444 0.214696,-0.61099 z m 32.27049,0.96149 -3.71409,1.90689 0.52446,1.64165 c 0.041,0.13938 0.092,0.25202 0.15335,0.33764 0.0612,0.0859 0.16867,0.15681 0.32204,0.21063 0.15335,0.0429 0.37312,0.0681 0.65939,0.0787 0.29649,0.0218 0.70541,0.0321 1.22679,0.0321 0.50094,0 0.89453,-0.0154 1.18077,-0.0483 0.28628,-0.0218 0.48561,-0.0859 0.59807,-0.19289 0.11243,-0.11794 0.15335,-0.28936 0.12265,-0.51454 -0.0307,-0.22495 -0.10737,-0.53058 -0.23,-0.91646 z m -68.465215,0.79909 -6.451353,3.31221 h 9.427838 c 0.09199,0 0.173801,-0.0281 0.24535,-0.0787 0.0818,-0.0644 0.148223,-0.16086 0.199355,-0.28935 0.05112,-0.12851 0.08691,-0.29465 0.107333,-0.49845 0.03064,-0.21437 0.046,-0.47701 0.046,-0.78783 0,-0.31082 -0.01535,-0.56812 -0.046,-0.77178 -0.02048,-0.21438 -0.05623,-0.38588 -0.107333,-0.51453 -0.05111,-0.1285 -0.117581,-0.22123 -0.199355,-0.27506 -0.07156,-0.0644 -0.153359,-0.0949 -0.24535,-0.0949 z"
       id="path1034"
       inkscape:connector-curvature="0" />
  </g>
</svg>
