<?xml version="1.0" encoding="UTF-8" standalone="no"?>
<!-- Created with Inkscape (http://www.inkscape.org/) -->

<svg
   xmlns:dc="http://purl.org/dc/elements/1.1/"
   xmlns:cc="http://creativecommons.org/ns#"
   xmlns:rdf="http://www.w3.org/1999/02/22-rdf-syntax-ns#"
   xmlns:svg="http://www.w3.org/2000/svg"
   xmlns="http://www.w3.org/2000/svg"
   xmlns:sodipodi="http://sodipodi.sourceforge.net/DTD/sodipodi-0.dtd"
   xmlns:inkscape="http://www.inkscape.org/namespaces/inkscape"
   width="200"
   height="200"
   viewBox="0 0 52.916665 52.916668"
   version="1.1"
   id="svg8"
   inkscape:version="0.92.1 r15371"
   sodipodi:docname="port2.svg">
  <defs
     id="defs2" />
  <sodipodi:namedview
     id="base"
     pagecolor="#ffffff"
     bordercolor="#666666"
     borderopacity="1.0"
     inkscape:pageopacity="0.0"
     inkscape:pageshadow="2"
     inkscape:zoom="2.58"
     inkscape:cx="100"
     inkscape:cy="100"
     inkscape:document-units="mm"
     inkscape:current-layer="layer1"
     showgrid="false"
     units="px"
     showborder="false"
     inkscape:pagecheckerboard="true"
     inkscape:window-width="1024"
     inkscape:window-height="715"
     inkscape:window-x="-8"
     inkscape:window-y="-8"
     inkscape:window-maximized="1" />
  <metadata
     id="metadata5">
    <rdf:RDF>
      <cc:Work
         rdf:about="">
        <dc:format>image/svg+xml</dc:format>
        <dc:type
           rdf:resource="http://purl.org/dc/dcmitype/StillImage" />
        <dc:title></dc:title>
      </cc:Work>
    </rdf:RDF>
  </metadata>
  <g
     inkscape:label="Layer 1"
     inkscape:groupmode="layer"
     id="layer1"
     transform="translate(0,-244.08332)">
    <rect
       style="opacity:1;fill:#ffffff;fill-opacity:1;fill-rule:nonzero;stroke:none;stroke-width:1.77365327;stroke-miterlimit:4;stroke-dasharray:none;stroke-opacity:0"
       id="rect162"
       width="52.916668"
       height="52.916668"
       x="0"
       y="244.08331" />
    <g
       transform="matrix(0.95477394,0,0,0.81632644,1.196608,31.50799)"
       id="layer1-4"
       inkscape:label="Layer 1">
      <path
         inkscape:connector-curvature="0"
         id="path29"
         d="m 2.4118872,294.57673 c -0.2951519,-0.0694 -0.4855595,-0.22155 -0.6064296,-0.48478 -0.2168542,-0.47227 -0.092304,-0.97113 0.2914528,-1.16735 0.2451012,-0.12533 0.4140366,-0.11261 0.7332067,0.0552 0.327037,0.17194 0.5664612,0.1813 0.8856324,0.0347 0.6486078,-0.29804 1.3849514,-1.55078 1.3896978,-2.36429 0.00182,-0.31288 -0.025356,-0.41771 -0.1670661,-0.64435 -0.2921885,-0.46731 -0.8585144,-0.7556 -1.3312777,-0.6777 -0.1338447,0.0221 -0.3923372,0.11646 -0.5744286,0.20979 -0.2421293,0.1241 -0.3736585,0.15912 -0.4895813,0.13036 -0.2117128,-0.0525 -0.3815177,-0.3414 -0.3817896,-0.64946 -4.747e-4,-0.53816 0.3081033,-0.8989 0.8202243,-0.95887 0.3461172,-0.0405 0.5563091,-0.19707 1.1354053,-0.84556 0.6901261,-0.77282 0.7737508,-1.30422 0.2287913,-1.45387 -0.2935763,-0.0806 -0.4096757,-0.0768 -0.9404485,0.0308 -0.7340417,0.14889 -1.5174561,0.5902 -1.7234892,0.97086 -0.040155,0.0742 -0.085647,0.64536 -0.1129875,1.41863 -0.025172,0.71195 -0.075994,1.59789 -0.112937,1.96878 -0.036943,0.37088 -0.085762,1.23057 -0.1084854,1.91042 -0.037398,1.11884 -0.052739,1.25133 -0.1617467,1.39697 -0.2623238,0.35047 -0.62225033,0.37961 -0.85585339,0.0693 -0.22309575,-0.29635 -0.25126529,-0.83927 -0.11429317,-2.20281 0.20664286,-2.05709 0.31724667,-3.70767 0.28550147,-4.26064 -0.0354263,-0.61709 0.0339312,-1.05275 0.22783359,-1.43111 0.1207211,-0.23556 0.1774775,-0.28515 0.390751,-0.34138 0.1372336,-0.0362 0.6191151,-0.23451 1.0708479,-0.44072 0.9227314,-0.42123 1.3448288,-0.54013 1.9219704,-0.54138 0.9731351,-0.002 1.5889785,0.70483 1.5911164,1.82644 9.758e-4,0.5153 -0.1923661,0.96161 -0.7131666,1.64622 -0.2033553,0.26731 -0.3621289,0.49078 -0.3528301,0.49658 0.0093,0.006 0.1551829,0.0963 0.3241874,0.20116 0.4059611,0.25184 0.8488032,0.73851 1.0475533,1.15124 0.2058447,0.42746 0.2486706,1.02428 0.117582,1.63862 -0.1693459,0.79365 -0.8975014,2.09097 -1.4373325,2.56082 -0.3412378,0.29701 -1.0032786,0.61123 -1.5126269,0.71795 -0.440257,0.0922 -0.489629,0.0941 -0.7649842,0.0295 z"
         style="opacity:1;fill:#ff6600;fill-opacity:1;fill-rule:nonzero;stroke:none;stroke-width:0.10671543;stroke-miterlimit:4;stroke-dasharray:none;stroke-opacity:0" />
      <path
         inkscape:connector-curvature="0"
         id="path31"
         d="m 14.781636,294.1359 c -0.06524,-0.082 -0.139755,-0.27126 -0.165591,-0.42057 -0.05611,-0.32427 -0.04,-1.96881 0.02668,-2.72236 0.02611,-0.29512 0.03342,-0.53549 0.01625,-0.53415 -0.01718,9.8e-4 -0.202834,0.26678 -0.412567,0.58986 -0.471439,0.72622 -1.107414,1.39007 -1.493502,1.55894 -0.327188,0.1431 -0.641383,0.1203 -0.951221,-0.0691 -0.348573,-0.21301 -0.643703,-1.02255 -0.663921,-1.82114 -0.0016,-0.0639 -0.130622,0.12179 -0.28668,0.41245 -0.520199,0.96887 -1.084868,1.63708 -1.6858149,1.99494 -0.2896102,0.17245 -0.3943096,0.20301 -0.6952383,0.20293 -0.6030647,-1.4e-4 -0.9081426,-0.34361 -1.0397331,-1.17054 -0.157641,-0.99063 0.2247482,-3.64603 0.5811156,-4.0354 0.1735897,-0.18966 0.5013403,-0.12025 0.6345047,0.13437 0.1174363,0.22455 0.108734,0.40312 -0.056817,1.1659 -0.2705845,1.24671 -0.3338809,2.35329 -0.1473234,2.57556 0.093792,0.11175 0.4063674,0.10507 0.5849162,-0.0125 0.6103652,-0.40191 1.4059722,-1.51235 1.8395912,-2.56753 0.141988,-0.34552 0.338307,-1.06322 0.449901,-1.64472 0.08354,-0.43536 0.284873,-0.68104 0.558087,-0.68104 0.147903,0 0.223651,0.0376 0.296011,0.14676 0.108151,0.16321 0.103676,0.27499 -0.06728,1.68053 -0.173015,1.42249 -0.07466,2.3431 0.269788,2.52538 0.284998,0.15082 0.843164,-0.31328 1.452745,-1.20791 0.407613,-0.59822 1.060223,-1.74718 1.122689,-1.97656 0.146272,-0.53713 0.501259,-0.6897 0.796763,-0.34245 0.154617,0.18169 0.158648,0.20422 0.127155,0.71062 -0.01789,0.28763 -0.100509,0.92758 -0.183602,1.42211 -0.08309,0.49453 -0.160704,0.95788 -0.172471,1.02966 -0.04193,0.25582 0.0529,0.12433 0.188253,-0.26103 0.206848,-0.58893 0.697727,-1.53259 0.986429,-1.89631 0.320106,-0.40327 0.720153,-0.69828 1.11965,-0.82564 0.29005,-0.0924 0.326673,-0.0923 0.628453,0.002 0.43491,0.13556 0.676879,0.37964 0.676879,0.68277 0,0.12675 -0.04028,0.30747 -0.0895,0.4016 -0.08647,0.16535 -0.103871,0.1712 -0.513332,0.17243 -0.67203,0.002 -1.143178,0.26576 -1.596236,0.89357 -0.561436,0.77798 -0.979011,1.82131 -1.231188,3.07616 -0.11805,0.58743 -0.164587,0.7185 -0.294251,0.82878 -0.209198,0.17793 -0.459549,0.1705 -0.60958,-0.0181 z"
         style="opacity:1;fill:#ff6600;fill-opacity:1;fill-rule:nonzero;stroke:none;stroke-width:0.10671543;stroke-miterlimit:4;stroke-dasharray:none;stroke-opacity:0" />
      <path
         inkscape:connector-curvature="0"
         id="path33"
         d="m 20.535492,296.83632 c -0.802055,-0.16488 -2.10189,-1.21049 -2.217919,-1.78413 -0.02975,-0.1471 -0.01,-0.19301 0.11965,-0.27695 0.194377,-0.12593 0.270571,-0.0947 0.9067,0.37167 0.738293,0.54128 1.525888,0.77233 1.929387,0.56601 0.342282,-0.17502 0.595766,-0.7756 0.712857,-1.68896 0.07441,-0.5805 0.247718,-2.82406 0.220238,-2.85123 -0.01118,-0.011 -0.104874,0.1089 -0.208203,0.26658 -0.263656,0.40233 -0.898056,0.95856 -1.336947,1.1722 -0.296343,0.14425 -0.419388,0.17427 -0.610529,0.14892 -0.378518,-0.0502 -0.687017,-0.28895 -0.862163,-0.66724 -0.147014,-0.31752 -0.149377,-0.34107 -0.0811,-0.80804 0.12484,-0.85377 0.573546,-1.92351 1.219008,-2.90621 0.405678,-0.61762 0.765346,-0.9956 1.248671,-1.31221 0.708547,-0.46414 1.06534,-0.45779 1.541369,0.0274 0.364187,0.37121 0.453236,0.67003 0.31541,1.05844 -0.155286,0.43761 -0.256169,1.49305 -0.325555,3.40597 -0.09616,2.65105 -0.194589,3.38143 -0.558099,4.14122 -0.19669,0.41111 -0.610857,0.86474 -0.925839,1.01407 -0.300383,0.14241 -0.745821,0.1926 -1.08694,0.12247 z m 0.317795,-5.45705 c 0.582836,-0.44461 1.188661,-1.25538 1.370635,-1.8343 0.148595,-0.47275 0.314173,-1.64472 0.242395,-1.71569 -0.09965,-0.0986 -0.490886,0.084 -0.768186,0.35831 -0.517222,0.51173 -1.150107,1.61112 -1.463638,2.54251 -0.120837,0.35896 -0.160951,0.82806 -0.07784,0.91024 0.08643,0.0854 0.392957,-0.0294 0.696632,-0.26107 z"
         style="opacity:1;fill:#ff6600;fill-opacity:1;fill-rule:nonzero;stroke:none;stroke-width:0.10671543;stroke-miterlimit:4;stroke-dasharray:none;stroke-opacity:0" />
      <path
         inkscape:connector-curvature="0"
         id="path35"
         d="m 30.127577,294.5159 c -0.266769,-0.20749 -0.306406,-0.57447 -0.230767,-2.13658 0.03654,-0.75451 0.04793,-1.55458 0.02535,-1.77792 l -0.04109,-0.40606 -0.194509,0.33275 c -0.523737,0.89598 -1.466944,2.03262 -2.115424,2.54923 -0.595771,0.47464 -0.987509,0.64934 -1.456014,0.64934 -0.718013,0 -1.274111,-0.43923 -1.522058,-1.20218 -0.143847,-0.4426 -0.177501,-1.94069 -0.05885,-2.61919 0.311525,-1.78142 1.25471,-3.28274 2.123148,-3.37954 0.207679,-0.0232 0.271441,-9.9e-4 0.449448,0.15312 0.584323,0.5073 0.660374,1.63393 0.181609,2.69039 -0.197703,0.43626 -0.893398,1.37688 -1.413478,1.91111 -0.362591,0.37245 -0.376876,0.39804 -0.337617,0.60497 0.02457,0.12948 0.119076,0.29327 0.235833,0.40871 0.168358,0.16648 0.234433,0.19266 0.486157,0.19266 0.459194,0 1.043375,-0.32015 1.59426,-0.87372 0.593511,-0.59641 2.056817,-2.45442 2.056817,-2.61162 0,-0.17699 0.171088,-0.50732 0.314035,-0.60633 0.303563,-0.21024 0.69159,0.0255 0.776238,0.47173 0.03571,0.1882 0.0087,0.85727 -0.07002,1.73463 l -0.03123,0.34806 0.351896,-0.69611 c 0.538646,-1.06554 1.106066,-1.66656 1.730275,-1.83276 0.506448,-0.13484 0.976794,0.13875 0.976794,0.56819 0,0.32391 -0.118784,0.44739 -0.62995,0.65487 -0.25046,0.10165 -0.551827,0.2465 -0.6697,0.32186 -0.453293,0.28983 -1.086454,1.28803 -1.401742,2.2099 -0.177827,0.51995 -0.407938,1.53673 -0.407938,1.80254 0,0.22017 -0.164444,0.51526 -0.328253,0.58907 -0.195442,0.088 -0.21808,0.0851 -0.393218,-0.0512 z m -4.221753,-4.44096 c 0.170576,-0.22092 0.421162,-0.62302 0.556857,-0.89355 0.201702,-0.40212 0.247051,-0.55254 0.248546,-0.82443 0.0021,-0.38347 -0.126613,-0.58408 -0.307273,-0.47889 -0.149516,0.087 -0.574183,0.96368 -0.712497,1.47077 -0.159671,0.5854 -0.241025,1.17564 -0.15828,1.14838 0.03438,-0.0113 0.202071,-0.20137 0.372647,-0.42228 z"
         style="opacity:1;fill:#ff6600;fill-opacity:1;fill-rule:nonzero;stroke:none;stroke-width:0.10671543;stroke-miterlimit:4;stroke-dasharray:none;stroke-opacity:0" />
      <path
         inkscape:connector-curvature="0"
         id="path37"
         d="m 40.265037,293.98325 c -0.681349,-0.23441 -0.954174,-1.13352 -0.847125,-2.79176 0.02505,-0.38823 0.03804,-0.71332 0.02885,-0.72241 -0.0092,-0.009 -0.126853,0.16678 -0.261466,0.39083 -0.630394,1.04923 -1.349002,1.80456 -2.078282,2.18452 -0.371538,0.19356 -0.479872,0.222 -0.928038,0.2436 -0.470002,0.0227 -0.529813,0.0124 -0.81152,-0.13923 -0.348727,-0.18767 -0.532481,-0.38407 -0.742188,-0.79327 -0.960658,-1.87454 0.449156,-5.84416 2.084283,-5.86873 0.576345,-0.009 0.916543,0.49922 0.910432,1.35916 -0.0065,0.91811 -0.389889,1.59886 -1.528022,2.71333 -0.659429,0.64572 -0.723547,0.72672 -0.688786,0.87014 0.119425,0.49268 0.380383,0.67729 0.90444,0.6398 1.02226,-0.0731 2.059564,-1.14531 3.047564,-3.15009 0.359342,-0.72915 0.410399,-0.87733 0.499703,-1.45024 0.231505,-1.4852 0.679657,-2.83531 1.040914,-3.13588 0.277934,-0.23124 0.422658,-0.16164 0.516189,0.24828 0.04015,0.17594 -0.0067,0.46523 -0.23753,1.46637 -0.553773,2.40195 -0.769862,3.87297 -0.783976,5.33687 -0.0069,0.71026 0.0083,0.87085 0.09737,1.03215 0.31343,0.56764 0.950283,0.2156 1.96988,-1.08888 0.226039,-0.2892 0.509257,-0.68578 0.629372,-0.8813 0.200665,-0.32663 0.222434,-0.40539 0.26821,-0.97043 0.0274,-0.33822 0.128249,-1.24145 0.224111,-2.00718 0.09586,-0.76572 0.214652,-1.7253 0.263981,-2.13239 0.04933,-0.40708 0.13204,-0.84482 0.183804,-0.97273 0.184164,-0.45513 0.600543,-0.6021 0.875294,-0.30895 0.17359,0.18521 0.175562,0.26296 0.02921,1.15171 -0.3516,2.13513 -0.511809,3.37954 -0.586451,4.55513 -0.06123,0.96438 -0.0069,1.82927 0.135835,2.16042 0.203521,0.47234 0.626772,0.59397 1.104194,0.31732 0.684969,-0.39693 1.6371,-1.62862 2.11545,-2.73661 0.344139,-0.79711 0.936855,-1.64195 1.413555,-2.01483 0.289948,-0.2268 0.48214,-0.27095 0.693245,-0.15923 0.08646,0.0457 0.164075,0.0443 0.28515,-0.005 0.334422,-0.13696 0.551991,0.0669 0.789859,0.7401 l 0.139187,0.39392 -0.118209,0.81092 c -0.225696,1.54831 -0.0098,3.08051 0.450212,3.19466 0.33415,0.0829 0.643452,-0.0925 0.938919,-0.53271 0.212755,-0.31694 0.391857,-0.403 0.462087,-0.22203 0.19283,0.49688 -0.594293,1.69167 -1.240609,1.88313 -0.690681,0.20462 -1.240287,-0.36621 -1.440657,-1.49631 -0.03535,-0.1994 -0.07872,-0.36195 -0.09637,-0.36121 -0.01764,7.3e-4 -0.137684,0.1872 -0.26675,0.41436 -0.273693,0.48169 -0.884988,1.15841 -1.258151,1.39279 -0.379239,0.2382 -0.748313,0.23024 -1.003035,-0.0217 -0.235575,-0.23293 -0.397169,-0.60097 -0.446653,-1.01728 l -0.03834,-0.3226 -0.120757,0.16807 c -0.283665,0.39481 -0.886206,0.94978 -1.228629,1.13162 -0.996632,0.52929 -1.932793,-0.0758 -2.20874,-1.42762 -0.03908,-0.19144 -0.08342,-0.41044 -0.09854,-0.48669 -0.02386,-0.12036 -0.07066,-0.0745 -0.354972,0.34806 -0.714496,1.06186 -1.370571,1.74865 -1.905787,1.99502 -0.33544,0.15441 -0.504301,0.17066 -0.781712,0.0752 z m 8.377591,-1.80108 c 0.778279,-0.90696 1.33173,-2.23986 1.33173,-3.20727 0,-0.58825 -0.0741,-0.72067 -0.34189,-0.61099 -0.253849,0.10397 -0.437845,0.36558 -0.836076,1.18875 -0.623119,1.28805 -0.919219,2.41352 -0.745204,2.83253 0.08269,0.1991 0.314717,0.11945 0.59144,-0.20302 z m -12.810796,-2.50891 c 0.832094,-0.96648 1.060316,-1.45023 0.874459,-1.85357 -0.249625,-0.54172 -0.969064,0.51484 -1.254839,1.84286 -0.04679,0.21744 -0.08508,0.4067 -0.08508,0.42057 0,0.0917 0.138806,-0.0304 0.465454,-0.40986 z"
         style="opacity:1;fill:#668000;fill-opacity:1;fill-rule:nonzero;stroke:none;stroke-width:0.10671543;stroke-miterlimit:4;stroke-dasharray:none;stroke-opacity:0" />
    </g>
    <text
       xml:space="preserve"
       style="font-style:normal;font-variant:normal;font-weight:bold;font-stretch:normal;font-size:3.87660766px;line-height:1.25;font-family:Arial;-inkscape-font-specification:'Arial, Bold';font-variant-ligatures:normal;font-variant-caps:normal;font-variant-numeric:normal;font-feature-settings:normal;text-align:center;letter-spacing:0px;word-spacing:0px;writing-mode:lr-tb;text-anchor:middle;fill:#ff0066;fill-opacity:1;stroke:none;stroke-width:0.20767538;"
       x="24.496441"
       y="301.26611"
       id="text993"
       transform="scale(1.0845725,0.92202227)"><tspan
         sodipodi:role="line"
         id="tspan991"
         x="24.496441"
         y="301.26611"
         style="font-style:normal;font-variant:normal;font-weight:bold;font-stretch:normal;font-size:3.87660766px;font-family:Arial;-inkscape-font-specification:'Arial, Bold';font-variant-ligatures:normal;font-variant-caps:normal;font-variant-numeric:normal;font-feature-settings:normal;text-align:center;writing-mode:lr-tb;text-anchor:middle;fill:#ff0066;stroke-width:0.20767538;">PASTRY SHOP</tspan></text>
  </g>
</svg>
