<?xml version="1.0" encoding="UTF-8" standalone="no"?>
<!-- Created with Inkscape (http://www.inkscape.org/) -->

<svg
   xmlns:dc="http://purl.org/dc/elements/1.1/"
   xmlns:cc="http://creativecommons.org/ns#"
   xmlns:rdf="http://www.w3.org/1999/02/22-rdf-syntax-ns#"
   xmlns:svg="http://www.w3.org/2000/svg"
   xmlns="http://www.w3.org/2000/svg"
   xmlns:sodipodi="http://sodipodi.sourceforge.net/DTD/sodipodi-0.dtd"
   xmlns:inkscape="http://www.inkscape.org/namespaces/inkscape"
   width="200"
   height="200"
   viewBox="0 0 52.916665 52.916668"
   version="1.1"
   id="svg8"
   inkscape:version="0.92.1 r15371"
   sodipodi:docname="port1.svg">
  <defs
     id="defs2" />
  <sodipodi:namedview
     id="base"
     pagecolor="#ffffff"
     bordercolor="#666666"
     borderopacity="1.0"
     inkscape:pageopacity="0.0"
     inkscape:pageshadow="2"
     inkscape:zoom="2.58"
     inkscape:cx="100"
     inkscape:cy="100"
     inkscape:document-units="mm"
     inkscape:current-layer="layer1"
     showgrid="false"
     units="px"
     showborder="false"
     inkscape:pagecheckerboard="true"
     inkscape:window-width="1024"
     inkscape:window-height="715"
     inkscape:window-x="-8"
     inkscape:window-y="-8"
     inkscape:window-maximized="1" />
  <metadata
     id="metadata5">
    <rdf:RDF>
      <cc:Work
         rdf:about="">
        <dc:format>image/svg+xml</dc:format>
        <dc:type
           rdf:resource="http://purl.org/dc/dcmitype/StillImage" />
        <dc:title></dc:title>
      </cc:Work>
    </rdf:RDF>
  </metadata>
  <g
     inkscape:label="Layer 1"
     inkscape:groupmode="layer"
     id="layer1"
     transform="translate(0,-244.08332)">
    <rect
       style="opacity:1;fill:#ffffff;fill-opacity:1;fill-rule:nonzero;stroke:none;stroke-width:1.77365327;stroke-miterlimit:4;stroke-dasharray:none;stroke-opacity:0"
       id="rect162"
       width="52.916668"
       height="52.916668"
       x="0"
       y="244.08331" />
    <g
       inkscape:label="Layer 1"
       id="g160"
       transform="matrix(1,0,0,0.99619287,1.3229168,-24.055066)">
      <path
         style="opacity:1;fill:#4d4d4d;fill-opacity:1;fill-rule:nonzero;stroke:none;stroke-width:0.06081105;stroke-miterlimit:4;stroke-dasharray:none;stroke-opacity:1"
         d="m 36.498999,294.77198 c -0.100197,-0.0386 -0.146826,-0.073 -0.130024,-0.0959 0.0163,-0.0223 0.01056,-0.0277 -0.01524,-0.0142 -0.05413,0.0283 -0.234604,-0.12423 -0.201152,-0.16997 0.01543,-0.021 0.0097,-0.0267 -0.01441,-0.0141 -0.02532,0.0133 -0.06081,-0.0382 -0.09657,-0.13997 -0.05025,-0.14299 -0.0565,-0.70311 -0.05616,-5.03688 2.33e-4,-4.33587 0.0067,-4.89386 0.057,-5.03714 0.05073,-0.14435 0.063,-0.15693 0.117738,-0.12072 0.05571,0.0368 0.05643,0.0353 0.0082,-0.0165 -0.04852,-0.0521 -0.0395,-0.0668 0.107894,-0.17625 0.08846,-0.0656 0.182295,-0.11243 0.208516,-0.10393 0.02622,0.009 0.03888,0.004 0.02813,-0.0113 -0.01075,-0.0147 0.01689,-0.035 0.06141,-0.0451 0.04453,-0.01 3.011095,-0.0185 6.592364,-0.0187 l 6.511405,-4.9e-4 0.163327,0.0876 c 0.365192,0.1957 0.429452,0.36062 0.429444,1.10215 l -5e-6,0.53686 -6.153775,0.008 c -3.384579,0.004 -6.159264,0.0122 -6.165968,0.0179 -0.0085,0.007 -0.02015,6.98934 -0.01256,7.53002 5.17e-4,0.0304 1.258104,0.0382 6.166423,0.0382 h 6.165886 v 0.51799 c 0,0.5283 -0.04584,0.84401 -0.117132,0.80678 -0.02312,-0.0121 -0.02813,-0.006 -0.01243,0.0157 0.03248,0.0444 -0.11631,0.19773 -0.296628,0.30566 l -0.134338,0.0804 -6.527523,0.007 c -6.42245,0.007 -6.530042,0.006 -6.683748,-0.053 z"
         id="path88"
         inkscape:connector-curvature="0" />
      <path
         style="opacity:1;fill:#ff7f2a;fill-opacity:1;fill-rule:nonzero;stroke:none;stroke-width:0.09446909;stroke-miterlimit:4;stroke-dasharray:none;stroke-opacity:1"
         d="m 35.876623,283.77096 h -9.110696 l -0.383539,0.10063 c -0.210989,0.0553 -0.396176,0.11679 -0.411573,0.13655 -0.0154,0.0198 -0.138468,0.0837 -0.273404,0.1419 -0.134935,0.0582 -0.305677,0.15744 -0.379534,0.22035 -0.07386,0.0629 -0.152589,0.10926 -0.174883,0.10301 -0.04326,-0.0122 -0.632455,0.49621 -0.828888,0.71518 -0.356318,0.39721 -0.678922,1.16284 -0.771217,1.83036 -0.05459,0.39482 0.169113,1.29914 0.429462,1.73598 0.156125,0.26195 0.54347,0.76574 0.54347,0.70687 0,-0.0208 0.05664,0.0265 0.125889,0.10517 0.165789,0.18839 0.578337,0.5016 0.638253,0.4846 0.02598,-0.008 0.05936,0.008 0.07409,0.0344 0.02651,0.0471 0.373886,0.26208 0.423589,0.26208 0.01417,0 0.157899,0.0587 0.319327,0.13052 l 0.293563,0.13053 2.662215,0.0243 2.662349,0.0245 0.177819,0.14292 c 0.207972,0.16721 0.283876,0.3379 0.296766,0.66766 0.01328,0.34003 -0.183652,0.61952 -0.549479,0.77998 -0.08819,0.0387 -1.712748,0.0537 -5.83359,0.0537 -3.827112,0 -5.711441,0.0159 -5.711441,0.0483 0,0.0927 0.358082,0.59772 0.692321,0.97635 0.440024,0.49847 1.20633,1.14396 1.594498,1.34303 l 0.308647,0.15816 h 4.876277 4.876147 l 0.486464,-0.20955 c 1.196932,-0.51588 1.921402,-1.28443 2.246637,-2.38305 0.175404,-0.59253 0.177269,-0.98349 0.0075,-1.55872 -0.132221,-0.44796 -0.454319,-1.09119 -0.546408,-1.09119 -0.02687,0 -0.04886,-0.0235 -0.04886,-0.0521 0,-0.065 -0.220731,-0.30796 -0.270869,-0.29823 -0.02028,0.004 -0.0313,-0.0102 -0.02457,-0.0314 0.01548,-0.0485 -0.507387,-0.48704 -0.767746,-0.64389 -0.10772,-0.0649 -0.30912,-0.16401 -0.447619,-0.22024 -0.138495,-0.0562 -0.268254,-0.12378 -0.288223,-0.15009 -0.01997,-0.0263 -0.07499,-0.0351 -0.122285,-0.0197 -0.04728,0.0155 -0.09391,0.008 -0.103726,-0.0175 -0.04062,-0.10381 -0.814211,-0.13918 -3.050026,-0.1394 l -2.361181,-2.2e-4 -0.194904,-0.15487 c -0.280918,-0.22318 -0.383661,-0.54988 -0.273538,-0.8698 0.04512,-0.13107 0.148672,-0.29799 0.23015,-0.37089 0.312013,-0.27915 -0.07815,-0.27349 8.96278,-0.27232 z"
         id="path90"
         inkscape:connector-curvature="0" />
      <path
         style="opacity:1;fill:#ff0066;fill-opacity:1;fill-rule:nonzero;stroke:none;stroke-width:0.09397554;stroke-miterlimit:4;stroke-dasharray:none;stroke-opacity:1"
         d="m 0.0386597,291.462 c 0.021261,-1.85226 0.039225,-3.40489 0.03992,-3.45028 0.00129,-0.078 0.2960252,-0.0825 5.3977354,-0.0825 h 5.3964729 v 1.22623 1.22624 H 7.2063797 3.5399691 l 0.015138,0.95504 0.015138,0.95506 3.651262,0.0122 3.6512629,0.0122 v 1.22589 c 0,0.67425 -0.0063,1.22643 -0.01397,1.22709 -0.0077,7.3e-4 -2.4540693,0.0146 -5.4363909,0.031 L 4.5e-6,294.82977 Z"
         id="path92"
         inkscape:connector-curvature="0" />
      <path
         style="opacity:1;fill:#2b2200;fill-opacity:1;fill-rule:nonzero;stroke:none;stroke-width:0.06051669;stroke-miterlimit:4;stroke-dasharray:none;stroke-opacity:1"
         d="m 41.909136,295.66829 0.01017,-0.802 h 1.206111 1.206111 l 0.01325,0.0681 c 0.0073,0.0374 0.0086,0.39834 0.0029,0.80198 l -0.01031,0.73388 -1.219264,2e-5 -1.219271,2e-5 z"
         id="path94"
         inkscape:connector-curvature="0" />
      <path
         style="opacity:1;fill:#000000;fill-opacity:1;fill-rule:nonzero;stroke:none;stroke-width:0.04479003;stroke-miterlimit:4;stroke-dasharray:none;stroke-opacity:1"
         d="m 40.625892,296.96332 c -0.0096,-0.017 -0.01584,-0.0939 -0.01584,-0.19122 v -0.16049 h 2.517889 2.517887 v 0.15878 c 0,0.0871 -0.0063,0.17671 -0.01393,0.19805 -0.0162,0.0427 -4.982479,0.0427 -5.006055,-0.004 z"
         id="path96"
         inkscape:connector-curvature="0" />
      <path
         style="opacity:1;fill:#501616;fill-opacity:1;fill-rule:nonzero;stroke:none;stroke-width:0.04299989;stroke-miterlimit:4;stroke-dasharray:none;stroke-opacity:1"
         d="m 39.005893,293.02156 c -0.0021,-0.009 -0.0071,-0.0454 -0.01085,-0.081 -0.006,-0.057 -0.01318,-3.40245 -0.0084,-3.91103 10e-4,-0.10696 0.0018,-0.42298 0.0015,-0.70226 -4.3e-5,-0.27929 2.35e-4,-0.52723 10e-4,-0.551 5.16e-4,-0.0238 -10e-4,-0.16962 -0.0033,-0.32412 -0.0023,-0.1545 -0.004,-0.49725 -0.0035,-0.76168 7.76e-4,-0.44438 0.0043,-0.48096 0.04609,-0.48328 0.04177,-0.002 0.04187,-0.003 0.0013,-0.0123 -0.03286,-0.007 -0.0416,-0.0273 -0.03442,-0.0785 0.01674,-0.1194 0.0023,-0.12278 -0.525599,-0.12278 h -0.482729 v -0.20528 -0.20528 l 0.696824,0.003 c 0.383252,9.7e-4 0.783128,0.01 0.888608,0.0178 l 0.191787,0.015 -0.08311,0.0301 c -0.07969,0.0289 -0.11119,0.0639 -0.05753,0.0639 0.01405,0 0.02557,0.0219 0.02557,0.0488 0,0.038 -0.02258,0.0547 -0.101885,0.0757 -0.05603,0.0148 -0.136584,0.0269 -0.179,0.0269 -0.04242,0 -0.07712,0.01 -0.07712,0.0216 0,0.0119 -0.02302,0.0216 -0.05114,0.0216 -0.02813,0 -0.05115,0.01 -0.05115,0.0216 0,0.0119 0.04028,0.0216 0.0895,0.0216 0.04923,0 0.0895,0.01 0.0895,0.0216 0,0.0119 -0.05753,0.0216 -0.127855,0.0216 h -0.127859 v 1.40754 c 0,1.31549 -0.0029,1.40936 -0.04474,1.43538 -0.04262,0.0265 -0.04262,0.0285 0,0.0425 0.04219,0.0138 0.04474,0.1333 0.04474,2.0867 0,2.05764 -2.36e-4,2.07204 -0.05114,2.07204 -0.02813,0 -0.05294,-0.007 -0.05515,-0.0162 z"
         id="path98"
         inkscape:connector-curvature="0" />
      <path
         style="opacity:1;fill:#0088aa;fill-opacity:1;fill-rule:nonzero;stroke:none;stroke-width:0.04299989;stroke-miterlimit:4;stroke-dasharray:none;stroke-opacity:1"
         d="m 38.293893,287.0401 v -0.14193 l 0.204572,0.006 0.204571,0.006 v 0.13603 0.13603 h -0.204571 -0.204572 z"
         id="path100"
         inkscape:connector-curvature="0" />
      <path
         style="opacity:1;fill:#7f2aff;fill-opacity:1;fill-rule:nonzero;stroke:none;stroke-width:0.04299989;stroke-miterlimit:4;stroke-dasharray:none;stroke-opacity:1"
         d="m 38.293893,287.74295 v -0.15212 l 0.207836,0.006 0.207832,0.006 -0.0015,0.12425 c -10e-4,0.0684 -0.0023,0.13397 -0.0032,0.14585 -10e-4,0.0125 -0.0879,0.0216 -0.206169,0.0216 H 38.29412 Z"
         id="path102"
         inkscape:connector-curvature="0" />
      <path
         style="opacity:1;fill:#00d4aa;fill-opacity:1;fill-rule:nonzero;stroke:none;stroke-width:0.04299989;stroke-miterlimit:4;stroke-dasharray:none;stroke-opacity:1"
         d="m 38.293893,288.50011 v -0.15126 h 0.204572 0.204571 v 0.15126 0.15125 h -0.204571 -0.204572 z"
         id="path104"
         inkscape:connector-curvature="0" />
      <path
         style="opacity:1;fill:#ff0066;fill-opacity:1;fill-rule:nonzero;stroke:none;stroke-width:0.04299989;stroke-miterlimit:4;stroke-dasharray:none;stroke-opacity:1"
         d="m 38.293893,289.23931 v -0.13593 l 0.210964,0.006 0.210966,0.006 -0.0044,0.0865 c -0.0023,0.0475 -0.0053,0.10587 -0.0064,0.12964 -0.0018,0.0394 -0.01971,0.0433 -0.20657,0.0433 h -0.204572 z"
         id="path106"
         inkscape:connector-curvature="0" />
      <path
         style="opacity:1;fill:#00ff00;fill-opacity:1;fill-rule:nonzero;stroke:none;stroke-width:0.04299989;stroke-miterlimit:4;stroke-dasharray:none;stroke-opacity:1"
         d="m 38.299117,289.97485 0.0076,-0.14586 0.198178,-0.006 0.198179,-0.006 v 0.15216 0.15217 h -0.205738 -0.20574 z"
         id="path108"
         inkscape:connector-curvature="0" />
      <path
         style="opacity:1;fill:#ffd42a;fill-opacity:1;fill-rule:nonzero;stroke:none;stroke-width:0.04299989;stroke-miterlimit:4;stroke-dasharray:none;stroke-opacity:1"
         d="m 38.293893,290.73653 v -0.14046 h 0.204572 0.204571 v 0.14046 0.14045 h -0.204571 -0.204572 z"
         id="path110"
         inkscape:connector-curvature="0" />
      <path
         style="opacity:1;fill:#c83737;fill-opacity:1;fill-rule:nonzero;stroke:none;stroke-width:0.04299989;stroke-miterlimit:4;stroke-dasharray:none;stroke-opacity:1"
         d="m 38.304495,291.66865 c -0.0074,-0.0162 -0.0099,-0.0867 -0.0056,-0.15666 l 0.0078,-0.12723 0.176469,-0.007 c 0.09852,-0.004 0.18817,0.004 0.202965,0.016 0.03382,0.0285 0.0408,0.24115 0.0091,0.27684 -0.03457,0.0389 -0.372893,0.0368 -0.39071,-0.002 z"
         id="path112"
         inkscape:connector-curvature="0" />
      <path
         style="opacity:1;fill:#aad400;fill-opacity:1;fill-rule:nonzero;stroke:none;stroke-width:0.04299989;stroke-miterlimit:4;stroke-dasharray:none;stroke-opacity:1"
         d="m 40.122256,291.58969 c -0.02813,-0.01 -0.06807,-0.0373 -0.08875,-0.0622 -0.02066,-0.0249 -0.04684,-0.0454 -0.05811,-0.0454 -0.02586,0 -0.275067,-0.21961 -0.275067,-0.2424 0,-0.01 -0.01304,-0.0168 -0.02897,-0.0168 -0.03164,0 -0.124462,-0.0824 -0.124462,-0.1105 0,-0.0239 0.105992,-0.10558 0.136943,-0.10558 0.01375,0 0.018,-0.006 0.0094,-0.0131 -0.01705,-0.0144 0.133139,-0.13809 0.167687,-0.13809 0.01175,0 0.01475,-0.009 0.0067,-0.0201 -0.0081,-0.0111 -0.0037,-0.0258 0.0097,-0.0328 0.01343,-0.007 0.03751,0.005 0.05349,0.0255 0.0277,0.0364 0.0284,0.0364 0.01477,-4.8e-4 -0.01702,-0.0461 0.03439,-0.1234 0.08203,-0.1234 0.01854,0 0.02738,-0.009 0.01966,-0.0192 -0.0078,-0.0106 0.01638,-0.0361 0.05359,-0.0567 0.05666,-0.0314 0.06522,-0.032 0.05262,-0.004 -0.01031,0.0227 0.0048,0.0373 0.04823,0.0466 0.0348,0.008 0.05636,0.0229 0.04794,0.0344 -0.0085,0.0116 0.0013,0.0209 0.02213,0.0209 0.02488,0 0.03298,0.0145 0.0241,0.0433 -0.0074,0.0238 -0.02353,0.0432 -0.03597,0.0432 -0.0124,0 -0.02294,0.017 -0.02341,0.0378 -7.75e-4,0.0338 -0.005,0.0332 -0.041,-0.006 -0.0396,-0.0426 -0.03994,-0.0425 -0.02323,0.005 0.01268,0.036 -0.0015,0.0634 -0.05707,0.10923 -0.04071,0.0336 -0.08902,0.0569 -0.107369,0.0517 -0.01868,-0.005 -0.02596,7.3e-4 -0.01662,0.0135 0.0092,0.0126 0.005,0.029 -0.0092,0.0365 -0.04749,0.0248 -0.02697,0.0742 0.06351,0.15293 0.04923,0.0429 0.0895,0.0868 0.0895,0.0976 0,0.0108 0.01441,0.0173 0.03197,0.0143 0.01759,-0.003 0.03051,0.0109 0.02875,0.0307 -0.0018,0.0211 0.01038,0.0317 0.02966,0.0254 0.01808,-0.006 0.04049,0.01 0.04981,0.0345 0.0093,0.0248 0.02762,0.0396 0.04067,0.0327 0.01304,-0.007 0.02371,-9.8e-4 0.02371,0.0124 0,0.0136 -0.03475,0.0358 -0.07723,0.0494 -0.04388,0.014 -0.07196,0.0362 -0.06505,0.0514 0.01669,0.0367 -0.01385,0.0481 -0.07509,0.0279 z m -0.11507,-0.2062 c 0,-0.0185 -0.0117,-0.0276 -0.02599,-0.0201 -0.01429,0.008 -0.01938,0.0226 -0.01127,0.0337 0.02194,0.03 0.03727,0.0243 0.03727,-0.0135 z m 0,-0.13918 c 0,-0.0119 -0.01149,-0.0216 -0.02557,-0.0216 -0.01405,0 -0.02557,0.01 -0.02557,0.0216 0,0.0119 0.0115,0.0216 0.02557,0.0216 0.01405,0 0.02557,-0.01 0.02557,-0.0216 z"
         id="path114"
         inkscape:connector-curvature="0" />
      <path
         style="opacity:1;fill:#aad400;fill-opacity:1;fill-rule:nonzero;stroke:none;stroke-width:0.04299989;stroke-miterlimit:4;stroke-dasharray:none;stroke-opacity:1"
         d="m 41.055618,291.2119 c 0,-0.0178 0.01149,-0.0324 0.02557,-0.0324 0.01405,0 0.02557,0.0146 0.02557,0.0324 0,0.0178 -0.01149,0.0324 -0.02557,0.0324 -0.01405,0 -0.02557,-0.0146 -0.02557,-0.0324 z"
         id="path116"
         inkscape:connector-curvature="0" />
      <path
         style="opacity:1;fill:#aad400;fill-opacity:1;fill-rule:nonzero;stroke:none;stroke-width:0.04299989;stroke-miterlimit:4;stroke-dasharray:none;stroke-opacity:1"
         d="m 40.748758,291.5269 c -0.09356,-0.0183 -0.100955,-0.12453 -0.01418,-0.20367 0.03592,-0.0327 0.06531,-0.0688 0.06531,-0.0801 0,-0.0113 0.01217,-0.0206 0.02708,-0.0206 0.0149,0 0.01997,-0.01 0.01129,-0.0216 -0.0086,-0.0119 0.0034,-0.0216 0.0268,-0.0216 0.02736,0 0.03733,-0.0116 0.02788,-0.0324 -0.0081,-0.0178 -0.0029,-0.0324 0.01154,-0.0324 0.01444,0 0.01953,-0.01 0.01127,-0.0205 -0.0083,-0.0113 0.0086,-0.0313 0.03756,-0.0443 0.02892,-0.013 0.04582,-0.033 0.03756,-0.0443 -0.0083,-0.0113 -0.0029,-0.0206 0.01206,-0.0206 0.01491,0 0.02527,-0.008 0.02302,-0.0162 -0.008,-0.0317 0.03539,-0.0914 0.05788,-0.0796 0.01258,0.007 0.02289,-0.009 0.02289,-0.0338 0,-0.0269 0.01124,-0.0399 0.02728,-0.0316 0.01638,0.009 0.02405,-0.002 0.01917,-0.0257 -0.0048,-0.0242 0.0052,-0.0376 0.02575,-0.0341 0.01863,0.003 0.02722,-0.003 0.0191,-0.0142 -0.01925,-0.0263 0.0094,-0.0889 0.04078,-0.0889 0.0134,0 0.01602,0.0114 0.0059,0.0252 -0.01237,0.0168 -0.0047,0.0208 0.02333,0.0117 0.02299,-0.008 0.0594,9.7e-4 0.08091,0.0195 0.04307,0.0364 0.05362,0.13798 0.01434,0.13798 -0.01364,0 -0.01886,0.0131 -0.01163,0.0289 0.0072,0.016 -0.0047,0.0414 -0.02637,0.0567 -0.02173,0.0153 -0.03952,0.0411 -0.03952,0.0575 0,0.0164 -0.01725,0.0298 -0.03836,0.0298 -0.02111,0 -0.03836,0.0152 -0.03836,0.0337 0,0.0185 -0.01227,0.0273 -0.02728,0.0195 -0.01501,-0.008 -0.02517,-9.7e-4 -0.02253,0.0149 0.0081,0.0498 -5.16e-4,0.0833 -0.02048,0.0807 -0.06349,-0.009 -0.08791,0.006 -0.0757,0.0458 0.0073,0.0238 0.0023,0.0432 -0.01131,0.0432 -0.01358,0 -0.01752,0.01 -0.0087,0.0217 0.0087,0.012 -0.0021,0.0276 -0.02392,0.0347 -0.02191,0.007 -0.03347,0.0216 -0.02568,0.0322 0.0078,0.0106 0.0013,0.0194 -0.01444,0.0194 -0.0157,0 -0.02193,0.009 -0.01375,0.0203 0.0082,0.0112 -0.0037,0.029 -0.02635,0.0397 -0.02266,0.0107 -0.04016,0.0259 -0.03889,0.0337 0.0013,0.008 -0.0064,0.0158 -0.0169,0.0175 -0.01054,0.002 -0.03069,0.0147 -0.04474,0.0287 -0.01426,0.0141 -0.05387,0.02 -0.0895,0.0129 z"
         id="path118"
         inkscape:connector-curvature="0" />
      <path
         style="opacity:1;fill:#00ff00;fill-opacity:1;fill-rule:nonzero;stroke:none;stroke-width:0.28018731;stroke-miterlimit:4;stroke-dasharray:none;stroke-opacity:1"
         d=""
         id="path120"
         inkscape:connector-curvature="0" />
      <path
         style="opacity:1;fill:#aad400;fill-opacity:1;fill-rule:nonzero;stroke:none;stroke-width:0.04299989;stroke-miterlimit:4;stroke-dasharray:none;stroke-opacity:1"
         d="m 41.851528,291.55307 c -0.01752,-0.0159 -0.04265,-0.0232 -0.05587,-0.0163 -0.01322,0.007 -0.02403,0.003 -0.02403,-0.009 0,-0.0116 -0.0069,-0.0365 -0.01552,-0.0553 -0.01017,-0.0224 -0.0013,-0.0342 0.02557,-0.0342 0.0226,0 0.0411,0.01 0.0411,0.0216 0,0.0119 0.01439,0.0213 0.03196,0.0208 0.01759,-4.9e-4 0.0061,-0.019 -0.02557,-0.0413 -0.07299,-0.0514 -0.0787,-0.0987 -0.0081,-0.0668 0.05817,0.0263 0.106124,0.0297 0.05845,0.004 -0.02542,-0.0136 -0.02131,-0.0298 0.01834,-0.0724 0.02809,-0.0302 0.04378,-0.061 0.03486,-0.0686 -0.0089,-0.008 0.01328,-0.0136 0.0493,-0.0136 0.05813,0 0.06664,-0.01 0.07562,-0.0896 0.0089,-0.0792 -10e-4,-0.0999 -0.08614,-0.17827 -0.09941,-0.0917 -0.116735,-0.12109 -0.07113,-0.12109 0.01793,0 0.01767,-0.0139 -10e-4,-0.0433 -0.01506,-0.0238 -0.04135,-0.0425 -0.05843,-0.0415 -0.02343,9.7e-4 -0.0232,0.005 10e-4,0.0126 0.04931,0.0168 0.03833,0.0749 -0.01279,0.0677 -0.103794,-0.0147 -0.07361,-0.0837 0.08325,-0.19002 0.04359,-0.0295 0.04624,-0.0289 0.03016,0.007 -0.01984,0.0447 0.07553,0.12758 0.128704,0.11184 0.01713,-0.005 0.03795,8e-5 0.04626,0.0115 0.0084,0.0114 0.003,0.0207 -0.01181,0.0207 -0.0148,0 -0.0018,0.0243 0.02883,0.0542 0.03819,0.0371 0.06156,0.0462 0.07422,0.0289 0.01142,-0.0156 0.02204,-0.005 0.0278,0.0269 0.0051,0.0286 0.02343,0.0497 0.04068,0.0468 0.01723,-0.003 0.03136,0.01 0.03136,0.0282 0,0.0185 0.0102,0.0283 0.02268,0.0218 0.02816,-0.0147 0.08547,0.0403 0.06235,0.0599 -0.0092,0.008 0.0015,0.0142 0.02428,0.0142 0.09987,0 0.06456,0.12112 -0.03892,0.13354 -0.03677,0.005 -0.0551,0.0198 -0.05071,0.0424 0.0075,0.0386 -0.07033,0.045 -0.101386,0.009 -0.0098,-0.0116 -0.02581,-0.0142 -0.03561,-0.006 -0.0098,0.009 -0.0029,0.0303 0.01545,0.0489 0.04861,0.0495 -0.0057,0.0856 -0.12244,0.0815 -0.05242,-0.002 -0.07517,9.7e-4 -0.05056,0.008 0.02462,0.006 0.04474,0.0139 0.04474,0.0175 0,0.004 -0.0439,0.0448 -0.09756,0.0916 -0.08016,0.0697 -0.103236,0.0798 -0.129389,0.0561 z m 0.137449,-0.22233 c 0.0086,-0.0119 0.0036,-0.0216 -0.01127,-0.0216 -0.01488,0 -0.02708,0.01 -0.02708,0.0216 0,0.0119 0.0051,0.0216 0.01127,0.0216 0.0062,0 0.01839,-0.01 0.02708,-0.0216 z m 0.164324,-0.18559 c -0.04486,-0.0457 -0.07988,-0.0367 -0.04435,0.0113 0.017,0.023 0.04067,0.0367 0.0526,0.0305 0.01193,-0.006 0.0082,-0.025 -0.0083,-0.0418 z m -0.125969,-0.3546 c 0,-0.0119 -0.0115,-0.0216 -0.02557,-0.0216 -0.01405,0 -0.02557,0.01 -0.02557,0.0216 0,0.0119 0.01149,0.0216 0.02557,0.0216 0.01405,0 0.02557,-0.01 0.02557,-0.0216 z"
         id="path122"
         inkscape:connector-curvature="0" />
      <path
         style="opacity:1;fill:#00ff00;fill-opacity:1;fill-rule:nonzero;stroke:none;stroke-width:0.28018731;stroke-miterlimit:4;stroke-dasharray:none;stroke-opacity:1"
         d=""
         id="path124"
         inkscape:connector-curvature="0" />
      <path
         style="opacity:1;fill:#00ff00;fill-opacity:1;fill-rule:nonzero;stroke:none;stroke-width:0.28018731;stroke-miterlimit:4;stroke-dasharray:none;stroke-opacity:1"
         d=""
         id="path126"
         inkscape:connector-curvature="0" />
      <path
         style="opacity:1;fill:#668000;fill-opacity:1;fill-rule:nonzero;stroke:none;stroke-width:0.04299989;stroke-miterlimit:4;stroke-dasharray:none;stroke-opacity:1"
         d="m 40.135041,287.679 c 0,-0.0119 -0.0156,-0.0216 -0.03465,-0.0216 -0.03509,0 -0.169925,-0.12333 -0.169925,-0.15542 0,-0.01 -0.01245,-0.0174 -0.0277,-0.0174 -0.04228,0 -0.202438,-0.14744 -0.202438,-0.18637 0,-0.0216 -0.01416,-0.0297 -0.03836,-0.0219 -0.03816,0.0124 -0.04146,0.008 -0.04688,-0.07 -0.0033,-0.0477 0.288718,-0.30821 0.324556,-0.2895 0.01339,0.007 0.0171,0.003 0.0083,-0.009 -0.02335,-0.0319 0.128333,-0.13821 0.208275,-0.14592 0.0923,-0.009 0.132275,0.0231 0.132275,0.10601 0,0.0459 -0.02155,0.0863 -0.06393,0.11996 -0.03516,0.028 -0.06392,0.0427 -0.06392,0.0328 0,-0.01 -0.02255,-7.3e-4 -0.05013,0.0204 -0.02757,0.021 -0.04771,0.0493 -0.04475,0.0627 0.0029,0.0134 -0.0063,0.0228 -0.02054,0.0207 -0.01426,-0.002 -0.03876,0.0193 -0.05445,0.0474 -0.02535,0.0454 -0.01764,0.0603 0.06866,0.13276 0.05346,0.0449 0.09168,0.0892 0.08491,0.0984 -0.0067,0.01 5.16e-4,0.0168 0.01597,0.0168 0.01552,0 0.0572,0.0245 0.0926,0.0543 0.04774,0.0403 0.0597,0.0668 0.04632,0.10264 -0.02892,0.0774 -0.164146,0.16166 -0.164146,0.10227 z"
         id="path128"
         inkscape:connector-curvature="0" />
      <path
         style="opacity:1;fill:#668000;fill-opacity:1;fill-rule:nonzero;stroke:none;stroke-width:0.04299989;stroke-miterlimit:4;stroke-dasharray:none;stroke-opacity:1"
         d="m 41.512599,287.32328 c -0.0066,-0.006 -0.227064,-0.0111 -0.490122,-0.0126 l -0.478291,-0.003 v -0.0752 c 0,-0.0446 0.01041,-0.0697 0.02557,-0.0618 0.01405,0.008 0.02557,-0.002 0.02557,-0.0204 0,-0.0382 -0.03643,-0.0361 0.588148,-0.034 0.386245,9.7e-4 0.451875,0.007 0.479465,0.0375 0.05463,0.0614 0.03906,0.13453 -0.03363,0.15789 -0.07287,0.0234 -0.09916,0.0259 -0.116713,0.0111 z"
         id="path130"
         inkscape:connector-curvature="0" />
      <path
         style="opacity:1;fill:#668000;fill-opacity:1;fill-rule:nonzero;stroke:none;stroke-width:0.04299989;stroke-miterlimit:4;stroke-dasharray:none;stroke-opacity:1"
         d="m 42.038998,287.64817 c -0.03492,-0.045 -0.03715,-0.062 -0.01154,-0.0881 0.02532,-0.0258 0.02517,-0.0323 -7.76e-4,-0.0323 -0.01785,0 10e-4,-0.0265 0.04162,-0.0589 0.04073,-0.0324 0.08269,-0.0567 0.09323,-0.0541 0.01056,0.003 0.0163,-0.002 0.01279,-0.0114 -0.0035,-0.009 0.03209,-0.0473 0.07914,-0.0853 0.08013,-0.0648 0.0837,-0.0735 0.05663,-0.14041 -0.01938,-0.0478 -0.07281,-0.0963 -0.162242,-0.14732 -0.149252,-0.085 -0.190234,-0.17266 -0.09988,-0.21351 0.02712,-0.0123 0.05754,-0.0154 0.06759,-0.007 0.01005,0.009 0.01597,0.006 0.01313,-0.006 -0.01038,-0.0434 0.0013,-0.0757 0.02798,-0.0757 0.01491,0 0.01997,0.01 0.01129,0.0216 -0.0086,0.0119 -0.0029,0.0216 0.01279,0.0216 0.0157,0 0.02129,0.01 0.0124,0.0222 -0.0089,0.0122 -0.0067,0.0207 0.0048,0.0191 0.04742,-0.007 0.08462,0.003 0.07861,0.0214 -0.0035,0.0107 0.0018,0.0206 0.0122,0.0221 0.02993,0.004 0.147618,0.10974 0.147618,0.1323 0,0.0114 0.01289,0.0207 0.0286,0.0207 0.03855,0 0.1755,0.13443 0.15939,0.15645 -0.007,0.01 7.75e-4,0.0148 0.01705,0.0116 0.01641,-0.003 0.04223,0.01 0.05735,0.0292 0.02118,0.0272 0.0148,0.0488 -0.02795,0.0948 -0.03049,0.0327 -0.05544,0.0522 -0.05544,0.0432 0,-0.009 -0.01716,-0.004 -0.03808,0.0103 -0.02095,0.0147 -0.03177,0.0353 -0.02407,0.0459 0.0077,0.0105 2.34e-4,0.0191 -0.01635,0.0191 -0.01669,0 -0.09231,0.0553 -0.168029,0.12301 -0.07572,0.0677 -0.151911,0.12506 -0.169325,0.12757 -0.01743,0.003 -0.05094,0.0111 -0.0745,0.0192 -0.02958,0.01 -0.05625,-0.003 -0.08614,-0.0412 z"
         id="path132"
         inkscape:connector-curvature="0" />
      <path
         style="opacity:1;fill:#00aad4;fill-opacity:1;fill-rule:nonzero;stroke:none;stroke-width:0.04299989;stroke-miterlimit:4;stroke-dasharray:none;stroke-opacity:1"
         d="m 39.622431,288.64163 c -0.02822,-0.0238 -0.0311,-0.0861 -0.0085,-0.18204 l 0.01597,-0.0675 h 0.727247 0.72725 l -0.0073,0.13749 -0.0073,0.13749 -0.711534,-0.002 c -0.411018,-9.8e-4 -0.721836,-0.0111 -0.735928,-0.023 z"
         id="path134"
         inkscape:connector-curvature="0" />
      <path
         style="opacity:1;fill:#00aa88;fill-opacity:1;fill-rule:nonzero;stroke:none;stroke-width:0.04299989;stroke-miterlimit:4;stroke-dasharray:none;stroke-opacity:1"
         d="m 41.457188,288.61419 c -0.0064,-0.01 -0.0044,-0.0606 0.0044,-0.11408 l 0.01594,-0.0972 0.281285,-0.017 c 0.154709,-0.01 0.796657,-0.0142 1.426553,-0.0108 1.276037,0.007 1.193419,-0.004 1.194137,0.16141 l 2.32e-4,0.0903 -1.455599,0.002 c -0.800584,9.7e-4 -1.460788,-0.006 -1.467127,-0.0147 z"
         id="path136"
         inkscape:connector-curvature="0" />
      <path
         style="opacity:1;fill:#cc00ff;fill-opacity:1;fill-rule:nonzero;stroke:none;stroke-width:0.04299989;stroke-miterlimit:4;stroke-dasharray:none;stroke-opacity:1"
         d="m 45.198201,288.65249 c -0.203934,-0.007 -0.385171,-0.0199 -0.402751,-0.0294 -0.04075,-0.0223 -0.04236,-0.22303 -0.0018,-0.24413 0.04113,-0.0215 0.830852,-0.0315 0.941722,-0.0119 0.08816,0.0156 0.08961,0.0176 0.09708,0.13678 0.0074,0.11876 0.0061,0.12142 -0.07414,0.14505 -0.04494,0.0132 -0.105891,0.0222 -0.135439,0.0199 -0.02955,-0.002 -0.220573,-0.01 -0.424505,-0.0162 z m 0.475973,-0.10944 c -0.0015,-0.024 -0.01154,-0.0433 -0.02209,-0.0433 -0.01056,1.4e-4 -0.03108,2.2e-4 -0.04565,2.2e-4 -0.01793,0 -0.01767,0.0139 10e-4,0.0432 0.03525,0.0556 0.07056,0.0555 0.06683,-2.2e-4 z"
         id="path138"
         inkscape:connector-curvature="0" />
      <path
         style="opacity:1;fill:#ff00cc;fill-opacity:1;fill-rule:nonzero;stroke:none;stroke-width:0.04299989;stroke-miterlimit:4;stroke-dasharray:none;stroke-opacity:1"
         d="m 39.684067,289.45754 c -0.03677,-0.006 -0.05975,-0.0307 -0.07032,-0.0754 -0.02332,-0.0985 -0.01987,-0.11917 0.02648,-0.15832 0.03676,-0.0311 0.10486,-0.0349 0.53061,-0.0298 0.268635,0.003 0.509095,0.01 0.534357,0.0153 0.03861,0.008 0.04472,0.0287 0.03835,0.13087 -0.0075,0.12025 -0.0085,0.12154 -0.09235,0.12834 -0.04663,0.004 -0.101773,-0.005 -0.122546,-0.0197 -0.0286,-0.0201 -0.04495,-0.0204 -0.06737,-9.7e-4 -0.02843,0.024 -0.644684,0.032 -0.777207,0.01 z"
         id="path140"
         inkscape:connector-curvature="0" />
      <path
         style="opacity:1;fill:#3737c8;fill-opacity:1;fill-rule:nonzero;stroke:none;stroke-width:0.02149995;stroke-miterlimit:4;stroke-dasharray:none;stroke-opacity:1"
         d="m 41.179729,289.44724 c -0.04463,-0.0109 -0.04924,-0.019 -0.06111,-0.10756 -0.0107,-0.0798 0.0057,-0.11395 0.05954,-0.12448 0.02328,-0.005 0.516989,-0.008 1.097143,-0.006 0.580152,9.7e-4 1.064471,0.002 1.076264,0.002 0.0327,-1.5e-4 0.06371,0.0627 0.06312,0.1279 -7.75e-4,0.0758 -0.0083,0.0931 -0.04705,0.10805 -0.04019,0.0155 -2.124707,0.016 -2.187901,7.3e-4 z"
         id="path142"
         inkscape:connector-curvature="0" />
      <path
         style="opacity:1;fill:#2c89a0;fill-opacity:1;fill-rule:nonzero;stroke:none;stroke-width:0.02149995;stroke-miterlimit:4;stroke-dasharray:none;stroke-opacity:1"
         d="m 43.818105,289.45296 c -0.0157,-0.0279 -0.01803,-0.0436 -0.0086,-0.0584 0.01929,-0.0305 0.0157,-0.0518 -0.01268,-0.0758 -0.01405,-0.0119 -0.02517,-0.0301 -0.02467,-0.0405 0.001,-0.0166 0.0021,-0.0163 0.01056,0.002 0.0089,0.0193 0.01026,0.0195 0.01827,0.002 0.0048,-0.0105 0.0086,-0.0282 0.0086,-0.0395 0,-0.0133 0.0192,-0.0288 0.05414,-0.0438 0.05079,-0.0219 0.06209,-0.0227 0.182199,-0.0124 0.07736,0.007 0.390169,0.009 0.790128,0.007 0.784194,-0.006 0.722566,-0.0158 0.712395,0.11877 -0.0063,0.0828 -0.0075,0.0854 -0.06024,0.12694 -0.04772,0.0376 -0.06154,0.0426 -0.121466,0.0438 -0.238625,0.005 -1.324875,0.003 -1.403729,-0.003 -0.05274,-0.004 -0.102083,-0.003 -0.109644,0.003 -0.0088,0.006 -0.02144,-0.005 -0.03526,-0.0288 z m 0.146584,-0.23519 c -0.0078,-0.008 -0.01044,-0.0177 -0.0058,-0.0216 0.0047,-0.004 -0.0064,-0.007 -0.02449,-0.007 -0.0266,0 -0.03162,0.004 -0.02621,0.0216 0.0045,0.0143 0.01743,0.0216 0.03872,0.0216 0.02535,0 0.02907,-0.003 0.0178,-0.0145 z"
         id="path144"
         inkscape:connector-curvature="0" />
      <path
         style="opacity:1;fill:#ff0066;fill-opacity:1;fill-rule:nonzero;stroke:none;stroke-width:0.02149995;stroke-miterlimit:4;stroke-dasharray:none;stroke-opacity:1"
         d="m 45.113731,290.31329 c -0.01056,-0.005 -0.03451,-0.015 -0.05327,-0.0223 -0.0411,-0.0162 -0.05498,-0.0521 -0.02936,-0.076 0.02475,-0.0231 0.02369,-0.034 -0.0083,-0.0858 -0.03071,-0.0498 -0.02413,-0.0634 0.04354,-0.0897 0.03408,-0.0133 0.123202,-0.0157 0.529756,-0.0145 l 0.488794,9.7e-4 0.04056,0.0343 c 0.03264,0.0276 0.04072,0.0434 0.04135,0.081 0.0013,0.0714 -0.01289,0.10076 -0.06193,0.12899 -0.02467,0.0142 -0.04491,0.0319 -0.04495,0.0393 -8.7e-5,0.0104 -0.07231,0.0135 -0.318361,0.0135 -0.283565,0 -0.319156,-0.002 -0.326349,-0.0177 -0.0069,-0.0153 -0.02206,-0.0168 -0.106265,-0.0107 -0.05402,0.004 -0.103928,0.0119 -0.110928,0.0177 -0.01512,0.0128 -0.05747,0.013 -0.08433,7.3e-4 z"
         id="path146"
         inkscape:connector-curvature="0" />
      <path
         style="opacity:1;fill:#00ff00;fill-opacity:1;fill-rule:nonzero;stroke:none;stroke-width:0.02149995;stroke-miterlimit:4;stroke-dasharray:none;stroke-opacity:1"
         d="m 42.318948,290.28956 c -0.0057,-0.008 -0.0088,-0.0579 -0.0069,-0.11162 0.0039,-0.11556 0.01537,-0.12895 0.103974,-0.12157 0.03164,0.003 0.07193,9.7e-4 0.0895,-0.004 l 0.03197,-0.008 -0.03197,-9.7e-4 c -0.01759,-9.8e-4 -0.07655,-0.002 -0.131055,-0.003 -0.07167,-9.8e-4 -0.09909,-0.006 -0.09909,-0.0158 0,-0.0114 0.219289,-0.0135 1.179486,-0.0113 l 1.179484,0.003 7.76e-4,0.14045 7.75e-4,0.14045 -0.0042,-0.12965 -0.0042,-0.12965 -0.105111,9.8e-4 c -0.05781,7.3e-4 -0.122368,0.002 -0.143466,0.004 l -0.03835,0.003 0.04474,0.009 c 0.02461,0.005 0.07991,0.006 0.12287,0.003 0.05868,-0.005 0.08088,-0.002 0.08923,0.009 0.0061,0.008 0.01193,0.0598 0.01289,0.11471 0.0018,0.10537 -0.01041,0.1314 -0.05528,0.11685 -0.02793,-0.009 -2.151589,-0.009 -2.194291,-2e-5 -0.01925,0.004 -0.03509,9.8e-4 -0.04145,-0.008 z"
         id="path148"
         inkscape:connector-curvature="0" />
      <path
         style="opacity:1;fill:#ffcc00;fill-opacity:1;fill-rule:nonzero;stroke:none;stroke-width:0.02149995;stroke-miterlimit:4;stroke-dasharray:none;stroke-opacity:1"
         d="m 39.737054,290.29183 c -0.04842,-0.01 -0.105643,-0.041 -0.121717,-0.0664 -0.0139,-0.022 -0.01651,-0.1177 -0.0039,-0.1454 0.0046,-0.0101 0.03767,-0.0299 0.07352,-0.044 l 0.06519,-0.0256 1.069827,-1.2e-4 1.069824,-1.1e-4 0.03934,0.028 c 0.02165,0.0154 0.03934,0.037 0.03934,0.048 0,0.011 0.0058,0.023 0.01279,0.0267 0.007,0.004 0.01279,0.0209 0.01279,0.0385 0,0.0175 -0.0058,0.0318 -0.01279,0.0318 -0.007,0 -0.01279,0.009 -0.01279,0.0196 0,0.0243 -0.05827,0.0725 -0.106312,0.0878 -0.04122,0.0131 -2.060482,0.0145 -2.12507,9.7e-4 z m 2.155898,-0.19224 c -0.01119,-0.0163 -0.01328,-0.0141 -0.01364,0.0141 -1.68e-4,0.0183 0.0039,0.037 0.0092,0.0415 0.01527,0.0131 0.01904,-0.0344 0.0044,-0.0556 z"
         id="path150"
         inkscape:connector-curvature="0" />
      <text
         xml:space="preserve"
         style="font-style:normal;font-variant:normal;font-weight:normal;font-stretch:normal;font-size:10.58333302px;line-height:1.25;font-family:Arial;-inkscape-font-specification:Arial;letter-spacing:0px;word-spacing:0px;fill:#000000;fill-opacity:1;stroke:none;stroke-width:0.26458332"
         x="126.05946"
         y="390.2359"
         id="text154"><tspan
           sodipodi:role="line"
           id="tspan152"
           x="126.05946"
           y="399.76889"
           style="stroke-width:0.26458332" /></text>
      <path
         style="fill:#ff7f2a;fill-opacity:1;stroke:none;stroke-width:0.06788845px;stroke-linecap:butt;stroke-linejoin:miter;stroke-opacity:1"
         d="m 0,283.88798 h 23.368859 v 2.5468 l -23.2276962,0.0138 z"
         id="path156"
         inkscape:connector-curvature="0" />
      <path
         style="fill:#ff7f2a;fill-opacity:1;stroke:none;stroke-width:0.06157146px;stroke-linecap:butt;stroke-linejoin:miter;stroke-opacity:1"
         d="m 17.665244,284.29942 h -3.032539 l 0.01081,10.64549 h 3.021728 z"
         id="path158"
         inkscape:connector-curvature="0" />
    </g>
    <text
       xml:space="preserve"
       style="font-style:normal;font-variant:normal;font-weight:bold;font-stretch:normal;font-size:3.98577452px;line-height:1.25;font-family:Arial;-inkscape-font-specification:'Arial, Bold';font-variant-ligatures:normal;font-variant-caps:normal;font-variant-numeric:normal;font-feature-settings:normal;text-align:center;letter-spacing:0px;word-spacing:0px;writing-mode:lr-tb;text-anchor:middle;fill:#2c89a0;fill-opacity:1;stroke:none;stroke-width:0.21352363;"
       x="26.290112"
       y="278.32236"
       id="text971"
       transform="scale(1.0032053,0.99680495)"><tspan
         sodipodi:role="line"
         id="tspan969"
         x="26.290112"
         y="278.32236"
         style="font-style:normal;font-variant:normal;font-weight:bold;font-stretch:normal;font-size:3.98577452px;font-family:Arial;-inkscape-font-specification:'Arial, Bold';font-variant-ligatures:normal;font-variant-caps:normal;font-variant-numeric:normal;font-feature-settings:normal;text-align:center;writing-mode:lr-tb;text-anchor:middle;stroke-width:0.21352363;fill:#2c89a0;">ERA TECHNICAL SCHOOL</tspan><tspan
         sodipodi:role="line"
         x="26.290112"
         y="283.30457"
         style="font-style:normal;font-variant:normal;font-weight:bold;font-stretch:normal;font-size:3.98577452px;font-family:Arial;-inkscape-font-specification:'Arial, Bold';font-variant-ligatures:normal;font-variant-caps:normal;font-variant-numeric:normal;font-feature-settings:normal;text-align:center;writing-mode:lr-tb;text-anchor:middle;stroke-width:0.21352363;fill:#2c89a0;"
         id="tspan973">AND COLLEGE</tspan></text>
  </g>
</svg>
