<?xml version="1.0" encoding="UTF-8" standalone="no"?>
<!-- Created with Inkscape (http://www.inkscape.org/) -->

<svg
   xmlns:dc="http://purl.org/dc/elements/1.1/"
   xmlns:cc="http://creativecommons.org/ns#"
   xmlns:rdf="http://www.w3.org/1999/02/22-rdf-syntax-ns#"
   xmlns:svg="http://www.w3.org/2000/svg"
   xmlns="http://www.w3.org/2000/svg"
   xmlns:sodipodi="http://sodipodi.sourceforge.net/DTD/sodipodi-0.dtd"
   xmlns:inkscape="http://www.inkscape.org/namespaces/inkscape"
   width="200"
   height="200"
   viewBox="0 0 52.916666 52.916666"
   version="1.1"
   id="svg8"
   inkscape:export-filename="E:\Web Development\Shahin Software\img\logo.png"
   inkscape:export-xdpi="68.588203"
   inkscape:export-ydpi="68.588203"
   inkscape:version="0.92.1 r15371"
   sodipodi:docname="shahin devware logo.svg">
  <defs
     id="defs2" />
  <sodipodi:namedview
     id="base"
     pagecolor="#ffffff"
     bordercolor="#666666"
     borderopacity="1.0"
     inkscape:pageopacity="0.0"
     inkscape:pageshadow="2"
     inkscape:zoom="2.58"
     inkscape:cx="41.666666"
     inkscape:cy="100"
     inkscape:document-units="mm"
     inkscape:current-layer="layer1"
     showgrid="false"
     units="px"
     showborder="false"
     inkscape:window-width="1024"
     inkscape:window-height="715"
     inkscape:window-x="-8"
     inkscape:window-y="-8"
     inkscape:window-maximized="1" />
  <metadata
     id="metadata5">
    <rdf:RDF>
      <cc:Work
         rdf:about="">
        <dc:format>image/svg+xml</dc:format>
        <dc:type
           rdf:resource="http://purl.org/dc/dcmitype/StillImage" />
        <dc:title />
      </cc:Work>
    </rdf:RDF>
  </metadata>
  <g
     inkscape:label="Layer 1"
     inkscape:groupmode="layer"
     id="layer1"
     transform="translate(0,-244.08334)">
    <path
       style="opacity:1;fill:#00ffff;fill-opacity:1;fill-rule:nonzero;stroke:none;stroke-width:2.16005492;stroke-miterlimit:4;stroke-dasharray:none;stroke-opacity:1"
       d="M 28.210938 0 C 12.581718 0 0 12.581718 0 28.210938 L 0 171.78906 C -2.3684758e-015 187.41828 12.581718 200 28.210938 200 L 171.78906 200 C 187.41828 200 200 187.41828 200 171.78906 L 200 28.210938 C 200 12.581718 187.41828 0 171.78906 0 L 28.210938 0 z M 102.78906 50 C 106.3983 50 109.93778 50.382302 113.4082 51.146484 C 116.92491 51.910289 120.37212 53.056413 123.75 54.583984 C 127.17415 56.066617 130.52913 57.952915 133.81445 60.244141 L 125.76367 71.160156 C 121.92307 68.419696 118.08279 66.37719 114.24219 65.029297 C 110.44786 63.636692 106.62966 62.939453 102.78906 62.939453 C 95.894494 62.939453 90.528101 64.286938 86.6875 66.982422 C 82.893172 69.633231 80.994141 73.407629 80.994141 78.304688 L 80.994141 78.369141 C 80.994141 81.738627 81.966719 84.388445 83.910156 86.320312 C 85.899862 88.252142 88.352425 89.691925 91.267578 90.634766 C 94.229004 91.533235 98.323958 92.476384 103.55273 93.464844 C 103.73784 93.50793 103.90016 93.56068 104.03906 93.599609 C 104.22415 93.599609 104.40867 93.624755 104.59375 93.664062 C 104.82504 93.707149 105.07982 93.759521 105.35742 93.798828 C 105.63505 93.841537 105.88967 93.892334 106.12109 93.931641 C 112.22903 95.14468 117.31866 96.583744 121.39062 98.246094 C 125.50886 99.908368 128.93205 102.60319 131.66211 106.33203 C 134.43844 110.01601 135.82812 115.06966 135.82812 121.49414 L 135.82812 121.62891 C 135.82812 127.60415 134.37025 132.72603 131.45508 136.99414 C 128.53994 141.21723 124.30658 144.4509 118.75391 146.69727 C 113.24751 148.89869 106.58369 150 98.763672 150 C 93.905085 150 89.300766 149.55085 84.951172 148.65234 C 80.601574 147.75384 76.528707 146.40639 72.734375 144.60938 C 68.986331 142.8124 65.470871 140.56462 62.185547 137.86914 L 71 127.35742 C 74.840605 130.59217 79.073949 133.01747 83.701172 134.63477 C 88.32841 136.25221 93.349805 137.06055 98.763672 137.06055 C 106.0747 137.06055 111.74189 135.75814 115.76758 133.15234 C 119.79326 130.50172 121.80664 126.77398 121.80664 121.9668 L 121.80664 121.90039 C 121.80664 118.48608 120.88213 115.79115 119.03125 113.81445 C 117.22663 111.79275 114.86633 110.31139 111.95117 109.36719 C 109.08229 108.37884 105.35635 107.48039 100.77539 106.67188 C 100.63665 106.63295 100.4761 106.60547 100.29102 106.60547 C 100.15211 106.60547 100.01194 106.58032 99.873047 106.54102 L 98.832031 106.33789 C 92.076273 105.21469 86.571509 103.95717 82.314453 102.56445 C 78.103685 101.12683 74.494027 98.543448 71.486328 94.814453 C 68.478633 91.040595 66.974609 85.69408 66.974609 78.775391 L 66.974609 78.710938 C 66.974609 72.645854 68.362333 67.478893 71.138672 63.210938 C 73.961272 58.897967 78.056241 55.617532 83.423828 53.371094 C 88.791422 51.124467 95.246671 50.001953 102.78906 50.001953 L 102.78906 50 z M 49.433594 52.685547 L 49.433594 68.388672 L 28.265625 80.248047 L 49.433594 92.041016 L 49.433594 107.87891 L 3 80.248047 L 49.433594 52.685547 z M 150.56641 90.246094 L 197 117.80859 L 150.56641 145.4375 L 150.56641 129.60156 L 171.73438 117.80859 L 150.56641 105.94727 L 150.56641 90.246094 z "
       transform="matrix(0.26458333,0,0,0.26458333,0,244.08334)"
       id="rect10"
       inkscape:export-xdpi="68.588203"
       inkscape:export-ydpi="68.588203" />
  </g>
</svg>
